{
.formatVersion = 3;
familyName = "Sheek Bakrii Saphaloo";
customParameters = (
{
name = glyphOrder;
value = (
space,
exclam,
quotedbl,
numbersign,
dollar,
percent,
ampersand,
quotesingle,
parenleft,
parenright,
asterisk,
plus,
comma,
hyphen,
period,
slash,
zero,
one,
two,
three,
four,
five,
six,
seven,
eight,
nine,
colon,
semicolon,
less,
equal,
greater,
question,
at,
A,
B,
C,
D,
E,
F,
G,
H,
I,
J,
K,
L,
M,
N,
O,
P,
Q,
R,
S,
T,
U,
V,
W,
X,
Y,
Z,
bracketleft,
backslash,
bracketright,
asciicircum,
underscore,
grave,
a,
b,
c,
d,
e,
f,
g,
h,
i,
j,
k,
l,
m,
n,
o,
p,
q,
r,
s,
t,
u,
v,
w,
x,
y,
z,
braceleft,
bar,
braceright,
asciitilde,
ae,
ccedilla,
egrave,
eacute,
ecircumflex,
edieresis,
igrave,
iacute,
icircumflex,
idieresis,
eth,
ntilde,
ograve,
oacute,
ocircumflex,
otilde,
odieresis,
divide,
oslash,
ugrave,
uacute,
ucircumflex,
udieresis,
yacute,
thorn,
ydieresis,
TeTse,
tetse,
Chertdes,
chertdes,
Chevertbar,
chevertbar,
Hcyril,
hcyril,
Iehook,
iehook,
Iehookogonek,
iehookogonek,
Icyril1,
Zhebreve,
zhebreve,
Kahook,
kahook,
Enhook,
enhook,
Cheleftdes,
cheleftdes,
sheva,
uniE000,
uniE001,
uniE002,
uniE003,
uniE004,
uniE005,
uniE006,
uniE007,
uniE008,
uniE009,
uniE00A,
uniE00B,
uniE00C,
uniE00D,
uniE00E,
uniE00F,
uniE010,
uniE011,
uniE012,
uniE013,
uniE014,
uniE015,
uniE016,
uniE017,
uniE018,
uniE019,
uniE01A,
uniE01B,
uniE01C,
uniE01D,
uniE01E,
uniE01F,
uniE020,
uniE021,
uniE022,
uniE023,
uniE024,
uniE025,
uniE026,
uniE027,
uniE028,
uniE029,
uniE02A,
uniE02B,
uniE02C,
uniE02D,
uniE02E,
uniE02F,
uniE030,
uniE031,
uniE032,
uniE033,
uniE034,
uniE035,
uniE036,
uniE037,
uniE038,
uniE039,
uniE03A,
uniE03B,
uniE03C,
uniE03D,
uniE03E,
uniE03F,
uniE040,
uniE041,
uniE042,
uniE043,
uniE044,
uniE045,
uniE046,
uniE047,
uniE048,
uniE049,
uniE04A,
uniE04B,
uniE04C,
uniE04D,
uniE04E,
uniE04F,
uniE050,
uniE051,
uniE052,
uniE053,
uniE054,
uniE055,
uniE056,
uniE057,
uniE058,
uniE059,
uniE05A,
uniE05B,
uniE05C,
uniE05D,
uniE05E,
uniE05F,
uniE060,
uniE061,
uniE062,
uniE063,
uniE064,

glyphs = (
{
glyphname = exclam;
layers = (
{
layerId = "C9131A5A-EDD4-486F-A7AF-343E1560E480";
shapes = (
{
closed = 1;
nodes = (
(352.187,1007.13,l),
(305.405,322.176,l),
(203.898,322.176,l),
(155.351,1007.13,l),
(155.351,1294,l),
(352.187,1294,l)
);
},
{
closed = 1;
nodes = (
(345.126,0,l),
(162.412,0,l),
(162.412,180.948,l),
(345.126,180.948,l)
);
}
);
width = 502;
}
);
unicode = 33;
},
{
glyphname = quotedbl;
layers = (
{
layerId = "C9131A5A-EDD4-486F-A7AF-343E1560E480";
shapes = (
{
closed = 1;
nodes = (
(556.967,1083.04,l),
(515.482,835.01,l),
(419.27,835.01,l),
(376.019,1083.04,l),
(376.019,1294,l),
(556.967,1294,l)
);
},
{
closed = 1;
nodes = (
(263.92,1083.04,l),
(224.199,835.01,l),
(126.222,835.01,l),
(82.971,1083.04,l),
(82.971,1294,l),
(263.92,1294,l)
);
}
);
width = 642;
}
);
unicode = 34;
},
{
glyphname = numbersign;
layers = (
{
layerId = "C9131A5A-EDD4-486F-A7AF-343E1560E480";
shapes = (
{
closed = 1;
nodes = (
(981.533,353.952,l),
(710.553,353.952,l),
(634.643,-22.067,l),
(500.476,-22.067,l),
(576.386,353.952,l),
(300.109,353.952,l),
(224.199,-22.067,l),
(90.033,-22.067,l),
(167.708,353.952,l),
(17.653,353.952,l),
(17.653,486.353,l),
(193.306,486.353,l),
(260.389,805.881,l),
(17.653,805.881,l),
(17.653,938.282,l),
(285.986,938.282,l),
(363.662,1316.07,l),
(495.18,1316.07,l),
(417.505,938.282,l),
(695.547,938.282,l),
(774.105,1316.07,l),
(905.624,1316.07,l),
(829.714,938.282,l),
(981.533,938.282,l),
(981.533,805.881,l),
(802.351,805.881,l),
(737.915,486.353,l),
(981.533,486.353,l)
);
},
{
closed = 1;
nodes = (
(670.832,805.881,l),
(391.907,805.881,l),
(327.472,486.353,l),
(603.749,486.353,l)
);
}
);
width = 1005;
}
);
unicode = 35;
},
{
glyphname = dollar;
layers = (
{
layerId = "C9131A5A-EDD4-486F-A7AF-343E1560E480";
shapes = (
{
closed = 1;
nodes = (
(919.746,200.367,o),
(710.553,-17.653,o),
(543.727,-25.597,q),
(543.727,-186.244,l),
(450.164,-186.244,l),
(450.164,-27.363,l),
(334.533,-12.357,o),
(265.685,22.067,qs),
(182.714,63.553,o),
(74.145,234.791,o),
(65.318,360.131,q),
(224.199,388.377,l),
(262.154,126.222,o),
(450.164,106.804,q),
(450.164,612.576,l),
(352.187,631.112,o),
(249.797,688.486,qs),
(91.798,777.636,o),
(91.798,976.237,qs),
(91.798,1145.71,o),
(211.842,1250.75,qs),
(293.048,1321.36,o),
(450.164,1338.13,q),
(450.164,1414.04,l),
(543.727,1414.04,l),
(543.727,1338.13,l),
(848.25,1309.01,o),
(889.735,1017.72,q),
(724.675,993.891,l),
(698.195,1171.31,o),
(543.727,1203.97,q),
(543.727,744.977,l),
(665.536,714.083,o),
(703.491,698.195,qs),
(845.602,636.408,o),
(895.031,507.538,qs),
(919.746,443.102,o),
(919.746,368.958,q)
);
},
{
closed = 1;
nodes = (
(450.164,1205.73,l),
(361.896,1191.61,o),
(251.562,1075.98,o),
(251.562,988.595,qs),
(251.562,826.183,o),
(450.164,764.396,q)
);
},
{
closed = 1;
nodes = (
(757.334,457.225,o),
(698.195,513.716,q),
(652.296,555.202,o),
(543.727,591.392,q),
(543.727,106.804,l),
(639.939,119.161,o),
(757.334,258.623,o),
(757.334,358.366,q)
);
}
);
width = 1005;
}
);
unicode = 36;
},
{
glyphname = percent;
layers = (
{
layerId = "C9131A5A-EDD4-486F-A7AF-343E1560E480";
shapes = (
{
closed = 1;
nodes = (
(1497.02,151.82,o),
(1428.17,58.256,qs),
(1352.26,-46.782,o),
(1214.56,-46.782,qs),
(1075.98,-46.782,o),
(1003.6,63.552,qs),
(941.813,155.351,o),
(941.813,303.64,qs),
(941.813,443.102,o),
(1007.13,533.135,qs),
(1081.28,636.408,o),
(1214.56,636.408,qs),
(1355.79,636.408,o),
(1429.93,531.37,q),
(1497.02,441.337,o),
(1497.02,294.813,q)
);
},
{
closed = 1;
nodes = (
(1218.09,1316.07,l),
(513.716,-46.782,l),
(381.315,-46.782,l),
(1090.1,1316.07,l)
);
},
{
closed = 1;
nodes = (
(657.592,831.479,o),
(591.392,737.915,qs),
(515.482,632.877,o),
(377.784,632.877,qs),
(238.322,632.877,o),
(165.943,741.446,qs),
(105.038,835.01,o),
(105.038,983.299,qs),
(105.038,1122.76,o),
(170.356,1212.79,qs),
(243.618,1316.07,o),
(376.019,1316.07,qs),
(517.247,1316.07,o),
(593.157,1211.03,qs),
(657.592,1121,o),
(657.592,974.472,q)
);
},
{
closed = 1;
nodes = (
(1357.55,527.839,o),
(1218.09,527.839,qs),
(1081.28,527.839,o),
(1081.28,287.752,qs),
(1081.28,61.787,o),
(1218.09,61.787,qs),
(1357.55,61.787,o),
(1357.55,300.109,q)
);
},
{
closed = 1;
nodes = (
(520.778,1205.73,o),
(381.315,1205.73,qs),
(243.618,1205.73,o),
(243.618,967.411,qs),
(243.618,741.446,o),
(381.315,741.446,qs),
(520.778,741.446,o),
(520.778,979.768,q)
);
}
);
width = 1607;
}
);
unicode = 37;
},
{
glyphname = ampersand;
layers = (
{
layerId = "C9131A5A-EDD4-486F-A7AF-343E1560E480";
shapes = (
{
closed = 1;
nodes = (
(1057.44,-30.894,l),
(962.115,32.659,o),
(858.842,151.82,q),
(701.726,-22.067,o),
(488.119,-22.067,qs),
(287.752,-22.067,o),
(172.121,112.1,qs),
(77.675,220.668,o),
(77.675,355.718,qs),
(77.675,596.688,o),
(384.846,743.211,q),
(240.087,910.92,o),
(240.087,1026.55,qs),
(240.087,1153.65,o),
(339.829,1236.63,qs),
(431.628,1316.07,o),
(562.263,1316.07,qs),
(684.955,1316.07,o),
(862.372,1162.48,o),
(862.372,1039.79,qs),
(862.372,855.311,o),
(617.872,724.675,q),
(850.015,428.097,l),
(889.735,505.772,o),
(910.92,609.045,q),
(1077.74,572.855,l),
(1033.61,405.147,o),
(962.115,294.813,q),
(1052.15,177.417,o),
(1164.25,96.212,q)
);
},
{
closed = 1;
nodes = (
(699.961,1100.69,o),
(617.872,1185.43,o),
(553.437,1185.43,qs),
(489.884,1185.43,o),
(403.382,1104.23,o),
(403.382,1043.32,qs),
(403.382,981.533,o),
(464.287,909.154,qs),
(534.9,827.948,l),
(616.106,874.73,o),
(648.765,909.154,qs),
(699.961,963.88,o),
(699.961,1036.26,q)
);
},
{
closed = 1;
nodes = (
(467.817,639.939,l),
(249.797,507.538,o),
(249.797,367.192,qs),
(249.797,267.45,o),
(390.142,117.396,o),
(489.884,117.396,qs),
(565.794,117.396,o),
(715.849,211.842,o),
(759.1,278.042,q)
);
}
);
width = 1206;
}
);
unicode = 38;
},
{
glyphname = quotesingle;
layers = (
{
layerId = "C9131A5A-EDD4-486F-A7AF-343E1560E480";
shapes = (
{
closed = 1;
nodes = (
(260.389,1077.74,l),
(218.903,835.01,l),
(119.161,835.01,l),
(79.441,1077.74,l),
(79.441,1294,l),
(260.389,1294,l)
);
}
);
width = 345;
}
);
unicode = 39;
},
{
glyphname = parenleft;
layers = (
{
layerId = "C9131A5A-EDD4-486F-A7AF-343E1560E480";
shapes = (
{
closed = 1;
nodes = (
(422.801,-379.55,l),
(110.334,14.123,o),
(110.334,467.817,qs),
(110.334,898.562,o),
(422.801,1316.07,q),
(536.666,1316.07,l),
(429.862,1133.35,o),
(396.321,1053.91,qs),
(272.746,775.87,o),
(272.746,467.817,qs),
(272.746,43.251,o),
(536.666,-379.55,q)
);
}
);
width = 602;
}
);
unicode = 40;
},
{
glyphname = parenright;
layers = (
{
layerId = "C9131A5A-EDD4-486F-A7AF-343E1560E480";
shapes = (
{
closed = 1;
nodes = (
(536.666,17.653,o),
(224.199,-379.55,q),
(110.334,-379.55,l),
(374.254,43.251,o),
(374.254,467.817,qs),
(374.254,774.105,o),
(251.562,1052.15,qs),
(215.372,1133.35,o),
(110.334,1316.07,q),
(224.199,1316.07,l),
(536.666,898.562,o),
(536.666,467.817,q)
);
}
);
width = 602;
}
);
unicode = 41;
},
{
glyphname = asterisk;
layers = (
{
layerId = "C9131A5A-EDD4-486F-A7AF-343E1560E480";
shapes = (
{
closed = 1;
nodes = (
(639.939,1055.68,l),
(527.839,1019.49,o),
(419.27,1007.13,q),
(473.996,959.467,o),
(571.09,840.306,q),
(466.052,764.396,l),
(413.974,835.01,o),
(345.126,954.171,q),
(279.808,829.714,o),
(229.495,764.396,q),
(126.222,840.306,l),
(227.73,967.411,o),
(272.746,1007.13,q),
(158.881,1028.32,o),
(55.609,1055.68,q),
(97.977,1181.9,l),
(236.557,1131.59,o),
(301.875,1095.4,q),
(284.221,1256.05,o),
(284.221,1316.07,q),
(412.209,1316.07,l),
(408.678,1229.56,o),
(390.142,1097.16,q),
(482.823,1142.18,o),
(600.218,1181.9,q)
);
}
);
width = 703;
}
);
unicode = 42;
},
{
glyphname = plus;
layers = (
{
layerId = "C9131A5A-EDD4-486F-A7AF-343E1560E480";
shapes = (
{
closed = 1;
nodes = (
(954.171,564.029,l),
(601.984,564.029,l),
(601.984,210.076,l),
(451.929,210.076,l),
(451.929,564.029,l),
(101.508,564.029,l),
(101.508,712.318,l),
(451.929,712.318,l),
(451.929,1064.5,l),
(601.984,1064.5,l),
(601.984,712.318,l),
(954.171,712.318,l)
);
}
);
width = 1056;
}
);
unicode = 43;
},
{
glyphname = comma;
layers = (
{
layerId = "C9131A5A-EDD4-486F-A7AF-343E1560E480";
shapes = (
{
closed = 1;
nodes = (
(341.595,0,ls),
(341.595,-191.54,o),
(193.306,-256.858,q),
(150.055,-188.01,l),
(246.266,-146.524,o),
(251.562,0,q),
(160.647,0,l),
(160.647,180.948,l),
(341.595,180.948,l)
);
}
);
width = 502;
}
);
unicode = 44;
},
{
glyphname = hyphen;
layers = (
{
layerId = "C9131A5A-EDD4-486F-A7AF-343E1560E480";
shapes = (
{
closed = 1;
nodes = (
(545.493,388.377,l),
(58.256,388.377,l),
(58.256,548.141,l),
(545.493,548.141,l)
);
}
);
width = 602;
}
);
unicode = 45;
},
{
glyphname = period;
layers = (
{
layerId = "C9131A5A-EDD4-486F-A7AF-343E1560E480";
shapes = (
{
closed = 1;
nodes = (
(345.126,0,l),
(164.177,0,l),
(164.177,180.948,l),
(345.126,180.948,l)
);
}
);
width = 502;
}
);
unicode = 46;
},
{
glyphname = slash;
layers = (
{
layerId = "C9131A5A-EDD4-486F-A7AF-343E1560E480";
shapes = (
{
closed = 1;
nodes = (
(502.242,1316.07,l),
(127.988,-22.067,l),
(0,-22.067,l),
(376.019,1316.07,l)
);
}
);
width = 502;
}
);
unicode = 47;
},
{
glyphname = zero;
layers = (
{
layerId = "C9131A5A-EDD4-486F-A7AF-343E1560E480";
shapes = (
{
closed = 1;
nodes = (
(917.981,208.311,o),
(731.737,53.843,qs),
(639.939,-22.067,o),
(496.945,-22.067,qs),
(75.91,-22.067,o),
(75.91,638.173,qs),
(75.91,1069.8,o),
(262.154,1224.27,qs),
(355.718,1300.18,o),
(496.945,1300.18,qs),
(703.491,1300.18,o),
(810.295,1136.88,qs),
(917.981,967.411,o),
(917.981,638.173,q)
);
},
{
closed = 1;
nodes = (
(755.569,853.546,o),
(721.145,969.176,qs),
(662.006,1167.78,o),
(495.18,1167.78,qs),
(332.768,1167.78,o),
(272.746,969.176,qs),
(238.322,851.78,o),
(238.322,638.173,qs),
(238.322,424.566,o),
(272.746,308.936,qs),
(332.768,108.569,o),
(496.945,108.569,qs),
(755.569,108.569,o),
(755.569,638.173,q)
);
}
);
width = 1005;
}
);
unicode = 48;
},
{
glyphname = one;
layers = (
{
layerId = "C9131A5A-EDD4-486F-A7AF-343E1560E480";
shapes = (
{
closed = 1;
nodes = (
(674.363,0,l),
(515.482,0,l),
(515.482,1012.43,l),
(386.611,891.501,o),
(196.836,820.887,q),
(196.836,974.472,l),
(475.761,1104.23,o),
(571.09,1300.18,q),
(674.363,1300.18,l)
);
}
);
width = 1005;
}
);
unicode = 49;
},
{
glyphname = two;
layers = (
{
layerId = "C9131A5A-EDD4-486F-A7AF-343E1560E480";
shapes = (
{
closed = 1;
nodes = (
(909.154,0,l),
(53.843,0,l),
(50.312,132.401,o),
(177.418,281.573,qs),
(249.797,367.192,o),
(384.846,479.292,qs),
(545.493,609.045,o),
(610.81,681.424,qs),
(744.977,826.183,o),
(744.977,943.578,qs),
(744.977,1045.09,o),
(603.749,1167.78,o),
(500.476,1167.78,qs),
(383.081,1167.78,o),
(249.797,1026.55,o),
(248.031,907.389,q),
(84.737,925.925,l),
(101.508,1107.76,o),
(319.528,1300.18,o),
(504.007,1300.18,qs),
(676.128,1300.18,o),
(788.228,1207.5,qs),
(907.389,1107.76,o),
(907.389,940.048,qs),
(907.389,784.697,o),
(771.457,629.347,qs),
(695.547,543.727,o),
(526.074,401.617,qs),
(406.913,301.875,o),
(390.142,287.752,q),
(312.467,215.372,o),
(274.512,151.82,q),
(909.154,151.82,l)
);
}
);
width = 1005;
}
);
unicode = 50;
},
{
glyphname = three;
layers = (
{
layerId = "C9131A5A-EDD4-486F-A7AF-343E1560E480";
shapes = (
{
closed = 1;
nodes = (
(924.16,203.898,o),
(669.067,-23.832,o),
(488.119,-23.832,qs),
(319.528,-23.832,o),
(91.798,175.652,o),
(75.91,341.595,q),
(234.791,363.662,l),
(285.986,108.569,o),
(488.119,108.569,qs),
(601.984,108.569,o),
(753.804,263.92,o),
(753.804,377.784,qs),
(753.804,489.884,o),
(610.81,631.112,o),
(500.476,631.112,qs),
(455.46,631.112,o),
(388.377,612.576,q),
(406.913,752.038,l),
(422.801,750.273,o),
(431.628,750.273,qs),
(541.962,750.273,o),
(614.341,802.351,qs),
(695.547,860.607,o),
(695.547,967.411,qs),
(695.547,1057.44,o),
(576.386,1167.78,o),
(484.588,1167.78,qs),
(285.986,1167.78,o),
(251.562,936.517,q),
(91.798,963.88,l),
(120.926,1121,o),
(323.941,1300.18,o),
(481.057,1300.18,qs),
(581.682,1300.18,o),
(669.067,1257.81,qs),
(762.63,1211.03,o),
(860.607,1052.15,o),
(860.607,963.88,qs),
(860.607,782.932,o),
(681.424,701.726,q),
(798.82,674.363,o),
(924.16,504.007,o),
(924.16,381.315,q)
);
}
);
width = 1005;
}
);
unicode = 51;
},
{
glyphname = four;
layers = (
{
layerId = "C9131A5A-EDD4-486F-A7AF-343E1560E480";
shapes = (
{
closed = 1;
nodes = (
(917.981,308.936,l),
(743.212,308.936,l),
(743.212,0,l),
(584.33,0,l),
(584.33,308.936,l),
(23.832,308.936,l),
(23.832,455.46,l),
(612.576,1294,l),
(743.211,1294,l),
(743.211,455.46,l),
(917.981,455.46,l)
);
},
{
closed = 1;
nodes = (
(584.33,455.46,l),
(584.33,1039.79,l),
(179.183,455.46,l)
);
}
);
width = 1005;
}
);
unicode = 52;
},
{
glyphname = five;
layers = (
{
layerId = "C9131A5A-EDD4-486F-A7AF-343E1560E480";
shapes = (
{
closed = 1;
nodes = (
(932.986,263.92,o),
(829.714,135.932,qs),
(705.257,-22.067,o),
(489.884,-22.067,qs),
(319.528,-22.067,o),
(91.798,170.356,o),
(75.91,339.829,q),
(241.853,352.187,l),
(258.623,243.618,o),
(317.763,179.183,qs),
(384.846,108.569,o),
(489.884,108.569,qs),
(617.872,108.569,o),
(693.782,205.663,qs),
(764.396,294.813,o),
(764.396,424.566,qs),
(764.396,555.202,o),
(617.872,717.614,o),
(488.119,717.614,qs),
(332.768,717.614,o),
(253.327,593.157,q),
(103.273,610.81,l),
(227.73,1276.35,l),
(871.199,1276.35,l),
(871.199,1124.53,l),
(355.718,1124.53,l),
(285.986,777.636,l),
(403.382,858.842,o),
(529.604,858.842,qs),
(707.022,858.842,o),
(932.986,616.106,o),
(932.986,439.572,q)
);
}
);
width = 1005;
}
);
unicode = 53;
},
{
glyphname = six;
layers = (
{
layerId = "C9131A5A-EDD4-486F-A7AF-343E1560E480";
shapes = (
{
closed = 1;
nodes = (
(921.512,301.874,o),
(872.965,200.367,qs),
(820.887,90.033,o),
(634.643,-22.067,o),
(517.247,-22.067,qs),
(269.216,-22.067,o),
(157.116,179.183,qs),
(68.849,336.299,o),
(68.849,605.514,qs),
(68.849,1300.18,o),
(531.37,1300.18,qs),
(684.955,1300.18,o),
(880.026,1128.06,o),
(900.327,978.003,q),
(741.446,965.645,l),
(719.379,1059.21,o),
(681.424,1100.69,qs),
(617.872,1167.78,o),
(522.543,1167.78,qs),
(353.952,1167.78,o),
(270.981,967.411,qs),
(227.73,862.372,o),
(225.965,667.302,q),
(339.83,838.54,o),
(540.197,838.54,qs),
(710.553,838.54,o),
(819.122,714.083,qs),
(921.512,594.922,o),
(921.512,419.27,q)
);
},
{
closed = 1;
nodes = (
(759.1,533.135,o),
(695.547,612.576,qs),
(627.581,699.96,o),
(507.538,699.96,qs),
(391.907,699.96,o),
(251.562,536.666,o),
(251.562,419.27,qs),
(251.562,231.261,o),
(383.081,148.289,qs),
(446.633,108.569,o),
(515.482,108.569,qs),
(631.112,108.569,o),
(699.961,203.898,qs),
(759.1,289.517,o),
(759.1,410.443,q)
);
}
);
width = 1005;
}
);
unicode = 54;
},
{
glyphname = seven;
layers = (
{
layerId = "C9131A5A-EDD4-486F-A7AF-343E1560E480";
shapes = (
{
closed = 1;
nodes = (
(924.16,1153.65,l),
(784.697,1005.37,o),
(663.771,779.401,qs),
(551.671,567.559,o),
(489.884,355.718,qs),
(443.102,189.775,o),
(429.862,0,q),
(265.685,0,l),
(269.216,182.714,o),
(336.299,405.147,qs),
(398.086,609.045,o),
(491.649,786.463,qs),
(598.453,986.83,o),
(719.379,1124.53,q),
(84.737,1124.53,l),
(84.737,1278.11,l),
(924.16,1278.11,l)
);
}
);
width = 1005;
}
);
unicode = 55;
},
{
glyphname = eight;
layers = (
{
layerId = "C9131A5A-EDD4-486F-A7AF-343E1560E480";
shapes = (
{
closed = 1;
nodes = (
(925.925,191.54,o),
(679.659,-22.067,o),
(498.711,-22.067,qs),
(317.763,-22.067,o),
(196.836,82.971,q),
(74.145,195.071,o),
(74.145,374.254,qs),
(74.145,638.173,o),
(319.528,701.726,q),
(124.457,774.105,o),
(124.457,965.645,qs),
(124.457,1119.23,o),
(236.557,1211.03,q),
(339.83,1300.18,o),
(496.945,1300.18,qs),
(654.061,1300.18,o),
(759.1,1209.26,q),
(872.965,1115.7,o),
(872.965,962.115,qs),
(872.965,774.105,o),
(681.424,701.726,q),
(925.925,622.285,o),
(925.925,370.723,q)
);
},
{
closed = 1;
nodes = (
(710.553,1050.38,o),
(587.861,1167.78,o),
(498.711,1167.78,qs),
(412.209,1167.78,o),
(287.752,1057.44,o),
(287.752,970.941,qs),
(287.752,876.495,o),
(406.913,762.63,o),
(500.476,762.63,qs),
(589.626,762.63,o),
(710.553,874.73,o),
(710.553,962.115,q)
);
},
{
closed = 1;
nodes = (
(762.63,482.823,o),
(610.81,632.877,o),
(495.18,632.877,qs),
(383.08,632.877,o),
(236.557,486.353,o),
(236.557,374.254,qs),
(236.557,213.607,o),
(365.427,142.993,qs),
(428.097,108.569,o),
(500.476,108.569,qs),
(614.341,108.569,o),
(762.63,255.093,o),
(762.63,368.958,q)
);
}
);
width = 1005;
}
);
unicode = 56;
},
{
glyphname = nine;
layers = (
{
layerId = "C9131A5A-EDD4-486F-A7AF-343E1560E480";
shapes = (
{
closed = 1;
nodes = (
(925.925,210.076,o),
(712.318,53.843,qs),
(605.514,-22.067,o),
(462.521,-22.067,qs),
(308.936,-22.067,o),
(117.396,146.524,o),
(99.742,300.109,q),
(251.562,312.467,l),
(289.517,108.569,o),
(466.052,108.569,qs),
(607.28,108.569,o),
(684.955,231.261,qs),
(767.926,363.662,o),
(767.926,576.386,qs),
(767.926,587.861,o),
(766.161,609.045,q),
(717.614,529.604,o),
(551.671,439.572,o),
(457.225,439.572,qs),
(284.221,439.572,o),
(177.418,565.794,qs),
(75.91,684.955,o),
(75.91,862.372,qs),
(75.91,1050.38,o),
(184.479,1171.31,qs),
(296.579,1300.18,o),
(482.823,1300.18,qs),
(612.576,1300.18,o),
(819.122,1158.95,o),
(871.199,1038.02,qs),
(925.925,910.92,o),
(925.925,674.363,q)
);
},
{
closed = 1;
nodes = (
(750.273,990.36,o),
(686.72,1075.98,qs),
(617.872,1167.78,o),
(500.476,1167.78,qs),
(381.315,1167.78,o),
(307.171,1069.8,qs),
(238.322,979.768,o),
(238.322,857.076,qs),
(238.322,739.681,o),
(307.171,662.006,qs),
(381.315,578.151,o),
(496.945,578.151,qs),
(617.872,578.151,o),
(686.72,665.536,qs),
(750.273,744.977,o),
(750.273,869.434,q)
);
}
);
width = 1005;
}
);
unicode = 57;
},
{
glyphname = colon;
layers = (
{
layerId = "C9131A5A-EDD4-486F-A7AF-343E1560E480";
shapes = (
{
closed = 1;
nodes = (
(343.36,755.569,l),
(162.412,755.569,l),
(162.412,938.282,l),
(343.36,938.282,l)
);
},
{
closed = 1;
nodes = (
(343.36,0,l),
(162.412,0,l),
(162.412,180.948,l),
(343.36,180.948,l)
);
}
);
width = 502;
}
);
unicode = 58;
},
{
glyphname = semicolon;
layers = (
{
layerId = "C9131A5A-EDD4-486F-A7AF-343E1560E480";
shapes = (
{
closed = 1;
nodes = (
(341.595,755.569,l),
(160.647,755.569,l),
(160.647,938.282,l),
(341.595,938.282,l)
);
},
{
closed = 1;
nodes = (
(341.595,0,ls),
(341.595,-191.54,o),
(193.306,-256.858,q),
(150.055,-188.01,l),
(246.266,-146.524,o),
(251.562,0,q),
(160.647,0,l),
(160.647,180.948,l),
(341.595,180.948,l)
);
}
);
width = 502;
}
);
unicode = 59;
},
{
glyphname = less;
layers = (
{
layerId = "C9131A5A-EDD4-486F-A7AF-343E1560E480";
shapes = (
{
closed = 1;
nodes = (
(955.936,198.602,l),
(99.742,565.794,l),
(99.742,714.083,l),
(955.936,1075.98,l),
(955.936,917.981,l),
(276.277,639.939,l),
(955.936,358.366,l)
);
}
);
width = 1056;
}
);
unicode = 60;
},
{
glyphname = equal;
layers = (
{
layerId = "C9131A5A-EDD4-486F-A7AF-343E1560E480";
shapes = (
{
closed = 1;
nodes = (
(954.171,760.865,l),
(101.508,760.865,l),
(101.508,909.154,l),
(954.171,909.154,l)
);
},
{
closed = 1;
nodes = (
(954.171,368.958,l),
(101.508,368.958,l),
(101.508,517.247,l),
(954.171,517.247,l)
);
}
);
width = 1056;
}
);
unicode = 61;
},
{
glyphname = greater;
layers = (
{
layerId = "C9131A5A-EDD4-486F-A7AF-343E1560E480";
shapes = (
{
closed = 1;
nodes = (
(955.936,565.794,l),
(99.742,198.602,l),
(99.742,358.366,l),
(777.636,639.939,l),
(99.742,917.981,l),
(99.742,1075.98,l),
(955.936,714.083,l)
);
}
);
width = 1056;
}
);
unicode = 62;
},
{
glyphname = question;
layers = (
{
layerId = "C9131A5A-EDD4-486F-A7AF-343E1560E480";
shapes = (
{
closed = 1;
nodes = (
(914.45,864.138,o),
(855.311,777.636,qs),
(815.591,717.614,o),
(719.379,632.877,qs),
(657.592,578.151,o),
(636.408,555.202,q),
(596.688,507.538,o),
(581.682,455.46,q),
(571.09,413.974,o),
(569.325,317.763,q),
(415.74,317.763,l),
(415.74,350.422,o),
(415.74,367.192,qs),
(415.74,524.308,o),
(504.007,631.112,q),
(527.839,657.592,o),
(622.285,743.211,qs),
(701.726,813.825,o),
(752.038,902.093,o),
(752.038,952.405,qs),
(752.038,1052.15,o),
(601.984,1185.43,o),
(500.476,1185.43,qs),
(284.221,1185.43,o),
(241.853,924.16,q),
(79.441,941.813,l),
(101.508,1122.76,o),
(317.763,1316.07,o),
(498.711,1316.07,qs),
(669.067,1316.07,o),
(786.463,1226.03,qs),
(914.45,1128.06,o),
(914.45,963.88,q)
);
},
{
closed = 1;
nodes = (
(587.861,0,l),
(406.913,0,l),
(406.913,180.948,l),
(587.861,180.948,l)
);
}
);
width = 1005;
}
);
unicode = 63;
},
{
glyphname = at;
layers = (
{
layerId = "C9131A5A-EDD4-486F-A7AF-343E1560E480";
shapes = (
{
closed = 1;
nodes = (
(1769.76,15.888,l),
(1715.92,-93.563,o),
(1592.34,-189.775,qs),
(1483.77,-276.277,o),
(1355.79,-323.941,qs),
(1203.97,-379.55,o),
(990.36,-379.55,qs),
(579.917,-379.55,o),
(346.891,-179.183,qs),
(97.977,37.955,o),
(97.977,413.974,qs),
(97.977,629.347,o),
(186.244,824.418,qs),
(408.678,1317.83,o),
(972.707,1317.83,qs),
(1189.84,1317.83,o),
(1357.55,1233.1,qs),
(1540.27,1140.41,o),
(1641.77,962.115,qs),
(1726.51,810.295,o),
(1726.51,629.347,qs),
(1726.51,374.254,o),
(1545.56,175.652,qs),
(1384.92,-3.531,o),
(1195.14,-3.531,qs),
(1079.51,-3.531,o),
(1041.56,68.849,qs),
(1030.08,90.033,o),
(1024.78,144.759,q),
(898.562,-1.765,o),
(753.804,-1.765,qs),
(571.09,-1.765,o),
(481.057,184.479,qs),
(434.276,279.808,o),
(434.276,393.673,qs),
(434.276,531.37,o),
(502.241,669.067,qs),
(574.621,813.825,o),
(791.759,955.936,o),
(893.266,955.936,qs),
(1059.21,955.936,o),
(1158.95,793.524,q),
(1189.84,931.221,l),
(1346.96,931.221,l),
(1219.86,339.829,ls),
(1193.38,215.372,o),
(1193.38,202.132,qs),
(1193.38,177.417,o),
(1231.33,144.759,o),
(1254.28,144.759,qs),
(1301.94,144.759,o),
(1377.85,196.836,qs),
(1478.48,269.216,o),
(1595.87,505.772,o),
(1595.87,632.877,qs),
(1595.87,788.228,o),
(1436.99,1039.79,o),
(1295.77,1112.17,qs),
(1145.71,1189.84,o),
(965.645,1189.84,qs),
(757.334,1189.84,o),
(589.626,1093.63,qs),
(415.739,995.656,o),
(227.73,634.643,o),
(227.73,428.097,qs),
(227.73,218.903,o),
(315.997,67.083,qs),
(410.443,-97.977,o),
(594.922,-175.652,qs),
(771.457,-249.797,o),
(988.595,-249.797,qs),
(1178.37,-249.797,o),
(1333.72,-189.775,qs),
(1512.9,-120.926,o),
(1610.88,15.888,q)
);
},
{
closed = 1;
nodes = (
(1107.76,676.128,o),
(1059.21,746.742,qs),
(1003.6,826.183,o),
(903.858,826.183,qs),
(789.993,826.183,o),
(701.726,705.257,qs),
(598.453,564.029,o),
(598.453,383.08,qs),
(598.453,285.986,o),
(641.704,213.607,qs),
(693.782,127.988,o),
(786.463,127.988,qs),
(895.031,127.988,o),
(995.656,246.266,qs),
(1107.76,377.784,o),
(1107.76,572.855,q)
);
}
);
width = 1835;
}
);
unicode = 64;
},
{
glyphname = A;
layers = (
{
layerId = "C9131A5A-EDD4-486F-A7AF-343E1560E480";
shapes = (
{
closed = 1;
nodes = (
(1208,0,l),
(1014,0,l),
(862,392,l),
(322,392,l),
(179,0,l),
(-2,0,l),
(493,1294,l),
(678,1294,l)
);
},
{
closed = 1;
nodes = (
(810,531,l),
(674,890,ls),
(611,1056,o),
(582,1159,q),
(557,1028,o),
(514,911,qs),
(371,531,l)
);
}
);
width = 1206;
}
);
unicode = 65;
},
{
glyphname = B;
layers = (
{
layerId = "C9131A5A-EDD4-486F-A7AF-343E1560E480";
shapes = (
{
closed = 1;
nodes = (
(1110,186,o),
(976,85,qs),
(862,0,o),
(626,0,qs),
(132,0,l),
(132,1294,l),
(618,1294,ls),
(897,1294,o),
(996,1133,qs),
(1047,1052,o),
(1047,964,qs),
(1047,778,o),
(866,688,q),
(980,654,o),
(1110,492,o),
(1110,376,q)
);
},
{
closed = 1;
nodes = (
(878,1087,o),
(759,1123,qs),
(702,1140,o),
(562,1140,qs),
(304,1140,l),
(304,750,l),
(584,750,ls),
(696,750,o),
(747,764,q),
(878,804,o),
(878,942,q)
);
},
{
closed = 1;
nodes = (
(933,530,o),
(792,576,qs),
(726,598,o),
(602,598,qs),
(304,598,l),
(304,152,l),
(626,152,ls),
(709,152,o),
(743,159,qs),
(861,181,o),
(906,266,q),
(933,312,o),
(933,376,q)
);
}
);
width = 1206;
}
);
unicode = 66;
},
{
glyphname = C;
layers = (
{
layerId = "C9131A5A-EDD4-486F-A7AF-343E1560E480";
shapes = (
{
closed = 1;
nodes = (
(1235,410,l),
(1182,206,o),
(907,-22,o),
(698,-22,qs),
(298,-22,o),
(159,309,qs),
(90,472,o),
(90,656,qs),
(90,1076,o),
(387,1238,qs),
(530,1316,o),
(702,1316,qs),
(893,1316,o),
(1159,1121,o),
(1211,940,q),
(1043,900,l),
(958,1170,o),
(698,1170,qs),
(557,1170,o),
(457,1104,qs),
(350,1036,o),
(307,906,qs),
(266,786,o),
(266,658,qs),
(266,304,o),
(464,186,qs),
(566,124,o),
(683,124,qs),
(992,124,o),
(1063,454,q)
);
}
);
width = 1305;
}
);
unicode = 67;
},
{
glyphname = D;
layers = (
{
layerId = "C9131A5A-EDD4-486F-A7AF-343E1560E480";
shapes = (
{
closed = 1;
nodes = (
(1209,374,o),
(1087,204,qs),
(985,64,o),
(814,22,qs),
(723,0,o),
(606,0,qs),
(139,0,l),
(139,1294,l),
(586,1294,ls),
(736,1294,o),
(816,1276,qs),
(1061,1218,o),
(1159,962,qs),
(1209,828,o),
(1209,654,q)
);
},
{
closed = 1;
nodes = (
(1032,1027,o),
(804,1116,q),
(736,1140,o),
(582,1140,qs),
(311,1140,l),
(311,152,l),
(588,152,ls),
(814,152,o),
(904,244,qs),
(1032,372,o),
(1032,656,q)
);
}
);
width = 1305;
}
);
unicode = 68;
},
{
glyphname = E;
layers = (
{
layerId = "C9131A5A-EDD4-486F-A7AF-343E1560E480";
shapes = (
{
closed = 1;
nodes = (
(1107.76,0,l),
(142.993,0,l),
(142.993,1294,l),
(1079.51,1294,l),
(1079.51,1140.41,l),
(314.232,1140.41,l),
(314.232,744.977,l),
(1030.08,744.977,l),
(1030.08,593.157,l),
(314.232,593.157,l),
(314.232,151.82,l),
(1107.76,151.82,l)
);
}
);
width = 1206;
}
);
unicode = 69;
},
{
glyphname = F;
layers = (
{
layerId = "C9131A5A-EDD4-486F-A7AF-343E1560E480";
shapes = (
{
closed = 1;
nodes = (
(1021.25,1140.41,l),
(319.528,1140.41,l),
(319.528,741.446,l),
(927.69,741.446,l),
(927.69,587.861,l),
(319.528,587.861,l),
(319.528,0,l),
(148.289,0,l),
(148.289,1294,l),
(1021.25,1294,l)
);
}
);
width = 1104;
}
);
unicode = 70;
},
{
glyphname = G;
layers = (
{
layerId = "C9131A5A-EDD4-486F-A7AF-343E1560E480";
shapes = (
{
closed = 1;
nodes = (
(1292.23,180.948,l),
(1039.79,-22.067,o),
(757.334,-22.067,qs),
(569.325,-22.067,o),
(419.27,53.843,qs),
(256.858,137.697,o),
(175.652,296.578,qs),
(96.211,450.164,o),
(96.211,639.939,qs),
(96.211,827.948,o),
(170.356,981.534,qs),
(251.562,1155.42,o),
(551.671,1316.07,o),
(744.977,1316.07,qs),
(1039.79,1316.07,o),
(1174.84,1143.95,qs),
(1240.16,1062.74,o),
(1274.58,932.986,q),
(1119.23,889.735,l),
(1064.5,1075.98,o),
(924.16,1135.12,qs),
(842.071,1169.54,o),
(744.977,1169.54,qs),
(520.778,1169.54,o),
(403.382,1039.79,qs),
(272.746,895.031,o),
(272.746,650.531,qs),
(272.746,303.64,o),
(505.772,188.01,qs),
(619.637,132.401,o),
(748.508,132.401,qs),
(842.071,132.401,o),
(1057.44,205.663,o),
(1126.29,265.685,q),
(1126.29,507.538,l),
(744.977,507.538,l),
(744.977,660.24,l),
(1292.23,660.24,l)
);
}
);
width = 1406;
}
);
unicode = 71;
},
{
glyphname = H;
layers = (
{
layerId = "C9131A5A-EDD4-486F-A7AF-343E1560E480";
shapes = (
{
closed = 1;
nodes = (
(1161,0,l),
(989,0,l),
(989,609,l),
(316,609,l),
(316,0,l),
(145,0,l),
(145,1294,l),
(316,1294,l),
(316,763,l),
(989,763,l),
(989,1294,l),
(1161,1294,l)
);
}
);
width = 1305;
}
);
unicode = 72;
},
{
glyphname = I;
layers = (
{
layerId = "C9131A5A-EDD4-486F-A7AF-343E1560E480";
shapes = (
{
closed = 1;
nodes = (
(340,0,l),
(168,0,l),
(168,1294,l),
(340,1294,l)
);
}
);
width = 502;
}
);
unicode = 73;
},
{
glyphname = J;
layers = (
{
layerId = "C9131A5A-EDD4-486F-A7AF-343E1560E480";
shapes = (
{
closed = 1;
nodes = (
(762.63,412.209,ls),
(762.63,113.865,o),
(600.218,25.598,qs),
(515.482,-22.067,o),
(399.851,-22.067,qs),
(45.016,-22.067,o),
(52.078,367.192,q),
(205.663,388.377,l),
(211.842,267.45,o),
(246.266,210.076,q),
(291.282,129.753,o),
(399.851,129.753,qs),
(536.666,129.753,o),
(574.621,240.087,qs),
(593.157,291.282,o),
(593.157,403.382,qs),
(593.157,1294,l),
(762.63,1294,l)
);
}
);
width = 904;
}
);
unicode = 74;
},
{
glyphname = K;
layers = (
{
layerId = "C9131A5A-EDD4-486F-A7AF-343E1560E480";
shapes = (
{
closed = 1;
nodes = (
(1202.2,0,l),
(976.237,0,l),
(515.482,654.061,l),
(303.64,448.398,l),
(303.64,0,l),
(132.401,0,l),
(132.401,1294,l),
(303.64,1294,l),
(303.64,652.296,l),
(945.344,1294,l),
(1178.37,1294,l),
(636.408,769.692,l)
);
}
);
width = 1206;
}
);
unicode = 75;
},
{
glyphname = L;
layers = (
{
layerId = "C9131A5A-EDD4-486F-A7AF-343E1560E480";
shapes = (
{
closed = 1;
nodes = (
(942,0,l),
(132,0,l),
(132,1294,l),
(304,1294,l),
(304,152,l),
(942,152,l)
);
}
);
width = 1005;
}
);
unicode = 76;
},
{
glyphname = M;
layers = (
{
layerId = "C9131A5A-EDD4-486F-A7AF-343E1560E480";
shapes = (
{
closed = 1;
nodes = (
(1368.14,0,l),
(1203.97,0,l),
(1203.97,1083.04,l),
(827.948,0,l),
(674.363,0,l),
(300.109,1100.69,l),
(300.109,0,l),
(134.166,0,l),
(134.166,1294,l),
(391.907,1294,l),
(698.195,377.784,ls),
(736.15,263.919,o),
(759.1,186.244,q),
(784.697,265.685,o),
(827.948,393.673,qs),
(1138.65,1294,l),
(1368.14,1294,l)
);
}
);
width = 1506;
}
);
unicode = 77;
},
{
glyphname = N;
layers = (
{
layerId = "C9131A5A-EDD4-486F-A7AF-343E1560E480";
shapes = (
{
closed = 1;
nodes = (
(1157.19,0,l),
(981.534,0,l),
(301.875,1017.72,l),
(301.875,0,l),
(137.697,0,l),
(137.697,1294,l),
(312.467,1294,l),
(992.126,278.042,l),
(992.126,1294,l),
(1157.19,1294,l)
);
}
);
width = 1305;
}
);
unicode = 78;
},
{
glyphname = O;
layers = (
{
layerId = "C9131A5A-EDD4-486F-A7AF-343E1560E480";
shapes = (
{
closed = 1;
nodes = (
(1325,457,o),
(1253,307,qs),
(1173,141,o),
(1019,58,qs),
(875,-22,o),
(707,-22,qs),
(528,-22,o),
(238,150,o),
(161,307,qs),
(87,459,o),
(87,631,qs),
(87,931,o),
(244,1117,qs),
(412,1318,o),
(707,1318,qs),
(884,1318,o),
(1173,1147,o),
(1325,839,o),
(1325,645,q)
);
},
{
closed = 1;
nodes = (
(1147,973,o),
(938,1104,qs),
(835,1170,o),
(709,1170,qs),
(479,1170,o),
(365,1007,qs),
(264,866,o),
(264,628,qs),
(264,414,o),
(376,275,qs),
(497,124,o),
(705,124,qs),
(922,124,o),
(1042,280,qs),
(1147,423,o),
(1147,645,q)
);
}
);
width = 1406;
}
);
unicode = 79;
},
{
glyphname = P;
layers = (
{
layerId = "C9131A5A-EDD4-486F-A7AF-343E1560E480";
shapes = (
{
closed = 1;
nodes = (
(1128.06,526.074,o),
(641.704,526.074,qs),
(310.701,526.074,l),
(310.701,0,l),
(139.463,0,l),
(139.463,1294,l),
(627.581,1294,ls),
(753.804,1294,o),
(824.418,1281.64,qs),
(1012.43,1248.98,o),
(1088.34,1095.4,qs),
(1128.06,1015.96,o),
(1128.06,919.746,q)
);
},
{
closed = 1;
nodes = (
(950.64,990.36,o),
(872.965,1109.52,o),
(800.585,1129.82,qs),
(759.1,1140.41,o),
(641.704,1140.41,qs),
(310.701,1140.41,l),
(310.701,677.894,l),
(645.235,677.894,ls),
(950.64,677.894,o),
(950.64,914.45,q)
);
}
);
width = 1206;
}
);
unicode = 80;
},
{
glyphname = Q;
layers = (
{
layerId = "C9131A5A-EDD4-486F-A7AF-343E1560E480";
shapes = (
{
closed = 1;
nodes = (
(1289,-102,l),
(1150,-50,o),
(1012,58,q),
(868,-22,o),
(694,-22,qs),
(519,-22,o),
(233,147,o),
(78,454,o),
(78,647,qs),
(78,831,o),
(148,983,qs),
(228,1150,o),
(521,1318,o),
(698,1318,qs),
(875,1318,o),
(1162,1150,o),
(1316,840,o),
(1316,647,qs),
(1316,327,o),
(1121,139,q),
(1240,56,o),
(1340,18,q)
);
},
{
closed = 1;
nodes = (
(1139,973,o),
(929,1104,qs),
(826,1170,o),
(698,1170,qs),
(478,1170,o),
(360,1014,qs),
(255,875,o),
(255,647,qs),
(255,421,o),
(362,280,qs),
(479,124,o),
(698,124,qs),
(790,124,o),
(871,159,q),
(790,212,o),
(702,233,q),
(743,358,l),
(892,316,o),
(987,233,q),
(1139,372,o),
(1139,647,q)
);
}
);
width = 1406;
}
);
unicode = 81;
},
{
glyphname = R;
layers = (
{
layerId = "C9131A5A-EDD4-486F-A7AF-343E1560E480";
shapes = (
{
closed = 1;
nodes = (
(1281.64,0,l),
(1066.27,0,l),
(896.797,269.216,ls),
(838.54,360.131,o),
(800.585,410.443,qs),
(731.737,504.007,o),
(684.955,533.135,q),
(645.235,560.498,o),
(607.28,567.559,q),
(579.917,574.621,o),
(511.951,574.621,qs),
(312.467,574.621,l),
(312.467,0,l),
(142.993,0,l),
(142.993,1294,l),
(715.849,1294,ls),
(865.903,1294,o),
(945.344,1271.05,qs),
(1060.97,1236.63,o),
(1122.76,1135.12,qs),
(1176.6,1048.62,o),
(1176.6,941.813,qs),
(1176.6,638.173,o),
(812.06,589.626,q),
(880.026,555.202,o),
(914.45,524.308,qs),
(992.126,453.694,o),
(1057.44,352.187,qs)
);
},
{
closed = 1;
nodes = (
(1000.07,1151.89,o),
(722.91,1151.89,qs),
(312.467,1151.89,l),
(312.467,722.91,l),
(681.424,722.91,ls),
(900.327,722.91,o),
(965.645,824.418,qs),
(1000.07,878.261,o),
(1000.07,941.813,q)
);
}
);
width = 1305;
}
);
unicode = 82;
},
{
glyphname = S;
layers = (
{
layerId = "C9131A5A-EDD4-486F-A7AF-343E1560E480";
shapes = (
{
closed = 1;
nodes = (
(1112.17,255.093,o),
(985.064,75.91,o),
(881.791,29.128,qs),
(771.457,-22.067,o),
(632.877,-22.067,qs),
(287.752,-22.067,o),
(151.82,182.714,qs),
(84.737,285.986,o),
(81.206,415.739,q),
(241.853,429.862,l),
(265.685,240.087,o),
(426.332,170.356,qs),
(515.482,132.401,o),
(625.816,132.401,qs),
(831.479,132.401,o),
(909.154,240.087,qs),
(945.344,291.282,o),
(945.344,350.422,qs),
(945.344,475.761,o),
(793.524,533.135,qs),
(733.502,556.967,o),
(551.671,600.218,qs),
(393.673,636.408,o),
(314.232,677.894,qs),
(129.753,775.87,o),
(129.753,959.467,qs),
(129.753,1064.5,o),
(249.797,1231.33,o),
(348.656,1272.82,qs),
(455.46,1316.07,o),
(586.095,1316.07,qs),
(889.735,1316.07,o),
(1008.9,1133.35,qs),
(1068.04,1043.32,o),
(1071.57,929.456,q),
(907.389,916.216,l),
(881.791,1166.01,o),
(593.157,1166.01,qs),
(475.761,1166.01,o),
(398.086,1126.29,q),
(296.578,1077.74,o),
(296.578,970.941,qs),
(296.578,871.199,o),
(406.913,819.121,qs),
(453.694,797.055,o),
(603.749,764.396,q),
(813.825,715.849,o),
(891.501,681.424,qs),
(1112.17,579.917,o),
(1112.17,365.427,q)
);
}
);
width = 1206;
}
);
unicode = 83;
},
{
glyphname = T;
layers = (
{
layerId = "C9131A5A-EDD4-486F-A7AF-343E1560E480";
shapes = (
{
closed = 1;
nodes = (
(1068.04,1140.41,l),
(639.939,1140.41,l),
(639.939,0,l),
(467.817,0,l),
(467.817,1140.41,l),
(41.486,1140.41,l),
(41.486,1294,l),
(1068.04,1294,l)
);
}
);
width = 1104;
}
);
unicode = 84;
},
{
glyphname = U;
layers = (
{
layerId = "C9131A5A-EDD4-486F-A7AF-343E1560E480";
shapes = (
{
closed = 1;
nodes = (
(1160.72,545.493,ls),
(1160.72,368.958,o),
(1126.29,265.685,qs),
(1081.28,126.222,o),
(955.936,50.312,qs),
(840.306,-22.067,o),
(654.061,-22.067,qs),
(293.048,-22.067,o),
(191.54,222.434,qs),
(142.993,339.83,o),
(142.993,545.493,qs),
(142.993,1294,l),
(312.467,1294,l),
(312.467,548.14,ls),
(312.467,408.678,o),
(332.768,338.064,qs),
(361.896,225.964,o),
(451.929,175.652,qs),
(527.839,132.401,o),
(639.939,132.401,qs),
(845.602,132.401,o),
(924.16,238.322,qs),
(988.595,327.472,o),
(988.595,548.14,qs),
(988.595,1294,l),
(1160.72,1294,l)
);
}
);
width = 1305;
}
);
unicode = 85;
},
{
glyphname = V;
layers = (
{
layerId = "C9131A5A-EDD4-486F-A7AF-343E1560E480";
shapes = (
{
closed = 1;
nodes = (
(1191.61,1294,l),
(684.955,0,l),
(510.186,0,l),
(7.061,1294,l),
(193.306,1294,l),
(529.604,353.952,ls),
(571.09,238.322,o),
(598.453,142.993,q),
(627.581,243.618,o),
(667.302,353.952,qs),
(1017.72,1294,l)
);
}
);
width = 1206;
}
);
unicode = 86;
},
{
glyphname = W;
layers = (
{
layerId = "C9131A5A-EDD4-486F-A7AF-343E1560E480";
shapes = (
{
closed = 1;
nodes = (
(1686.79,1294,l),
(1330.19,0,l),
(1166.01,0,l),
(893.266,985.064,ls),
(858.842,1113.93,o),
(853.546,1136.88,q),
(833.244,1052.15,o),
(815.591,985.064,qs),
(540.197,0,l),
(365.427,0,l),
(22.067,1294,l),
(196.836,1294,l),
(393.673,446.633,ls),
(428.097,298.344,o),
(450.164,180.948,q),
(507.538,419.27,l),
(753.804,1294,l),
(959.467,1294,l),
(1145.71,639.939,ls),
(1216.32,390.142,o),
(1245.45,180.948,q),
(1267.52,281.573,o),
(1310.77,462.521,qs),
(1512.9,1294,l)
);
}
);
width = 1706;
}
);
unicode = 87;
},
{
glyphname = X;
layers = (
{
layerId = "C9131A5A-EDD4-486F-A7AF-343E1560E480";
shapes = (
{
closed = 1;
nodes = (
(1195.14,0,l),
(981.534,0,l),
(655.827,460.756,l),
(634.643,493.415,o),
(600.218,548.141,q),
(553.437,472.231,o),
(538.431,451.929,qs),
(213.607,0,l),
(7.061,0,l),
(507.538,674.363,l),
(67.083,1294,l),
(270.981,1294,l),
(505.772,962.115,ls),
(579.917,857.076,o),
(609.045,802.351,q),
(648.765,867.668,o),
(712.318,950.64,qs),
(972.707,1294,l),
(1158.95,1294,l),
(705.257,683.19,l)
);
}
);
width = 1206;
}
);
unicode = 88;
},
{
glyphname = Y;
layers = (
{
layerId = "C9131A5A-EDD4-486F-A7AF-343E1560E480";
shapes = (
{
closed = 1;
nodes = (
(1191.61,1294,l),
(676.128,548.14,l),
(676.128,0,l),
(504.007,0,l),
(504.007,548.141,l),
(5.296,1294,l),
(213.607,1294,l),
(467.817,903.858,ls),
(533.135,804.116,o),
(600.218,684.955,q),
(663.771,795.289,o),
(741.446,912.685,qs),
(992.126,1294,l)
);
}
);
width = 1206;
}
);
unicode = 89;
},
{
glyphname = Z;
layers = (
{
layerId = "C9131A5A-EDD4-486F-A7AF-343E1560E480";
shapes = (
{
closed = 1;
nodes = (
(1059.21,0,l),
(36.19,0,l),
(36.19,158.881,l),
(699.96,986.83,ls),
(769.692,1075.98,o),
(833.244,1140.41,q),
(112.1,1140.41,l),
(112.1,1294,l),
(1038.02,1294,l),
(1038.02,1140.41,l),
(233.026,151.82,l),
(1059.21,151.82,l)
);
}
);
width = 1104;
}
);
unicode = 90;
},
{
glyphname = bracketleft;
layers = (
{
layerId = "C9131A5A-EDD4-486F-A7AF-343E1560E480";
shapes = (
{
closed = 1;
nodes = (
(473.996,-360.131,l),
(122.692,-360.131,l),
(122.692,1294,l),
(473.996,1294,l),
(473.996,1162.48,l),
(281.573,1162.48,l),
(281.573,-227.73,l),
(473.996,-227.73,l)
);
}
);
width = 502;
}
);
unicode = 91;
},
{
glyphname = backslash;
layers = (
{
layerId = "C9131A5A-EDD4-486F-A7AF-343E1560E480";
shapes = (
{
closed = 1;
nodes = (
(502.242,-22.067,l),
(376.019,-22.067,l),
(0,1316.07,l),
(127.988,1316.07,l)
);
}
);
width = 502;
}
);
unicode = 92;
},
{
glyphname = bracketright;
layers = (
{
layerId = "C9131A5A-EDD4-486F-A7AF-343E1560E480";
shapes = (
{
closed = 1;
nodes = (
(384.846,-360.131,l),
(34.424,-360.131,l),
(34.424,-227.73,l),
(225.965,-227.73,l),
(225.965,1162.48,l),
(34.424,1162.48,l),
(34.424,1294,l),
(384.846,1294,l)
);
}
);
width = 502;
}
);
unicode = 93;
},
{
glyphname = asciicircum;
layers = (
{
layerId = "C9131A5A-EDD4-486F-A7AF-343E1560E480";
shapes = (
{
closed = 1;
nodes = (
(800.585,609.045,l),
(639.939,609.045,l),
(422.801,1135.12,l),
(211.842,609.045,l),
(46.782,609.045,l),
(360.131,1316.07,l),
(488.119,1316.07,l)
);
}
);
width = 848;
}
);
unicode = 94;
},
{
glyphname = underscore;
layers = (
{
layerId = "C9131A5A-EDD4-486F-A7AF-343E1560E480";
shapes = (
{
closed = 1;
nodes = (
(1024.78,-360.131,l),
(-27.363,-360.131,l),
(-27.363,-243.618,l),
(1024.78,-243.618,l)
);
}
);
width = 1005;
}
);
unicode = 95;
},
{
glyphname = grave;
layers = (
{
layerId = "C9131A5A-EDD4-486F-A7AF-343E1560E480";
shapes = (
{
closed = 1;
nodes = (
(410.443,1053.91,l),
(281.573,1053.91,l),
(77.675,1301.94,l),
(291.282,1301.94,l)
);
}
);
width = 602;
}
);
unicode = 96;
},
{
glyphname = a;
layers = (
{
layerId = "C9131A5A-EDD4-486F-A7AF-343E1560E480";
shapes = (
{
closed = 1;
nodes = (
(762.63,0,l),
(737.915,48.547,o),
(729.971,115.63,q),
(569.325,-22.067,o),
(384.846,-22.067,qs),
(248.031,-22.067,o),
(162.412,43.251,q),
(65.318,113.865,o),
(65.318,248.031,qs),
(65.318,386.611,o),
(179.183,464.287,qs),
(229.495,498.711,o),
(293.048,517.247,q),
(338.064,527.839,o),
(434.276,540.196,qs),
(627.581,564.029,o),
(717.614,594.922,q),
(717.614,627.581,o),
(717.614,636.408,qs),
(717.614,827.948,o),
(491.649,827.948,qs),
(384.846,827.948,o),
(274.512,750.273,o),
(248.031,648.765,q),
(91.798,670.832,l),
(134.166,864.138,o),
(301.875,925.925,qs),
(393.673,957.701,o),
(515.482,957.701,qs),
(739.681,957.701,o),
(820.887,858.842,qs),
(857.076,815.591,o),
(869.434,752.038,q),
(878.261,712.318,o),
(878.261,603.749,qs),
(878.261,391.907,ls),
(878.261,205.663,o),
(878.261,191.54,q),
(887.97,74.145,o),
(929.456,0,q)
);
},
{
closed = 1;
nodes = (
(717.614,469.583,l),
(631.112,436.041,o),
(457.225,410.443,qs),
(379.55,399.851,o),
(346.891,388.377,q),
(284.221,368.958,o),
(256.858,327.472,qs),
(234.791,293.048,o),
(234.791,251.562,qs),
(234.791,177.417,o),
(294.813,137.697,qs),
(345.126,103.273,o),
(422.801,103.273,qs),
(619.637,103.273,o),
(692.016,253.327,qs),
(717.614,307.171,o),
(717.614,412.209,q)
);
}
);
width = 1005;
}
);
unicode = 97;
},
{
glyphname = b;
layers = (
{
layerId = "C9131A5A-EDD4-486F-A7AF-343E1560E480";
shapes = (
{
closed = 1;
nodes = (
(931.221,278.042,o),
(833.244,137.697,qs),
(722.91,-22.067,o),
(526.074,-22.067,qs),
(360.131,-22.067,o),
(265.685,117.396,q),
(265.685,0,l),
(117.396,0,l),
(117.396,1294,l),
(276.277,1294,l),
(276.277,831.479,l),
(377.784,957.701,o),
(533.135,957.701,qs),
(719.379,957.701,o),
(931.221,690.251,o),
(931.221,482.823,q)
);
},
{
closed = 1;
nodes = (
(767.926,612.576,o),
(717.614,708.787,qs),
(652.296,827.948,o),
(520.778,827.948,qs),
(390.142,827.948,o),
(322.176,710.553,qs),
(263.92,612.576,o),
(263.92,475.761,qs),
(263.92,307.171,o),
(308.936,231.261,q),
(384.846,110.334,o),
(513.716,110.334,qs),
(643.469,110.334,o),
(712.318,229.495,qs),
(767.926,329.237,o),
(767.926,469.583,q)
);
}
);
width = 1005;
}
);
unicode = 98;
},
{
glyphname = c;
layers = (
{
layerId = "C9131A5A-EDD4-486F-A7AF-343E1560E480";
shapes = (
{
closed = 1;
nodes = (
(887.97,323.941,l),
(862.372,164.177,o),
(654.061,-22.067,o),
(496.945,-22.067,qs),
(287.752,-22.067,o),
(173.887,119.161,qs),
(70.614,249.797,o),
(70.614,464.287,qs),
(70.614,788.228,o),
(274.512,902.093,qs),
(376.019,957.701,o),
(496.945,957.701,qs),
(647,957.701,o),
(843.836,807.647,o),
(871.199,662.005,q),
(717.614,638.173,l),
(672.598,827.948,o),
(504.007,827.948,qs),
(233.026,827.948,o),
(233.026,469.583,qs),
(233.026,110.334,o),
(495.18,110.334,qs),
(698.195,110.334,o),
(729.971,343.36,q)
);
}
);
width = 904;
}
);
unicode = 99;
},
{
glyphname = d;
layers = (
{
layerId = "C9131A5A-EDD4-486F-A7AF-343E1560E480";
shapes = (
{
closed = 1;
nodes = (
(875,0,l),
(726,0,l),
(726,117,l),
(638,-22,o),
(464,-22,qs),
(349,-22,o),
(162,105,o),
(62,324,o),
(62,468,qs),
(62,776,o),
(250,899,qs),
(342,958,o),
(457,958,qs),
(624,958,o),
(716,830,q),
(716,1294,l),
(875,1294,l)
);
},
{
closed = 1;
nodes = (
(730,606,o),
(678,703,qs),
(611,828,o),
(474,828,qs),
(340,828,o),
(275,707,qs),
(226,614,o),
(226,468,qs),
(226,326,o),
(280,229,qs),
(349,110,o),
(481,110,qs),
(611,110,o),
(676,222,qs),
(730,314,o),
(730,454,q)
);
}
);
width = 1005;
}
);
unicode = 100;
},
{
glyphname = e;
layers = (
{
layerId = "C9131A5A-EDD4-486F-A7AF-343E1560E480";
shapes = (
{
closed = 1;
nodes = (
(931.221,455.46,o),
(929.456,428.097,q),
(229.495,428.097,l),
(238.322,291.282,o),
(305.405,205.663,qs),
(381.315,110.334,o),
(513.716,110.334,qs),
(692.016,110.334,o),
(760.865,301.875,q),
(925.925,281.573,l),
(843.836,-22.067,o),
(513.716,-22.067,qs),
(296.578,-22.067,o),
(179.183,113.865,qs),
(67.083,241.853,o),
(67.083,460.756,qs),
(67.083,677.894,o),
(175.652,813.825,qs),
(293.048,957.701,o),
(504.007,957.701,qs),
(710.553,957.701,o),
(824.418,815.591,qs),
(931.221,683.19,o),
(931.221,469.583,q)
);
},
{
closed = 1;
nodes = (
(762.63,558.733,l),
(752.038,676.128,o),
(703.491,736.15,qs),
(627.581,827.948,o),
(505.772,827.948,qs),
(390.142,827.948,o),
(248.031,676.128,o),
(238.322,558.733,q)
);
}
);
width = 1005;
}
);
unicode = 101;
},
{
glyphname = f;
layers = (
{
layerId = "C9131A5A-EDD4-486F-A7AF-343E1560E480";
shapes = (
{
closed = 1;
nodes = (
(540.196,1162.48,l),
(491.649,1169.54,o),
(448.398,1169.54,qs),
(370.723,1169.54,o),
(314.232,1102.46,o),
(314.232,1023.02,qs),
(314.232,938.282,l),
(496.945,938.282,l),
(496.945,813.825,l),
(314.232,813.825,l),
(314.232,0,l),
(157.116,0,l),
(157.116,813.825,l),
(15.888,813.825,l),
(15.888,938.282,l),
(157.116,938.282,l),
(157.116,1038.02,ls),
(157.116,1126.29,o),
(172.121,1171.31,qs),
(193.306,1236.63,o),
(312.467,1316.07,o),
(415.739,1316.07,qs),
(484.588,1316.07,o),
(565.794,1300.18,q)
);
}
);
width = 502;
}
);
unicode = 102;
},
{
glyphname = g;
layers = (
{
layerId = "C9131A5A-EDD4-486F-A7AF-343E1560E480";
shapes = (
{
closed = 1;
nodes = (
(884,126,ls),
(884,-49,o),
(859,-132,qs),
(819,-262,o),
(698,-327,qs),
(602,-380,o),
(461,-380,qs),
(297,-380,o),
(200,-312,qs),
(87,-233,o),
(90,-78,q),
(244,-102,l),
(264,-250,o),
(459,-250,qs),
(667,-250,o),
(712,-81,q),
(723,-34,o),
(723,123,q),
(618,0,o),
(463,0,qs),
(271,0,o),
(159,145,qs),
(58,275,o),
(58,474,qs),
(58,770,o),
(248,897,qs),
(340,958,o),
(464,958,qs),
(631,958,o),
(738,824,q),
(738,938,l),
(884,938,l)
);
},
{
closed = 1;
nodes = (
(736,620,o),
(678,714,qs),
(607,828,o),
(476,828,qs),
(345,828,o),
(278,716,qs),
(222,624,o),
(222,486,qs),
(222,338,o),
(275,246,qs),
(342,132,o),
(479,132,qs),
(614,132,o),
(681,244,qs),
(736,335,o),
(736,481,q)
);
}
);
width = 1005;
}
);
unicode = 103;
},
{
glyphname = h;
layers = (
{
layerId = "C9131A5A-EDD4-486F-A7AF-343E1560E480";
shapes = (
{
closed = 1;
nodes = (
(881.791,0,l),
(722.91,0,l),
(722.91,594.922,ls),
(722.91,822.652,o),
(526.074,822.652,qs),
(455.46,822.652,o),
(331.003,748.508,o),
(278.042,624.051,o),
(278.042,513.716,qs),
(278.042,0,l),
(119.161,0,l),
(119.161,1294,l),
(278.042,1294,l),
(278.042,829.713,l),
(388.377,957.701,o),
(558.733,957.701,qs),
(779.401,957.701,o),
(850.015,804.116,qs),
(881.791,731.737,o),
(881.791,594.922,qs)
);
}
);
width = 1005;
}
);
unicode = 104;
},
{
glyphname = i;
layers = (
{
layerId = "C9131A5A-EDD4-486F-A7AF-343E1560E480";
shapes = (
{
closed = 1;
nodes = (
(278,1112,l),
(119,1112,l),
(119,1294,l),
(278,1294,l)
);
},
{
closed = 1;
nodes = (
(278,0,l),
(119,0,l),
(119,938,l),
(278,938,l)
);
}
);
width = 402;
}
);
unicode = 105;
},
{
glyphname = j;
layers = (
{
layerId = "C9131A5A-EDD4-486F-A7AF-343E1560E480";
shapes = (
{
closed = 1;
nodes = (
(276.277,1109.52,l),
(117.396,1109.52,l),
(117.396,1294,l),
(276.277,1294,l)
);
},
{
closed = 1;
nodes = (
(276.277,-50.312,ls),
(276.277,-224.199,o),
(231.261,-293.048,qs),
(173.887,-379.55,o),
(41.486,-379.55,qs),
(-23.832,-379.55,o),
(-82.971,-363.662,q),
(-52.078,-227.73,l),
(-5.296,-240.087,o),
(22.067,-240.087,qs),
(90.033,-240.087,o),
(110.334,-173.887,q),
(117.396,-141.228,o),
(117.396,-46.782,qs),
(117.396,938.282,l),
(276.277,938.282,l)
);
}
);
width = 402;
}
);
unicode = 106;
},
{
glyphname = k;
layers = (
{
layerId = "C9131A5A-EDD4-486F-A7AF-343E1560E480";
shapes = (
{
closed = 1;
nodes = (
(896.797,0,l),
(701.726,0,l),
(390.142,479.292,l),
(278.042,372.488,l),
(278.042,0,l),
(119.161,0,l),
(119.161,1294,l),
(278.042,1294,l),
(278.042,556.967,l),
(654.061,938.282,l),
(860.607,938.282,l),
(502.242,589.626,l)
);
}
);
width = 904;
}
);
unicode = 107;
},
{
glyphname = l;
layers = (
{
layerId = "C9131A5A-EDD4-486F-A7AF-343E1560E480";
shapes = (
{
closed = 1;
nodes = (
(274.512,0,l),
(115.63,0,l),
(115.63,1294,l),
(274.512,1294,l)
);
}
);
width = 402;
}
);
unicode = 108;
},
{
glyphname = m;
layers = (
{
layerId = "C9131A5A-EDD4-486F-A7AF-343E1560E480";
shapes = (
{
closed = 1;
nodes = (
(1390.21,0,l),
(1231.33,0,l),
(1231.33,591.392,ls),
(1231.33,669.067,o),
(1221.62,705.257,q),
(1207.5,764.396,o),
(1160.72,795.289,q),
(1119.23,820.887,o),
(1064.5,820.887,qs),
(947.109,820.887,o),
(887.97,739.681,qs),
(835.01,667.302,o),
(835.01,543.727,qs),
(835.01,0,l),
(676.128,0,l),
(676.128,609.045,ls),
(676.128,820.887,o),
(510.186,820.887,qs),
(355.718,820.887,o),
(303.64,681.424,qs),
(278.042,614.341,o),
(278.042,486.353,qs),
(278.042,0,l),
(119.161,0,l),
(119.161,938.282,l),
(262.154,938.282,l),
(262.154,805.881,l),
(360.131,957.701,o),
(545.493,957.701,qs),
(752.038,957.701,o),
(810.295,793.524,q),
(921.512,957.701,o),
(1098.93,957.701,qs),
(1390.21,957.701,o),
(1390.21,643.469,qs)
);
}
);
width = 1506;
}
);
unicode = 109;
},
{
glyphname = n;
layers = (
{
layerId = "C9131A5A-EDD4-486F-A7AF-343E1560E480";
shapes = (
{
closed = 1;
nodes = (
(880,0,l),
(721,0,l),
(721,569,ls),
(721,741,o),
(638,792,qs),
(591,821,o),
(528,821,qs),
(278,821,o),
(278,512,qs),
(278,0,l),
(119,0,l),
(119,938,l),
(262,938,l),
(262,804,l),
(365,958,o),
(560,958,qs),
(743,958,o),
(823,848,qs),
(859,799,o),
(871,730,q),
(880,687,o),
(880,576,qs)
);
}
);
width = 1005;
}
);
unicode = 110;
},
{
glyphname = o;
layers = (
{
layerId = "C9131A5A-EDD4-486F-A7AF-343E1560E480";
shapes = (
{
closed = 1;
nodes = (
(938,154,o),
(726,36,qs),
(622,-22,o),
(499,-22,qs),
(286,-22,o),
(168,119,qs),
(60,250,o),
(60,468,qs),
(60,687,o),
(170,819,qs),
(286,958,o),
(499,958,qs),
(707,958,o),
(826,823,qs),
(938,692,o),
(938,483,q)
);
},
{
closed = 1;
nodes = (
(776,620,o),
(712,716,qs),
(638,828,o),
(499,828,qs),
(358,828,o),
(284,714,qs),
(224,620,o),
(224,468,qs),
(224,318,o),
(284,222,q),
(358,110,o),
(499,110,qs),
(643,110,o),
(716,226,qs),
(776,322,o),
(776,474,q)
);
}
);
width = 1005;
}
);
unicode = 111;
},
{
glyphname = p;
layers = (
{
layerId = "C9131A5A-EDD4-486F-A7AF-343E1560E480";
shapes = (
{
closed = 1;
nodes = (
(932.986,165.943,o),
(731.737,39.72,qs),
(632.877,-22.067,o),
(524.308,-22.067,qs),
(372.488,-22.067,o),
(278.042,97.977,q),
(278.042,-360.131,l),
(119.161,-360.131,l),
(119.161,938.282,l),
(263.919,938.282,l),
(263.919,815.591,l),
(367.192,957.701,o),
(534.9,957.701,qs),
(788.228,957.701,o),
(886.205,722.91,qs),
(932.986,609.045,o),
(932.986,475.761,q)
);
},
{
closed = 1;
nodes = (
(769.692,616.106,o),
(717.614,714.083,qs),
(650.531,833.244,o),
(520.778,833.244,qs),
(390.142,833.244,o),
(319.528,707.022,qs),
(263.919,603.749,o),
(263.919,462.521,qs),
(263.919,319.528,o),
(315.997,225.965,qs),
(381.315,110.334,o),
(513.716,110.334,qs),
(648.765,110.334,o),
(715.849,231.261,qs),
(769.692,329.237,o),
(769.692,477.527,q)
);
}
);
width = 1005;
}
);
unicode = 112;
},
{
glyphname = q;
layers = (
{
layerId = "C9131A5A-EDD4-486F-A7AF-343E1560E480";
shapes = (
{
closed = 1;
nodes = (
(874.73,-360.131,l),
(715.849,-360.131,l),
(715.849,99.742,l),
(631.112,-22.067,o),
(472.231,-22.067,qs),
(278.042,-22.067,o),
(164.177,135.932,qs),
(63.552,276.277,o),
(63.552,477.527,qs),
(63.552,782.932,o),
(255.093,900.328,qs),
(346.891,957.701,o),
(458.99,957.701,qs),
(632.877,957.701,o),
(731.737,812.06,q),
(731.737,938.283,l),
(874.73,938.283,l)
);
},
{
closed = 1;
nodes = (
(731.737,601.984,o),
(677.894,705.257,qs),
(607.28,833.244,o),
(473.996,833.244,qs),
(341.595,833.244,o),
(276.277,712.318,qs),
(225.965,616.106,o),
(225.965,472.231,qs),
(225.965,327.472,o),
(281.573,229.495,qs),
(350.422,110.334,o),
(484.588,110.334,qs),
(612.576,110.334,o),
(679.659,224.199,q),
(731.737,317.763,o),
(731.737,457.225,q)
);
}
);
width = 1005;
}
);
unicode = 113;
},
{
glyphname = r;
layers = (
{
layerId = "C9131A5A-EDD4-486F-A7AF-343E1560E480";
shapes = (
{
closed = 1;
nodes = (
(571.09,759.1,l),
(513.716,793.524,o),
(455.46,793.524,qs),
(339.83,793.524,o),
(301.875,676.128,q),
(276.277,591.392,o),
(276.277,489.884,qs),
(276.277,0,l),
(117.396,0,l),
(117.396,938.282,l),
(260.389,938.282,l),
(260.389,795.289,l),
(350.422,957.701,o),
(462.521,957.701,qs),
(543.727,957.701,o),
(627.581,907.389,q)
);
}
);
width = 602;
}
);
unicode = 114;
},
{
glyphname = s;
layers = (
{
layerId = "C9131A5A-EDD4-486F-A7AF-343E1560E480";
shapes = (
{
closed = 1;
nodes = (
(833.244,96.211,o),
(654.061,17.653,qs),
(565.794,-22.067,o),
(455.46,-22.067,qs),
(108.569,-22.067,o),
(55.609,279.808,q),
(213.607,303.64,l),
(240.087,110.334,o),
(455.46,110.334,qs),
(540.196,110.334,o),
(598.453,141.228,qs),
(670.832,180.948,o),
(670.832,258.624,qs),
(670.832,312.467,o),
(624.051,343.36,q),
(593.157,365.427,o),
(460.756,398.086,qs),
(314.232,434.276,o),
(272.746,450.164,qs),
(158.881,493.415,o),
(117.396,562.263,qs),
(81.206,619.637,o),
(81.206,688.486,qs),
(81.206,815.591,o),
(188.01,893.266,qs),
(278.042,957.701,o),
(426.332,957.701,qs),
(657.592,957.701,o),
(744.977,840.306,qs),
(784.697,786.463,o),
(798.82,695.547,q),
(643.469,674.363,l),
(622.285,827.948,o),
(439.572,827.948,qs),
(234.791,827.948,o),
(234.791,707.022,qs),
(234.791,639.939,o),
(315.997,609.045,q),
(338.064,600.218,o),
(455.46,567.559,qs),
(612.576,526.074,o),
(641.704,515.482,qs),
(752.038,473.996,o),
(795.289,412.209,qs),
(833.244,355.718,o),
(833.244,274.512,q)
);
}
);
width = 904;
}
);
unicode = 115;
},
{
glyphname = t;
layers = (
{
layerId = "C9131A5A-EDD4-486F-A7AF-343E1560E480";
shapes = (
{
closed = 1;
nodes = (
(490,2,l),
(421,-12,o),
(369,-12,qs),
(212,-12,o),
(168,87,qs),
(148,132,o),
(148,275,qs),
(148,814,l),
(33,814,l),
(33,938,l),
(148,938,l),
(148,1170,l),
(305,1266,l),
(305,938,l),
(466,938,l),
(466,814,l),
(305,814,l),
(305,266,ls),
(305,197,o),
(318,172,qs),
(336,136,o),
(396,136,qs),
(423,136,o),
(466,143,q)
);
}
);
width = 502;
}
);
unicode = 116;
},
{
glyphname = u;
layers = (
{
layerId = "C9131A5A-EDD4-486F-A7AF-343E1560E480";
shapes = (
{
closed = 1;
nodes = (
(874.73,0,l),
(733.502,0,l),
(733.502,137.697,l),
(624.05,-22.067,o),
(436.041,-22.067,qs),
(361.896,-22.067,o),
(293.048,5.296,qs),
(213.607,36.19,o),
(173.887,90.033,q),
(139.462,139.462,o),
(124.457,208.311,q),
(115.63,255.093,o),
(115.63,355.718,qs),
(115.63,938.282,l),
(274.512,938.282,l),
(274.512,417.505,ls),
(274.512,291.282,o),
(284.221,249.797,qs),
(315.997,115.63,o),
(467.817,115.63,qs),
(538.431,115.63,o),
(665.536,188.01,o),
(715.849,314.232,o),
(715.849,436.041,qs),
(715.849,938.282,l),
(874.73,938.282,l)
);
}
);
width = 1005;
}
);
unicode = 117;
},
{
glyphname = v;
layers = (
{
layerId = "C9131A5A-EDD4-486F-A7AF-343E1560E480";
shapes = (
{
closed = 1;
nodes = (
(881.791,938.282,l),
(527.839,0,l),
(379.55,0,l),
(23.832,938.282,l),
(189.775,938.282,l),
(391.907,376.019,ls),
(424.566,284.221,o),
(451.929,188.01,q),
(473.996,260.389,o),
(511.951,365.427,qs),
(719.379,938.282,l)
);
}
);
width = 904;
}
);
unicode = 118;
},
{
glyphname = w;
layers = (
{
layerId = "C9131A5A-EDD4-486F-A7AF-343E1560E480";
shapes = (
{
closed = 1;
nodes = (
(1290.47,938.282,l),
(998.304,0,l),
(833.244,0,l),
(683.19,562.263,l),
(647,721.145,l),
(457.225,0,l),
(293.048,0,l),
(5.296,938.282,l),
(170.356,938.282,l),
(374.254,195.071,l),
(383.08,233.026,o),
(422.801,388.377,q),
(571.09,938.282,l),
(736.15,938.282,l),
(921.512,215.372,l),
(1136.88,938.282,l)
);
}
);
width = 1305;
}
);
unicode = 119;
},
{
glyphname = x;
layers = (
{
layerId = "C9131A5A-EDD4-486F-A7AF-343E1560E480";
shapes = (
{
closed = 1;
nodes = (
(892,0,l),
(696,0,l),
(452,371,l),
(206,0,l),
(12,0,l),
(356,488,l),
(38,938,l),
(237,938,l),
(381,718,ls),
(418,662,o),
(447,613,q),
(478,658,o),
(519,716,qs),
(676,938,l),
(866,938,l),
(542,495,l)
);
}
);
width = 904;
}
);
unicode = 120;
},
{
glyphname = y;
layers = (
{
layerId = "C9131A5A-EDD4-486F-A7AF-343E1560E480";
shapes = (
{
closed = 1;
nodes = (
(887.97,938.282,l),
(531.37,-15.888,ls),
(473.996,-172.121,o),
(443.102,-227.73,qs),
(360.131,-379.55,o),
(215.372,-379.55,qs),
(167.708,-379.55,o),
(112.1,-361.896,q),
(93.563,-211.842,l),
(146.524,-225.965,o),
(186.244,-225.965,qs),
(279.808,-225.965,o),
(322.176,-158.881,qs),
(338.064,-134.166,o),
(370.723,-39.72,qs),
(377.784,-20.302,o),
(384.846,-1.765,q),
(29.128,938.282,l),
(200.367,938.282,l),
(396.321,393.673,ls),
(436.041,281.573,o),
(462.521,177.417,q),
(491.649,289.517,o),
(527.839,390.142,qs),
(728.206,938.282,l)
);
}
);
width = 904;
}
);
unicode = 121;
},
{
glyphname = z;
layers = (
{
layerId = "C9131A5A-EDD4-486F-A7AF-343E1560E480";
shapes = (
{
closed = 1;
nodes = (
(866,0,l),
(36,0,l),
(36,128,l),
(633,814,l),
(530,808,o),
(452,808,qs),
(71,808,l),
(71,938,l),
(837,938,l),
(837,831,l),
(231,128,l),
(338,138,o),
(432,138,qs),
(866,138,l)
);
}
);
width = 904;
}
);
unicode = 122;
},
{
glyphname = braceleft;
layers = (
{
layerId = "C9131A5A-EDD4-486F-A7AF-343E1560E480";
shapes = (
{
closed = 1;
nodes = (
(562.263,-379.55,l),
(511.951,-379.55,ls),
(426.332,-379.55,o),
(386.611,-367.192,q),
(267.45,-323.941,o),
(243.618,-186.244,q),
(238.322,-142.993,o),
(238.322,139.462,o),
(227.73,208.311,qs),
(211.842,317.763,o),
(160.647,360.131,q),
(117.396,393.673,o),
(50.312,396.321,q),
(50.312,540.196,l),
(188.01,543.727,o),
(218.903,672.598,q),
(231.261,733.502,o),
(233.026,880.026,q),
(233.026,947.109,o),
(238.322,1075.98,q),
(258.623,1267.52,o),
(403.382,1307.24,qs),
(434.276,1316.07,o),
(511.951,1316.07,qs),
(562.263,1316.07,l),
(562.263,1176.6,l),
(533.135,1176.6,ls),
(436.041,1176.6,o),
(406.913,1135.12,q),
(381.315,1100.69,o),
(381.315,995.656,qs),
(381.315,762.63,o),
(372.488,705.256,qs),
(358.366,612.576,o),
(279.808,507.537,o),
(196.836,467.817,q),
(314.232,419.27,o),
(353.952,305.405,qs),
(381.315,225.964,o),
(381.315,70.614,qs),
(381.315,-103.273,o),
(384.846,-134.166,qs),
(393.673,-200.367,o),
(429.862,-224.199,q),
(460.756,-241.853,o),
(533.135,-241.853,qs),
(562.263,-241.853,l)
);
}
);
width = 604;
}
);
unicode = 123;
},
{
glyphname = bar;
layers = (
{
layerId = "C9131A5A-EDD4-486F-A7AF-343E1560E480";
shapes = (
{
closed = 1;
nodes = (
(303.64,-379.55,l),
(165.943,-379.55,l),
(165.943,1316.07,l),
(303.64,1316.07,l)
);
}
);
width = 470;
}
);
unicode = 124;
},
{
glyphname = braceright;
layers = (
{
layerId = "C9131A5A-EDD4-486F-A7AF-343E1560E480";
shapes = (
{
closed = 1;
nodes = (
(553.437,396.321,l),
(415.739,391.907,o),
(384.846,263.92,qs),
(368.958,195.071,o),
(368.958,65.318,qs),
(368.958,-93.563,o),
(365.427,-139.463,q),
(345.126,-329.237,o),
(200.367,-370.723,q),
(165.943,-379.55,o),
(90.033,-379.55,qs),
(41.486,-379.55,l),
(41.486,-241.853,l),
(68.849,-241.853,ls),
(165.943,-241.853,o),
(196.836,-198.602,qs),
(220.668,-165.943,o),
(220.668,-60.022,qs),
(220.668,162.412,o),
(227.73,220.668,q),
(255.093,405.147,o),
(405.147,467.817,q),
(287.752,524.308,o),
(248.031,631.112,qs),
(220.668,707.022,o),
(220.668,865.903,qs),
(220.668,1031.85,o),
(217.138,1071.57,q),
(208.311,1138.65,o),
(172.121,1160.72,q),
(142.993,1176.6,o),
(68.849,1176.6,qs),
(41.486,1176.6,l),
(41.486,1316.07,l),
(90.033,1316.07,ls),
(175.652,1316.07,o),
(217.138,1301.94,qs),
(336.299,1259.58,o),
(358.366,1121,qs),
(368.958,1055.68,o),
(367.192,896.797,q),
(367.192,750.273,o),
(384.846,672.598,qs),
(415.739,543.727,o),
(553.437,540.196,q)
);
}
);
width = 604;
}
);
unicode = 125;
},
{
glyphname = asciitilde;
layers = (
{
layerId = "C9131A5A-EDD4-486F-A7AF-343E1560E480";
shapes = (
{
closed = 1;
nodes = (
(979.768,594.922,l),
(872.965,493.415,o),
(736.15,493.415,qs),
(641.704,493.415,o),
(481.057,565.794,qs),
(376.019,610.81,o),
(307.171,610.81,qs),
(200.367,610.81,o),
(75.91,491.649,q),
(75.91,672.598,l),
(170.356,779.401,o),
(322.176,779.401,qs),
(417.505,779.401,o),
(600.218,701.726,qs),
(698.195,660.24,o),
(752.038,660.24,qs),
(869.434,660.24,o),
(979.768,781.167,q)
);
}
);
width = 1056;
}
);
unicode = 126;
},
{
glyphname = uniE000;
layers = (
{
layerId = "C9131A5A-EDD4-486F-A7AF-343E1560E480";
shapes = (
{
closed = 1;
nodes = (
(1028.04,189.775,o),
(934.472,61.787,qs),
(831.199,-81.206,o),
(667.022,-81.206,qs),
(518.733,-81.206,o),
(427.817,25.597,qs),
(343.081,124.457,o),
(343.081,274.512,qs),
(343.081,396.321,o),
(435.761,496.945,qs),
(515.202,581.682,o),
(639.659,632.877,q),
(594.643,641.704,o),
(544.33,641.704,qs),
(508.141,641.704,o),
(460.476,686.72,o),
(460.476,722.91,qs),
(460.476,759.1,o),
(508.141,804.116,o),
(544.33,804.116,qs),
(755.289,804.116,o),
(838.261,925.925,q),
(865.624,962.115,o),
(865.624,995.656,qs),
(865.624,1028.32,o),
(838.261,1064.5,q),
(755.289,1185.43,o),
(544.33,1185.43,qs),
(394.276,1185.43,o),
(272.467,1109.52,qs),
(244.221,1091.87,o),
(222.154,1091.87,qs),
(189.495,1091.87,o),
(140.948,1143.95,o),
(140.948,1176.6,qs),
(140.948,1209.26,o),
(173.607,1240.16,q),
(230.981,1290.47,o),
(348.377,1321.36,qs),
(451.649,1348.73,o),
(544.33,1348.73,qs),
(720.865,1348.73,o),
(862.093,1262.22,qs),
(1028.04,1160.72,o),
(1028.04,995.656,qs),
(1028.04,822.652,o),
(847.97,719.379,q),
(1028.04,603.749,o),
(1028.04,361.896,q)
);
},
{
closed = 1;
nodes = (
(865.624,450.164,o),
(825.903,513.716,q),
(719.1,500.476,o),
(623.771,441.337,qs),
(505.493,368.958,o),
(505.493,274.512,qs),
(505.493,193.306,o),
(544.33,141.228,qs),
(587.581,81.206,o),
(667.022,81.206,qs),
(760.585,81.206,o),
(817.076,179.183,qs),
(865.624,260.389,o),
(865.624,361.896,q)
);
}
);
width = 1169;
}
);
unicode = 57344;
},
{
glyphname = uniE001;
layers = (
{
layerId = "C9131A5A-EDD4-486F-A7AF-343E1560E480";
shapes = (
{
closed = 1;
nodes = (
(1028.04,189.775,o),
(934.472,61.787,qs),
(831.199,-81.206,o),
(667.022,-81.206,qs),
(518.733,-81.206,o),
(427.817,25.597,qs),
(343.081,124.457,o),
(343.081,274.512,qs),
(343.081,396.321,o),
(435.761,496.945,qs),
(515.202,581.682,o),
(639.659,632.877,q),
(594.643,641.704,o),
(520.498,641.704,q),
(494.9,562.263,o),
(358.086,462.521,o),
(274.232,462.521,qs),
(193.026,462.521,o),
(193.026,543.727,qs),
(193.026,625.816,o),
(274.232,625.816,qs),
(313.952,625.816,o),
(370.443,683.19,o),
(370.443,722.91,qs),
(370.443,762.63,o),
(313.952,820.887,o),
(274.232,820.887,qs),
(193.026,820.887,o),
(193.026,902.093,qs),
(193.026,983.299,o),
(274.232,983.299,qs),
(358.086,983.299,o),
(494.9,883.557,o),
(520.498,804.116,q),
(544.33,804.116,ls),
(755.289,804.116,o),
(840.026,925.925,qs),
(865.624,962.115,o),
(865.624,995.656,qs),
(865.624,1028.32,o),
(840.026,1064.5,qs),
(755.289,1185.43,o),
(544.33,1185.43,qs),
(386.332,1185.43,o),
(272.467,1109.52,qs),
(245.986,1091.87,o),
(222.154,1091.87,qs),
(189.495,1091.87,o),
(140.948,1143.95,o),
(140.948,1176.6,qs),
(140.948,1211.03,o),
(173.607,1240.16,qs),
(234.512,1292.23,o),
(350.142,1321.36,q),
(449.884,1348.73,o),
(544.33,1348.73,qs),
(720.865,1348.73,o),
(862.093,1262.22,qs),
(1028.04,1160.72,o),
(1028.04,995.656,qs),
(1028.04,822.652,o),
(847.97,719.379,q),
(1028.04,603.749,o),
(1028.04,361.896,qs)
);
},
{
closed = 1;
nodes = (
(865.624,450.164,o),
(825.903,513.716,q),
(717.334,498.711,o),
(622.005,441.337,qs),
(505.493,368.958,o),
(505.493,274.512,qs),
(505.493,193.306,o),
(544.33,141.228,qs),
(587.581,81.206,o),
(667.022,81.206,qs),
(760.585,81.206,o),
(817.076,179.183,qs),
(865.624,260.389,o),
(865.624,361.896,qs)
);
}
);
width = 1169;
}
);
unicode = 57345;
},
{
glyphname = uniE002;
layers = (
{
layerId = "C9131A5A-EDD4-486F-A7AF-343E1560E480";
shapes = (
{
closed = 1;
nodes = (
(1424.36,638.173,o),
(1322.85,495.18,o),
(1241.64,462.521,q),
(1225.75,457.225,o),
(1208.98,457.225,qs),
(1176.32,457.225,o),
(1129.54,507.538,o),
(1129.54,541.962,qs),
(1129.54,581.682,o),
(1194.86,622.285,o),
(1225.75,641.704,q),
(936.237,641.704,l),
(1028.04,531.37,o),
(1028.04,361.896,qs),
(1028.04,189.775,o),
(934.472,61.787,qs),
(831.199,-81.206,o),
(667.022,-81.206,qs),
(518.733,-81.206,o),
(427.817,25.597,qs),
(343.081,124.457,o),
(343.081,274.512,qs),
(343.081,396.321,o),
(435.761,496.945,qs),
(515.202,581.682,o),
(639.659,632.877,q),
(594.643,641.704,o),
(544.33,641.704,qs),
(460.476,641.704,o),
(460.476,722.91,qs),
(460.476,804.116,o),
(544.33,804.116,qs),
(610.531,804.116,o),
(668.787,820.887,q),
(739.401,838.54,o),
(795.01,880.026,qs),
(865.624,932.986,o),
(865.624,995.656,qs),
(865.624,1031.85,o),
(836.495,1069.8,qs),
(748.228,1185.43,o),
(544.33,1185.43,qs),
(386.332,1185.43,o),
(272.467,1109.52,qs),
(245.986,1091.87,o),
(222.154,1091.87,qs),
(189.495,1091.87,o),
(140.948,1143.95,o),
(140.948,1176.6,qs),
(140.948,1212.79,o),
(173.607,1240.16,qs),
(236.277,1292.23,o),
(350.142,1321.36,qs),
(449.884,1348.73,o),
(544.33,1348.73,qs),
(720.865,1348.73,o),
(862.093,1262.22,qs),
(1028.04,1160.72,o),
(1028.04,995.656,qs),
(1028.04,889.735,o),
(953.891,804.116,q),
(1225.75,804.116,l),
(1194.86,824.418,o),
(1129.54,864.138,o),
(1129.54,903.858,qs),
(1129.54,938.282,o),
(1176.32,988.595,o),
(1208.98,988.595,qs),
(1225.75,988.595,o),
(1241.64,983.299,q),
(1322.85,950.64,o),
(1424.36,807.647,o),
(1424.36,722.91,qs)
);
},
{
closed = 1;
nodes = (
(865.624,450.164,o),
(825.903,513.716,q),
(717.334,498.711,o),
(622.005,441.337,qs),
(505.493,368.958,o),
(505.493,274.512,qs),
(505.493,193.306,o),
(544.33,141.228,qs),
(587.581,81.206,o),
(667.022,81.206,qs),
(760.585,81.206,o),
(817.076,179.183,qs),
(865.624,260.389,o),
(865.624,361.896,qs)
);
}
);
width = 1565;
}
);
unicode = 57346;
},
{
glyphname = uniE003;
layers = (
{
layerId = "C9131A5A-EDD4-486F-A7AF-343E1560E480";
shapes = (
{
closed = 1;
nodes = (
(1254,189.775,o),
(1160.44,61.787,qs),
(1057.16,-81.206,o),
(892.986,-81.206,qs),
(777.356,-81.206,o),
(693.502,-12.357,qs),
(615.827,50.312,o),
(585.816,157.116,q),
(339.55,157.116,l),
(359.851,141.228,o),
(382.801,129.753,q),
(435.761,110.334,o),
(435.761,58.256,qs),
(435.761,25.597,o),
(389.862,-27.363,o),
(356.321,-27.363,qs),
(339.55,-27.363,o),
(323.662,-20.302,q),
(241.573,10.592,o),
(140.948,151.82,o),
(140.948,238.322,qs),
(140.948,327.472,o),
(241.573,466.052,o),
(323.662,498.711,q),
(339.55,505.772,o),
(356.321,505.772,qs),
(389.862,505.772,o),
(435.761,453.694,o),
(435.761,421.035,qs),
(435.761,368.958,o),
(382.801,346.891,q),
(359.851,338.064,o),
(339.55,319.528,q),
(572.576,319.528,l),
(603.469,526.074,o),
(865.624,632.877,q),
(820.607,641.704,o),
(772.06,641.704,qs),
(686.441,641.704,o),
(686.441,722.91,qs),
(686.441,804.116,o),
(772.06,804.116,qs),
(981.25,804.116,o),
(1065.99,925.925,q),
(1091.59,959.467,o),
(1091.59,995.656,qs),
(1091.59,1028.32,o),
(1065.99,1064.5,qs),
(981.25,1185.43,o),
(772.06,1185.43,qs),
(614.061,1185.43,o),
(498.431,1109.52,qs),
(471.951,1091.87,o),
(449.884,1091.87,qs),
(415.46,1091.87,o),
(366.913,1143.95,o),
(366.913,1176.6,qs),
(366.913,1211.03,o),
(401.337,1240.16,qs),
(458.711,1290.47,o),
(576.106,1321.36,qs),
(677.614,1348.73,o),
(772.06,1348.73,qs),
(948.595,1348.73,o),
(1089.82,1262.22,qs),
(1254,1160.72,o),
(1254,995.656,qs),
(1254,822.652,o),
(1075.7,719.379,q),
(1254,603.749,o),
(1254,361.896,qs)
);
},
{
closed = 1;
nodes = (
(1091.59,450.164,o),
(1051.87,513.716,q),
(939.768,498.711,o),
(843.557,437.806,qs),
(731.457,365.427,o),
(731.457,274.512,qs),
(731.457,193.306,o),
(770.295,141.228,qs),
(813.546,81.206,o),
(892.986,81.206,qs),
(986.55,81.206,o),
(1043.04,179.183,qs),
(1091.59,260.389,o),
(1091.59,361.896,qs)
);
}
);
width = 1394;
}
);
unicode = 57347;
},
{
glyphname = uniE004;
layers = (
{
layerId = "C9131A5A-EDD4-486F-A7AF-343E1560E480";
shapes = (
{
closed = 1;
nodes = (
(1525.86,105.038,o),
(1502.03,77.675,qs),
(1429.65,-7.061,o),
(1310.49,-7.061,qs),
(1225.75,-7.061,o),
(1088.06,91.798,o),
(1062.46,172.121,q),
(993.61,172.121,l),
(950.36,60.022,o),
(869.154,-7.061,qs),
(780.887,-81.206,o),
(667.022,-81.206,qs),
(518.733,-81.206,o),
(427.817,25.598,qs),
(343.081,124.457,o),
(343.081,274.512,qs),
(343.081,396.321,o),
(435.761,496.945,qs),
(515.202,581.682,o),
(639.659,632.877,q),
(594.643,641.704,o),
(544.33,641.704,qs),
(460.476,641.704,o),
(460.476,722.91,qs),
(460.476,804.116,o),
(544.33,804.116,qs),
(744.697,804.116,o),
(832.965,916.216,qs),
(865.624,955.936,o),
(865.624,995.656,qs),
(865.624,1033.61,o),
(832.965,1074.21,qs),
(744.697,1185.43,o),
(544.33,1185.43,qs),
(386.332,1185.43,o),
(272.467,1109.52,qs),
(245.986,1091.87,o),
(222.154,1091.87,qs),
(189.495,1091.87,o),
(140.948,1143.95,o),
(140.948,1176.6,qs),
(140.948,1211.03,o),
(173.607,1240.16,q),
(234.512,1290.47,o),
(350.142,1321.36,qs),
(449.884,1348.73,o),
(544.33,1348.73,qs),
(720.865,1348.73,o),
(862.093,1262.22,qs),
(1028.04,1160.72,o),
(1028.04,995.656,qs),
(1028.04,822.652,o),
(847.97,719.379,q),
(1039.51,594.922,o),
(1026.27,334.533,q),
(1062.46,334.533,l),
(1088.06,413.974,o),
(1225.75,513.716,o),
(1310.49,513.716,qs),
(1391.7,513.716,o),
(1391.7,431.628,qs),
(1391.7,350.422,o),
(1310.49,350.422,qs),
(1269.01,350.422,o),
(1212.51,293.048,o),
(1212.51,253.327,qs),
(1212.51,213.607,o),
(1269.01,155.351,o),
(1310.49,155.351,qs),
(1346.68,155.351,o),
(1413.76,215.372,o),
(1440.24,215.372,qs),
(1472.9,215.372,o),
(1525.86,165.943,o),
(1525.86,132.401,qs)
);
},
{
closed = 1;
nodes = (
(865.624,450.164,o),
(825.903,513.716,q),
(717.334,498.711,o),
(622.005,441.337,qs),
(505.493,368.958,o),
(505.493,274.512,qs),
(505.493,193.306,o),
(544.33,141.228,qs),
(587.581,81.206,o),
(667.022,81.206,qs),
(760.585,81.206,o),
(817.076,179.183,qs),
(865.624,260.389,o),
(865.624,361.896,qs)
);
}
);
width = 1666;
}
);
unicode = 57348;
},
{
glyphname = uniE005;
layers = (
{
layerId = "C9131A5A-EDD4-486F-A7AF-343E1560E480";
shapes = (
{
closed = 1;
nodes = (
(1440.24,1059.21,o),
(1417.29,1031.85,qs),
(1344.92,947.109,o),
(1225.75,947.109,qs),
(1102.18,947.109,o),
(1022.74,1043.32,q),
(1028.04,1019.49,o),
(1028.04,995.656,qs),
(1028.04,822.652,o),
(847.97,719.379,q),
(1028.04,603.749,o),
(1028.04,361.896,qs),
(1028.04,189.775,o),
(934.472,61.787,qs),
(831.199,-81.206,o),
(667.022,-81.206,qs),
(518.733,-81.206,o),
(427.817,25.597,qs),
(343.081,124.457,o),
(343.081,274.512,qs),
(343.081,396.321,o),
(435.761,496.945,qs),
(515.202,581.682,o),
(639.659,632.877,q),
(594.643,641.704,o),
(544.33,641.704,qs),
(508.141,641.704,o),
(460.476,686.72,o),
(460.476,722.91,qs),
(460.476,759.1,o),
(508.141,804.116,o),
(544.33,804.116,qs),
(755.289,804.116,o),
(838.261,925.925,q),
(865.624,962.115,o),
(865.624,995.656,qs),
(865.624,1028.32,o),
(838.261,1064.5,q),
(755.289,1185.43,o),
(544.33,1185.43,qs),
(394.276,1185.43,o),
(272.467,1109.52,qs),
(244.221,1091.87,o),
(222.154,1091.87,qs),
(189.495,1091.87,o),
(140.948,1143.95,o),
(140.948,1176.6,qs),
(140.948,1209.26,o),
(173.607,1240.16,q),
(230.981,1290.47,o),
(348.377,1321.36,qs),
(451.649,1348.73,o),
(544.33,1348.73,qs),
(663.491,1348.73,o),
(777.356,1305.47,qs),
(901.813,1256.05,o),
(967.13,1169.54,q),
(965.37,1189.84,o),
(965.37,1207.5,qs),
(965.37,1314.3,o),
(1117.19,1467.89,o),
(1225.75,1467.89,qs),
(1306.96,1467.89,o),
(1306.96,1386.68,qs),
(1306.96,1305.47,o),
(1225.75,1305.47,qs),
(1186.03,1305.47,o),
(1127.78,1247.22,o),
(1127.78,1207.5,qs),
(1127.78,1167.78,o),
(1186.03,1109.52,o),
(1225.75,1109.52,qs),
(1261.94,1109.52,o),
(1328.14,1169.54,o),
(1355.51,1169.54,qs),
(1389.93,1169.54,o),
(1440.24,1121,o),
(1440.24,1086.57,qs)
);
},
{
closed = 1;
nodes = (
(865.624,450.164,o),
(825.903,513.716,q),
(719.1,500.476,o),
(623.771,441.337,qs),
(505.493,368.958,o),
(505.493,274.512,qs),
(505.493,193.306,o),
(544.33,141.228,qs),
(587.581,81.206,o),
(667.022,81.206,qs),
(760.585,81.206,o),
(817.076,179.183,qs),
(865.624,260.389,o),
(865.624,361.896,qs)
);
}
);
width = 1581;
}
);
unicode = 57349;
},
{
glyphname = uniE006;
layers = (
{
layerId = "C9131A5A-EDD4-486F-A7AF-343E1560E480";
shapes = (
{
closed = 1;
nodes = (
(1303.43,189.775,o),
(1208.98,61.787,qs),
(1105.71,-81.206,o),
(941.533,-81.206,qs),
(793.244,-81.206,o),
(703.212,25.597,qs),
(617.592,124.457,o),
(617.592,274.512,qs),
(617.592,396.321,o),
(710.273,496.945,qs),
(789.714,581.682,o),
(914.171,632.877,q),
(869.154,641.704,o),
(820.607,641.704,qs),
(784.418,641.704,o),
(735.87,686.72,o),
(735.87,722.91,qs),
(735.87,759.1,o),
(784.418,804.116,o),
(820.607,804.116,qs),
(1028.04,804.116,o),
(1111.89,919.746,qs),
(1140.14,959.467,o),
(1140.14,995.656,q),
(1141.039,1028.947,o),
(1111.89,1069.8,qs),
(1028.93,1186.07,o),
(772.06,1185.43,qs),
(688.206,1185.43,o),
(603.469,1171.31,qs),
(513.437,1157.19,o),
(432.231,1128.06,qs),
(303.36,1081.28,o),
(303.36,1026.55,qs),
(303.36,986.83,o),
(361.617,929.456,o),
(437.527,929.456,o),
(482.543,883.557,o),
(482.543,848.25,qs),
(482.543,813.825,o),
(437.527,766.161,o),
(401.337,766.161,qs),
(294.533,766.161,o),
(140.948,919.746,o),
(140.948,1026.55,qs),
(140.948,1147.48,o),
(277.763,1233.1,qs),
(379.27,1295.77,o),
(522.263,1326.66,qs),
(634.363,1350.49,o),
(751.759,1350.49,qs),
(961.83,1350.49,o),
(1110.12,1276.35,qs),
(1303.43,1181.9,o),
(1303.43,995.656,qs),
(1303.43,822.652,o),
(1124.25,719.379,q),
(1303.43,603.749,o),
(1303.43,361.896,qs)
);
},
{
closed = 1;
nodes = (
(1140.14,450.164,o),
(1100.41,513.716,q),
(993.61,500.476,o),
(898.282,441.337,qs),
(780.887,368.958,o),
(780.887,274.512,qs),
(780.887,193.306,o),
(818.842,141.228,qs),
(862.093,81.206,o),
(941.533,81.206,qs),
(1035.98,81.206,o),
(1091.59,179.183,qs),
(1140.14,260.389,o),
(1140.14,361.896,qs)
);
}
);
width = 1444;
}
);
unicode = 57350;
},
{
glyphname = uniE007;
layers = (
{
layerId = "C9131A5A-EDD4-486F-A7AF-343E1560E480";
shapes = (
{
closed = 1;
nodes = (
(1707.69,505.772,o),
(1579.71,410.443,o),
(1483.5,410.443,qs),
(1395.23,410.443,o),
(1303.43,479.292,q),
(1274.3,439.572,o),
(1227.52,355.718,qs),
(1200.16,308.936,o),
(1156.91,308.936,qs),
(1122.48,308.936,o),
(1069.52,355.718,o),
(1069.52,388.377,qs),
(1069.52,421.035,o),
(1129.54,517.247,q),
(1005.09,517.247,l),
(1028.04,446.633,o),
(1028.04,361.896,qs),
(1028.04,189.775,o),
(934.472,61.787,qs),
(831.199,-81.206,o),
(667.022,-81.206,qs),
(518.733,-81.206,o),
(427.817,25.598,qs),
(343.081,124.457,o),
(343.081,274.512,qs),
(343.081,399.851,o),
(435.761,496.945,qs),
(513.437,579.917,o),
(641.424,632.877,q),
(596.408,641.704,o),
(544.33,641.704,qs),
(460.476,641.704,o),
(460.476,722.91,qs),
(460.476,804.116,o),
(544.33,804.116,qs),
(751.759,804.116,o),
(838.261,921.512,qs),
(865.624,959.467,o),
(865.624,995.656,qs),
(865.624,1030.08,o),
(838.261,1068.04,qs),
(751.759,1185.43,o),
(544.33,1185.43,qs),
(388.097,1185.43,o),
(272.467,1109.52,qs),
(245.986,1091.87,o),
(222.154,1091.87,qs),
(189.495,1091.87,o),
(140.948,1143.95,o),
(140.948,1176.6,qs),
(140.948,1212.79,o),
(173.607,1240.16,qs),
(236.277,1292.23,o),
(350.142,1321.36,qs),
(449.884,1348.73,o),
(544.33,1348.73,qs),
(720.865,1348.73,o),
(862.093,1262.22,qs),
(1028.04,1160.72,o),
(1028.04,995.656,qs),
(1028.04,822.652,o),
(847.97,719.379,q),
(876.216,701.726,o),
(900.048,679.659,q),
(1129.54,679.659,l),
(1069.52,774.105,o),
(1069.52,805.881,qs),
(1069.52,840.306,o),
(1122.48,887.97,o),
(1156.91,887.97,qs),
(1200.16,887.97,o),
(1227.52,840.306,qs),
(1274.3,755.569,o),
(1303.43,715.849,q),
(1395.23,786.463,o),
(1483.5,786.463,qs),
(1580.389,787.38,o),
(1641.49,741.446,qs),
(1708.382,691.158,o),
(1707.69,598.453,qs)
);
},
{
closed = 1;
nodes = (
(1545.28,605.514,o),
(1543.52,609.045,q),
(1525.86,624.051,o),
(1483.5,624.051,qs),
(1453.48,624.051,o),
(1417.29,598.453,q),
(1453.48,572.855,o),
(1483.5,572.855,qs),
(1525.86,572.855,o),
(1541.75,584.33,q),
(1545.28,589.626,o),
(1545.28,598.453,qs)
);
},
{
closed = 1;
nodes = (
(865.624,450.164,o),
(825.903,513.716,q),
(717.334,498.711,o),
(622.005,441.337,qs),
(505.493,368.958,o),
(505.493,274.512,qs),
(505.493,193.306,o),
(544.33,141.228,qs),
(587.581,81.206,o),
(667.022,81.206,qs),
(760.585,81.206,o),
(817.076,179.183,qs),
(865.624,260.389,o),
(865.624,361.896,qs)
);
}
);
width = 1848;
}
);
unicode = 57351;
},
{
glyphname = uniE008;
layers = (
{
layerId = "C9131A5A-EDD4-486F-A7AF-343E1560E480";
shapes = (
{
closed = 1;
nodes = (
(1267.24,189.775,o),
(1172.79,61.787,qs),
(1069.52,-81.206,o),
(905.344,-81.206,qs),
(789.714,-81.206,o),
(620.24,58.256,o),
(592.877,173.887,q),
(561.984,103.273,o),
(432.231,20.301,o),
(356.321,20.301,qs),
(232.746,20.301,o),
(162.132,105.038,q),
(140.948,132.401,o),
(140.948,158.881,qs),
(140.948,191.54,o),
(191.261,241.853,o),
(223.92,241.853,qs),
(253.048,241.853,o),
(320.131,182.714,o),
(356.321,182.714,qs),
(396.041,182.714,o),
(453.415,238.322,o),
(453.415,279.808,qs),
(453.415,319.528,o),
(396.041,377.784,o),
(356.321,377.784,qs),
(274.232,377.784,o),
(274.232,458.99,qs),
(274.232,540.196,o),
(356.321,540.196,qs),
(437.527,540.196,o),
(569.045,448.398,o),
(598.173,374.254,q),
(658.195,541.962,o),
(877.981,632.877,q),
(832.965,641.704,o),
(784.418,641.704,qs),
(699.681,641.704,o),
(699.681,722.91,qs),
(699.681,804.116,o),
(784.418,804.116,qs),
(991.85,804.116,o),
(1079.23,924.16,qs),
(1103.95,959.467,o),
(1103.95,995.656,q),
(1104.876,1030.73,o),
(1079.23,1066.27,qs),
(992.765,1186.095,o),
(784.418,1185.43,q),
(627.302,1185.43,o),
(511.671,1109.52,qs),
(484.308,1091.87,o),
(462.242,1091.87,qs),
(427.817,1091.87,o),
(379.27,1143.95,o),
(379.27,1176.6,qs),
(379.27,1211.03,o),
(413.694,1240.16,qs),
(473.716,1292.23,o),
(589.347,1321.36,qs),
(689.971,1348.73,o),
(784.418,1348.73,qs),
(961.83,1348.73,o),
(1102.18,1262.22,qs),
(1267.24,1160.72,o),
(1267.24,995.656,qs),
(1267.24,822.652,o),
(1088.06,719.379,q),
(1267.24,603.749,o),
(1267.24,361.896,qs)
);
},
{
closed = 1;
nodes = (
(1103.95,450.164,o),
(1064.23,513.716,q),
(955.656,498.711,o),
(862.093,441.337,qs),
(744.697,368.958,o),
(744.697,274.512,qs),
(744.697,193.306,o),
(782.652,141.228,qs),
(825.903,81.206,o),
(905.344,81.206,qs),
(999.79,81.206,o),
(1055.4,179.183,qs),
(1103.95,260.389,o),
(1103.95,361.896,qs)
);
}
);
width = 1408;
}
);
unicode = 57352;
},
{
glyphname = uniE009;
layers = (
{
layerId = "C9131A5A-EDD4-486F-A7AF-343E1560E480";
shapes = (
{
closed = 1;
nodes = (
(1433.18,-15.888,o),
(1290.19,-135.932,o),
(1196.63,-135.932,qs),
(1124.25,-135.932,o),
(1072.17,-110.334,qs),
(1003.32,-75.91,o),
(1003.32,-10.592,qs),
(1003.32,20.302,o),
(1041.28,63.553,o),
(1072.17,63.553,qs),
(1091.59,63.553,o),
(1169.26,27.363,o),
(1194.86,27.363,qs),
(1219.58,27.363,o),
(1270.77,52.078,o),
(1270.77,74.145,qs),
(1270.77,88.267,o),
(1210.75,122.692,o),
(1196.63,122.692,qs),
(1084.53,122.692,o),
(1006.85,213.607,q),
(970.66,84.737,o),
(885.925,5.296,qs),
(791.479,-81.206,o),
(667.022,-81.206,qs),
(518.733,-81.206,o),
(427.817,25.597,qs),
(343.081,124.457,o),
(343.081,274.512,qs),
(343.081,396.321,o),
(435.761,496.945,qs),
(515.202,581.682,o),
(639.659,632.877,q),
(594.643,641.704,o),
(544.33,641.704,qs),
(508.141,641.704,o),
(460.476,686.72,o),
(460.476,722.91,qs),
(460.476,759.1,o),
(508.141,804.116,o),
(544.33,804.116,qs),
(753.878,805.089,o),
(838.261,925.925,qs),
(864.237,963.123,o),
(865.624,995.656,q),
(864.331,1027.378,o),
(838.261,1064.5,qs),
(753.975,1184.518,o),
(544.33,1185.43,q),
(394.276,1185.43,o),
(272.467,1109.52,qs),
(244.221,1091.87,o),
(222.154,1091.87,qs),
(189.495,1091.87,o),
(140.948,1143.95,o),
(140.948,1176.6,qs),
(140.222,1210.046,o),
(173.607,1240.16,qs),
(230.27,1291.27,o),
(348.377,1321.36,qs),
(451.649,1348.73,o),
(544.33,1348.73,qs),
(720.865,1348.73,o),
(862.093,1262.22,qs),
(1028.04,1160.72,o),
(1028.04,995.656,qs),
(1028.04,822.652,o),
(847.97,719.379,q),
(983.02,632.877,o),
(1017.44,472.231,q),
(1088.06,541.962,o),
(1194.86,541.962,qs),
(1371.4,541.962,o),
(1371.4,439.572,qs),
(1371.4,406.913,o),
(1326.38,358.366,o),
(1293.72,358.366,qs),
(1277.83,358.366,o),
(1214.28,379.55,o),
(1196.63,379.55,qs),
(1172.523,380.109,o),
(1149.84,368.958,qs),
(1120.441,354.505,o),
(1120.72,332.768,qs),
(1120.72,317.763,o),
(1179.86,285.986,o),
(1196.63,285.986,qs),
(1281.36,285.986,o),
(1433.18,158.881,o),
(1433.18,74.145,qs)
);
},
{
closed = 1;
nodes = (
(865.624,450.164,o),
(825.903,513.716,q),
(719.1,500.476,o),
(623.771,441.337,qs),
(505.493,368.958,o),
(505.493,274.512,qs),
(505.493,193.306,o),
(544.33,141.228,qs),
(587.581,81.206,o),
(667.022,81.206,qs),
(760.585,81.206,o),
(817.076,179.183,qs),
(865.624,260.389,o),
(865.624,361.896,qs)
);
}
);
width = 1574;
}
);
unicode = 57353;
},
{
glyphname = uniE00A;
layers = (
{
layerId = "C9131A5A-EDD4-486F-A7AF-343E1560E480";
shapes = (
{
closed = 1;
nodes = (
(1605.36,924.16,o),
(1456.407,724.044,o),
(1341.44,684.955,qs),
(1323.993,679.023,o),
(1309.66,679.659,q),
(1277.01,679.659,o),
(1231.99,729.971,o),
(1231.99,764.396,qs),
(1231.99,810.295,o),
(1284.07,836.775,qs),
(1442.95,917.981,o),
(1442.95,1041.56,qs),
(1442.95,1131.59,o),
(1359.98,1164.25,qs),
(1307.9,1185.43,o),
(1197.56,1185.43,qs),
(1171.97,1185.43,o),
(1110.18,1153.65,o),
(1110.18,1129.82,qs),
(1110.18,1084.81,o),
(1197.56,1084.81,qs),
(1278.77,1084.81,o),
(1278.77,1003.6,qs),
(1278.77,921.512,o),
(1197.56,921.512,qs),
(1090.76,921.512,o),
(1025.44,969.176,q),
(1011.32,813.825,o),
(846.261,719.379,q),
(1025.44,603.749,o),
(1025.44,361.896,qs),
(1025.44,189.775,o),
(933.645,61.787,qs),
(830.372,-81.206,o),
(666.195,-81.206,qs),
(517.906,-81.206,o),
(426.99,25.598,qs),
(342.254,124.457,o),
(342.254,274.512,qs),
(342.254,396.321,o),
(434.052,496.945,qs),
(513.493,581.682,o),
(638.832,632.877,q),
(593.816,641.704,o),
(542.621,641.704,qs),
(457.884,641.704,o),
(457.884,722.91,qs),
(457.884,804.116,o),
(542.621,804.116,qs),
(743.87,804.116,o),
(832.138,917.981,qs),
(863.031,957.701,o),
(863.031,995.656,qs),
(863.031,1031.85,o),
(832.138,1071.57,qs),
(743.87,1185.43,o),
(542.621,1185.43,q),
(386.154,1184.447,o),
(271.64,1109.52,qs),
(243.14,1090.873,o),
(221.327,1091.87,q),
(188.668,1091.87,o),
(140.121,1143.95,o),
(140.121,1176.6,qs),
(139.341,1211.905,o),
(171.898,1240.16,qs),
(233.324,1291.517,o),
(349.315,1321.36,qs),
(449.482,1347.132,o),
(542.621,1348.73,qs),
(660.016,1348.73,o),
(766.82,1309.01,qs),
(885.981,1263.99,o),
(954.83,1181.9,q),
(976.9,1256.05,o),
(1118.12,1348.73,o),
(1197.56,1348.73,qs),
(1605.36,1348.73,o),
(1605.36,1041.56,qs)
);
},
{
closed = 1;
nodes = (
(863.031,450.164,o),
(823.311,513.716,q),
(716.508,498.711,o),
(620.296,441.337,qs),
(504.666,368.958,o),
(504.666,274.512,qs),
(504.666,193.306,o),
(542.621,141.228,qs),
(585.872,81.206,o),
(666.195,81.206,qs),
(759.759,81.206,o),
(816.25,179.183,qs),
(863.031,260.389,o),
(863.031,361.896,qs)
);
}
);
width = 1746;
}
);
unicode = 57354;
},
{
glyphname = uniE00B;
layers = (
{
layerId = "C9131A5A-EDD4-486F-A7AF-343E1560E480";
shapes = (
{
closed = 1;
nodes = (
(1389.93,103.273,o),
(1227.52,-55.609,qs),
(1200.16,-82.971,o),
(1169.26,-82.971,qs),
(1136.6,-82.971,o),
(1086.29,-32.659,o),
(1086.29,0,q),
(1084.654,28.66,o),
(1113.65,63.553,qs),
(1136.803,91.413,o),
(1162.2,117.396,q),
(1062.46,122.692,o),
(1003.32,196.836,q),
(963.6,75.91,o),
(879.746,0,qs),
(787.948,-81.206,o),
(667.022,-81.206,qs),
(518.733,-81.206,o),
(427.817,25.597,qs),
(343.081,124.457,o),
(343.081,274.512,qs),
(343.081,396.321,o),
(435.761,496.945,qs),
(515.202,581.682,o),
(639.659,632.877,q),
(594.643,641.704,o),
(544.33,641.704,qs),
(460.476,641.704,o),
(460.476,722.91,qs),
(460.476,804.116,o),
(544.33,804.116,qs),
(748.787,805.015,o),
(836.495,921.512,qs),
(864.437,958.625,o),
(865.624,995.656,q),
(864.438,1030.926,o),
(836.495,1068.04,qs),
(748.788,1184.532,o),
(544.33,1185.43,q),
(386.332,1185.43,o),
(272.467,1109.52,qs),
(245.986,1091.87,o),
(222.154,1091.87,qs),
(189.495,1091.87,o),
(140.948,1143.95,o),
(140.948,1176.6,qs),
(140.948,1211.03,o),
(173.607,1240.16,qs),
(234.512,1292.23,o),
(350.142,1321.36,q),
(449.884,1348.73,o),
(544.33,1348.73,qs),
(720.865,1348.73,o),
(862.093,1262.22,qs),
(1028.04,1160.72,o),
(1028.04,995.656,qs),
(1028.04,822.652,o),
(847.97,719.379,q),
(991.85,627.581,o),
(1020.97,451.929,q),
(1084.53,513.716,o),
(1174.56,513.716,qs),
(1261.94,513.716,o),
(1389.93,399.851,o),
(1389.93,314.232,qs)
);
},
{
closed = 1;
nodes = (
(1227.52,350.422,o),
(1174.56,350.422,qs),
(1124.25,350.422,o),
(1124.25,314.232,qs),
(1124.25,279.808,o),
(1174.56,279.808,qs),
(1227.52,279.808,o),
(1227.52,314.232,qs)
);
},
{
closed = 1;
nodes = (
(865.624,450.164,o),
(825.903,513.716,q),
(717.334,498.711,o),
(622.005,441.337,qs),
(505.493,368.958,o),
(505.493,274.512,qs),
(505.493,193.306,o),
(544.33,141.228,qs),
(587.581,81.206,o),
(667.022,81.206,qs),
(760.585,81.206,o),
(817.076,179.183,qs),
(865.624,260.389,o),
(865.624,361.896,qs)
);
}
);
width = 1530;
}
);
unicode = 57355;
},
{
glyphname = uniE00C;
layers = (
{
layerId = "C9131A5A-EDD4-486F-A7AF-343E1560E480";
shapes = (
{
closed = 1;
nodes = (
(1026.27,889.735,o),
(907.109,807.647,q),
(960.07,759.1,o),
(960.07,695.547,qs),
(960.07,624.051,o),
(892.986,571.09,q),
(1006.85,475.761,o),
(1006.85,289.517,qs),
(1006.85,146.524,o),
(939.768,41.486,qs),
(863.858,-81.206,o),
(729.692,-81.206,qs),
(614.061,-81.206,o),
(551.392,15.888,qs),
(494.9,99.742,o),
(494.9,220.668,qs),
(494.9,396.321,o),
(652.016,496.945,q),
(636.128,496.945,o),
(615.827,496.945,qs),
(531.09,496.945,o),
(531.09,578.151,qs),
(531.09,660.24,o),
(615.827,660.24,qs),
(726.161,660.24,o),
(786.183,695.547,q),
(726.161,731.737,o),
(615.827,731.737,qs),
(531.09,731.737,o),
(531.09,813.825,qs),
(531.09,895.031,o),
(699.681,895.031,o),
(772.06,929.456,qs),
(863.441,972.708,o),
(863.858,1050.38,qs),
(863.956,1068.536,o),
(840.026,1093.63,qs),
(750.502,1185.926,o),
(544.33,1185.43,qs),
(380.517,1186.403,o),
(265.405,1124.53,qs),
(239.292,1109.84,o),
(222.154,1109.52,qs),
(187.736,1108.878,o),
(140.948,1162.48,o),
(140.948,1196.91,qs),
(140.948,1272.82,o),
(310.422,1316.07,qs),
(433.996,1348.73,o),
(544.33,1348.73,qs),
(712.038,1348.73,o),
(851.501,1281.64,qs),
(1026.27,1198.67,o),
(1026.27,1050.38,qs)
);
},
{
closed = 1;
nodes = (
(843.557,348.656,o),
(825.903,391.907,q),
(758.82,376.019,o),
(710.273,332.768,qs),
(658.195,284.221,o),
(658.195,220.668,qs),
(658.195,81.206,o),
(729.692,81.206,qs),
(787.948,81.206,o),
(820.607,160.647,qs),
(843.557,220.668,o),
(843.557,289.517,qs)
);
}
);
width = 1167;
}
);
unicode = 57356;
},
{
glyphname = uniE00D;
layers = (
{
layerId = "C9131A5A-EDD4-486F-A7AF-343E1560E480";
shapes = (
{
closed = 1;
nodes = (
(1046.57,889.735,o),
(925.645,807.647,q),
(979.49,759.1,o),
(979.49,695.547,qs),
(979.49,624.051,o),
(912.405,571.09,q),
(1024.5,475.761,o),
(1024.5,289.517,qs),
(1024.5,146.524,o),
(960.07,41.486,qs),
(881.512,-81.206,o),
(748.228,-81.206,qs),
(634.363,-81.206,o),
(569.045,15.888,qs),
(513.437,99.742,o),
(513.437,220.668,qs),
(513.437,396.321,o),
(672.318,496.945,q),
(653.782,496.945,o),
(636.128,496.945,qs),
(470.186,496.945,l),
(442.823,417.505,o),
(305.126,317.763,o),
(222.154,317.763,qs),
(140.948,317.763,o),
(140.948,399.851,qs),
(140.948,481.057,o),
(222.154,481.057,qs),
(261.875,481.057,o),
(320.131,538.431,o),
(320.131,578.151,qs),
(320.131,617.872,o),
(261.875,676.128,o),
(222.154,676.128,qs),
(140.948,676.128,o),
(140.948,757.334,qs),
(140.948,838.54,o),
(222.154,838.54,qs),
(305.126,838.54,o),
(442.823,739.681,o),
(470.186,660.24,q),
(636.128,660.24,ls),
(746.463,660.24,o),
(805.602,695.547,q),
(744.697,731.737,o),
(636.128,731.737,qs),
(599.939,731.737,o),
(551.392,777.636,o),
(551.392,813.825,qs),
(551.392,850.015,o),
(599.939,895.031,o),
(636.128,895.031,qs),
(720.865,895.031,o),
(793.244,929.456,qs),
(884.16,972.707,o),
(884.16,1050.38,q),
(883.559,1067.453,o),
(858.562,1093.63,qs),
(771.451,1184.852,o),
(563.749,1185.43,qs),
(406.229,1186.226,o),
(285.707,1124.53,qs),
(257.926,1110.309,o),
(239.808,1109.52,q),
(208.031,1109.52,o),
(158.602,1162.48,o),
(158.602,1196.91,qs),
(158.602,1272.82,o),
(328.958,1316.07,qs),
(451.649,1348.73,o),
(563.749,1348.73,qs),
(731.457,1348.73,o),
(870.92,1281.64,qs),
(1046.57,1198.67,o),
(1046.57,1050.38,qs)
);
},
{
closed = 1;
nodes = (
(862.093,348.656,o),
(843.557,391.907,q),
(777.356,376.019,o),
(729.692,332.768,qs),
(675.849,284.221,o),
(675.849,220.668,qs),
(675.849,81.206,o),
(748.228,81.206,qs),
(805.602,81.206,o),
(838.261,160.647,qs),
(862.093,218.903,o),
(862.093,289.517,qs)
);
}
);
width = 1187;
}
);
unicode = 57357;
},
{
glyphname = uniE00E;
layers = (
{
layerId = "C9131A5A-EDD4-486F-A7AF-343E1560E480";
shapes = (
{
closed = 1;
nodes = (
(1455.25,609.045,o),
(1351.98,466.052,o),
(1272.54,436.041,q),
(1254,428.097,o),
(1238.11,428.097,qs),
(1205.45,428.097,o),
(1160.44,481.057,o),
(1160.44,513.716,qs),
(1160.44,555.202,o),
(1223.99,594.922,o),
(1254,614.341,q),
(932.707,614.341,l),
(915.936,589.626,o),
(892.986,571.09,q),
(1006.85,475.761,o),
(1006.85,289.517,qs),
(1006.85,146.524,o),
(939.768,41.486,qs),
(863.858,-81.206,o),
(729.692,-81.206,qs),
(614.061,-81.206,o),
(551.392,15.888,qs),
(494.9,99.742,o),
(494.9,220.668,qs),
(494.9,396.321,o),
(652.016,496.945,q),
(634.363,496.945,o),
(615.827,496.945,qs),
(579.637,496.945,o),
(531.09,541.962,o),
(531.09,578.151,qs),
(531.09,614.341,o),
(579.637,660.24,o),
(615.827,660.24,qs),
(726.161,660.24,o),
(786.183,695.547,q),
(726.161,731.737,o),
(615.827,731.737,qs),
(579.637,731.737,o),
(531.09,777.636,o),
(531.09,813.825,qs),
(531.09,850.015,o),
(579.637,895.031,o),
(615.827,895.031,qs),
(703.212,895.031,o),
(775.591,929.456,qs),
(863.858,972.707,o),
(863.858,1050.38,qs),
(863.858,1068.04,o),
(840.026,1093.63,qs),
(753.524,1185.43,o),
(544.33,1185.43,q),
(387.63,1186.361,o),
(265.405,1124.53,qs),
(237.556,1110.442,o),
(222.154,1109.52,q),
(187.73,1109.52,o),
(140.948,1162.48,o),
(140.948,1196.91,qs),
(140.948,1272.82,o),
(310.422,1316.07,qs),
(432.231,1348.73,o),
(544.33,1348.73,qs),
(713.804,1348.73,o),
(851.501,1281.64,qs),
(1026.27,1198.67,o),
(1026.27,1050.38,qs),
(1026.27,889.735,o),
(907.109,807.647,q),
(922.115,793.524,o),
(934.472,777.636,q),
(1254,777.636,l),
(1223.99,795.289,o),
(1160.44,836.775,o),
(1160.44,876.495,qs),
(1160.44,910.92,o),
(1205.45,962.115,o),
(1238.11,962.115,qs),
(1254,962.115,o),
(1272.54,954.171,q),
(1351.98,924.16,o),
(1455.25,781.166,o),
(1455.25,695.547,qs)
);
},
{
closed = 1;
nodes = (
(843.557,348.656,o),
(825.903,391.907,q),
(758.82,376.019,o),
(710.273,332.768,qs),
(658.195,284.221,o),
(658.195,220.668,qs),
(658.195,81.206,o),
(729.692,81.206,qs),
(786.924,81.612,o),
(818.842,160.647,qs),
(842.539,219.324,o),
(843.557,289.517,qs)
);
}
);
width = 1596;
}
);
unicode = 57358;
},
{
glyphname = uniE00F;
layers = (
{
layerId = "C9131A5A-EDD4-486F-A7AF-343E1560E480";
shapes = (
{
closed = 1;
nodes = (
(1131.31,889.735,o),
(1010.38,807.647,q),
(1064.23,759.1,o),
(1064.23,695.547,qs),
(1064.23,624.051,o),
(998.02,571.09,q),
(1111.89,475.761,o),
(1111.89,289.517,qs),
(1111.89,146.524,o),
(1044.81,41.486,qs),
(968.9,-81.206,o),
(832.965,-81.206,qs),
(741.166,-81.206,o),
(679.379,-14.123,qs),
(625.536,43.251,o),
(607,139.462,q),
(339.55,139.462,l),
(370.443,119.161,o),
(435.761,79.441,o),
(435.761,37.955,qs),
(435.761,5.296,o),
(389.862,-46.782,o),
(356.321,-46.782,qs),
(341.315,-46.782,o),
(323.662,-39.72,qs),
(241.573,-7.061,o),
(140.948,134.166,o),
(140.948,220.668,qs),
(140.948,305.405,o),
(241.573,448.398,o),
(323.662,479.292,qs),
(341.315,486.353,o),
(356.321,486.353,qs),
(389.862,486.353,o),
(435.761,436.041,o),
(435.761,401.617,qs),
(435.761,361.896,o),
(370.443,319.528,o),
(339.55,301.875,q),
(608.765,301.875,l),
(641.424,422.801,o),
(757.055,496.945,q),
(739.401,496.945,o),
(720.865,496.945,qs),
(684.675,496.945,o),
(636.128,541.962,o),
(636.128,578.151,qs),
(636.128,614.341,o),
(684.675,660.24,o),
(720.865,660.24,qs),
(831.199,660.24,o),
(891.221,695.547,q),
(831.199,731.737,o),
(720.865,731.737,qs),
(684.675,731.737,o),
(636.128,777.636,o),
(636.128,813.825,qs),
(636.128,850.015,o),
(684.675,895.031,o),
(720.865,895.031,qs),
(808.25,895.031,o),
(877.981,929.456,qs),
(968.9,972.707,o),
(968.9,1050.38,qs),
(968.9,1068.04,o),
(945.064,1093.63,qs),
(858.562,1185.43,o),
(648.486,1185.43,q),
(492.668,1186.362,o),
(370.443,1124.53,qs),
(342.595,1110.442,o),
(327.192,1109.52,q),
(292.768,1109.52,o),
(245.986,1162.48,o),
(245.986,1196.91,qs),
(245.986,1272.82,o),
(413.694,1316.07,qs),
(536.386,1348.73,o),
(648.486,1348.73,qs),
(817.076,1348.73,o),
(955.656,1281.64,qs),
(1131.31,1198.67,o),
(1131.31,1050.38,qs)
);
},
{
closed = 1;
nodes = (
(948.595,348.656,o),
(930.941,391.907,q),
(863.858,376.019,o),
(815.311,332.768,qs),
(760.585,284.221,o),
(760.585,220.668,qs),
(760.585,81.206,o),
(832.965,81.206,qs),
(891.962,81.612,o),
(923.88,160.647,qs),
(947.577,219.324,o),
(948.595,289.517,qs)
);
}
);
width = 1272;
}
);
unicode = 57359;
},
{
glyphname = uniE010;
layers = (
{
layerId = "C9131A5A-EDD4-486F-A7AF-343E1560E480";
shapes = (
{
closed = 1;
nodes = (
(1550.58,29.128,o),
(1529.39,3.531,qs),
(1457.02,-82.971,o),
(1336.09,-82.971,qs),
(1252.23,-82.971,o),
(1118.95,12.357,o),
(1089.82,90.033,q),
(974.19,112.1,l),
(903.579,-81.206,o),
(729.692,-81.206,qs),
(614.061,-81.206,o),
(551.392,15.888,qs),
(494.9,99.742,o),
(494.9,220.668,qs),
(494.9,396.321,o),
(652.016,496.945,q),
(634.363,496.945,o),
(615.827,496.945,qs),
(579.637,496.945,o),
(531.09,541.962,o),
(531.09,578.151,qs),
(531.09,614.341,o),
(579.637,660.24,o),
(615.827,660.24,qs),
(726.161,660.24,o),
(786.183,695.547,q),
(726.161,731.737,o),
(615.827,731.737,qs),
(579.637,731.737,o),
(531.09,777.636,o),
(531.09,813.825,qs),
(531.09,850.015,o),
(579.637,895.031,o),
(615.827,895.031,qs),
(703.212,895.031,o),
(775.591,929.456,qs),
(863.858,972.707,o),
(863.858,1050.38,qs),
(863.858,1068.04,o),
(840.026,1093.63,qs),
(751.759,1185.43,o),
(544.33,1185.43,q),
(387.63,1186.361,o),
(265.405,1124.53,qs),
(237.556,1110.442,o),
(222.154,1109.52,q),
(187.73,1109.52,o),
(140.948,1162.48,o),
(140.948,1196.91,qs),
(140.948,1272.82,o),
(310.422,1316.07,qs),
(432.231,1348.73,o),
(544.33,1348.73,qs),
(713.804,1348.73,o),
(851.501,1281.64,qs),
(1026.27,1198.67,o),
(1026.27,1050.38,qs),
(1026.27,889.735,o),
(907.109,807.647,q),
(960.07,759.1,o),
(960.07,695.547,qs),
(960.07,624.051,o),
(892.986,571.09,q),
(1012.15,469.583,o),
(1006.85,272.746,q),
(1088.06,256.858,l),
(1113.65,336.299,o),
(1250.47,437.806,o),
(1336.09,437.806,qs),
(1417.29,437.806,o),
(1417.29,355.718,qs),
(1417.29,274.512,o),
(1336.09,274.512,qs),
(1295.49,274.512,o),
(1238.11,217.138,o),
(1238.11,177.417,qs),
(1238.11,137.697,o),
(1295.49,79.441,o),
(1336.09,79.441,qs),
(1371.4,79.441,o),
(1438.48,141.228,o),
(1467.61,141.228,qs),
(1500.27,141.228,o),
(1550.58,90.033,o),
(1550.58,58.257,qs)
);
},
{
closed = 1;
nodes = (
(843.557,348.656,o),
(825.903,391.907,q),
(758.82,376.019,o),
(710.273,332.768,qs),
(658.195,284.221,o),
(658.195,220.668,qs),
(658.195,81.206,o),
(729.692,81.206,qs),
(786.924,81.612,o),
(818.842,160.647,qs),
(842.539,219.324,o),
(843.557,289.517,qs)
);
}
);
width = 1691;
}
);
unicode = 57360;
},
{
glyphname = uniE011;
layers = (
{
layerId = "C9131A5A-EDD4-486F-A7AF-343E1560E480";
shapes = (
{
closed = 1;
nodes = (
(1468.067,939.673,o),
(1445.54,912.685,qs),
(1374.493,827.568,o),
(1252.23,827.948,qs),
(1178.09,827.948,o),
(1051.87,907.389,o),
(1019.21,976.237,q),
(991.85,865.903,o),
(907.109,807.647,q),
(960.07,759.1,o),
(960.07,695.547,qs),
(960.07,624.051,o),
(892.986,571.09,q),
(1006.85,475.761,o),
(1006.85,289.517,qs),
(1006.85,146.524,o),
(939.768,41.486,qs),
(863.858,-81.206,o),
(729.692,-81.206,qs),
(614.061,-81.206,o),
(551.392,15.888,qs),
(494.9,99.742,o),
(494.9,220.668,qs),
(494.9,396.321,o),
(652.016,496.945,q),
(634.363,496.945,o),
(615.827,496.945,qs),
(579.637,496.945,o),
(531.09,541.962,o),
(531.09,578.151,qs),
(531.09,614.341,o),
(579.637,660.24,o),
(615.827,660.24,qs),
(726.161,660.24,o),
(786.183,695.547,q),
(726.161,731.737,o),
(615.827,731.737,qs),
(579.637,731.737,o),
(531.09,777.636,o),
(531.09,813.825,qs),
(531.09,850.015,o),
(579.637,895.031,o),
(615.827,895.031,qs),
(703.212,895.031,o),
(775.591,929.456,qs),
(863.858,972.707,o),
(863.858,1050.38,qs),
(863.858,1068.04,o),
(840.026,1093.63,qs),
(751.759,1185.43,o),
(544.33,1185.43,q),
(387.63,1186.361,o),
(265.405,1124.53,qs),
(237.556,1110.442,o),
(222.154,1109.52,q),
(187.73,1109.52,o),
(140.948,1162.48,o),
(140.948,1196.91,qs),
(140.948,1272.82,o),
(310.422,1316.07,qs),
(432.231,1348.73,o),
(544.33,1348.73,qs),
(677.614,1348.73,o),
(800.306,1303.71,qs),
(948.595,1250.75,o),
(1001.56,1153.65,q),
(1022.74,1240.16,o),
(1163.97,1348.73,o),
(1252.23,1348.73,qs),
(1333.44,1348.73,o),
(1333.44,1267.52,qs),
(1333.44,1185.43,o),
(1252.23,1185.43,qs),
(1212.51,1185.43,o),
(1155.14,1128.06,o),
(1155.14,1088.34,qs),
(1155.14,1048.62,o),
(1212.51,990.36,o),
(1252.23,990.36,qs),
(1288.42,990.36,o),
(1357.27,1050.38,o),
(1384.64,1050.38,qs),
(1417.29,1050.38,o),
(1467.61,1001.83,o),
(1467.61,967.411,qs)
);
},
{
closed = 1;
nodes = (
(843.557,348.656,o),
(825.903,391.907,q),
(758.82,376.019,o),
(710.273,332.768,qs),
(658.195,284.221,o),
(658.195,220.668,qs),
(658.195,81.206,o),
(729.692,81.206,qs),
(786.924,81.612,o),
(818.842,160.647,qs),
(842.539,219.324,o),
(843.557,289.517,qs)
);
}
);
width = 1608;
}
);
unicode = 57361;
},
{
glyphname = uniE012;
layers = (
{
layerId = "C9131A5A-EDD4-486F-A7AF-343E1560E480";
shapes = (
{
closed = 1;
nodes = (
(1234.58,889.735,o),
(1113.65,807.647,q),
(1167.5,759.1,o),
(1167.5,695.547,qs),
(1167.5,624.051,o),
(1100.41,571.09,q),
(1212.51,475.761,o),
(1212.51,289.517,qs),
(1212.51,146.524,o),
(1148.08,41.486,qs),
(1069.52,-81.206,o),
(936.237,-81.206,qs),
(822.372,-81.206,o),
(757.055,15.888,qs),
(701.446,99.742,o),
(701.446,220.668,qs),
(701.446,396.321,o),
(860.327,496.945,q),
(841.791,496.945,o),
(824.138,496.945,qs),
(787.948,496.945,o),
(739.401,541.962,o),
(739.401,578.151,qs),
(739.401,614.341,o),
(787.948,660.24,o),
(824.138,660.24,qs),
(934.472,660.24,o),
(993.61,695.547,q),
(932.707,731.737,o),
(824.138,731.737,qs),
(787.948,731.737,o),
(739.401,777.636,o),
(739.401,813.825,qs),
(739.401,850.015,o),
(787.948,895.031,o),
(824.138,895.031,qs),
(908.875,895.031,o),
(981.25,929.456,qs),
(1072.17,972.707,o),
(1072.17,1050.38,q),
(1071.568,1067.452,o),
(1046.57,1093.63,qs),
(959.46,1184.851,o),
(751.759,1185.43,q),
(646.72,1185.43,o),
(494.9,1145.71,qs),
(303.36,1095.4,o),
(303.36,1024.78,qs),
(303.36,985.064,o),
(361.617,927.69,o),
(401.337,927.69,qs),
(435.761,927.69,o),
(482.543,881.791,o),
(482.543,845.602,qs),
(482.543,812.06,o),
(435.761,764.396,o),
(401.337,764.396,qs),
(294.533,764.396,o),
(140.948,917.981,o),
(140.948,1024.78,qs),
(140.948,1143.95,o),
(277.763,1231.33,qs),
(377.505,1294,o),
(522.263,1324.89,qs),
(634.363,1348.73,o),
(751.759,1348.73,qs),
(919.467,1348.73,o),
(1058.93,1281.64,qs),
(1234.58,1198.67,o),
(1234.58,1050.38,qs)
);
},
{
closed = 1;
nodes = (
(1050.1,348.656,o),
(1034.21,391.907,q),
(965.37,376.019,o),
(917.701,332.768,qs),
(863.858,284.221,o),
(863.858,220.668,qs),
(863.858,81.206,o),
(936.237,81.206,qs),
(996.26,81.206,o),
(1026.27,160.647,qs),
(1050.1,220.668,o),
(1050.1,289.517,qs)
);
}
);
width = 1375;
}
);
unicode = 57362;
},
{
glyphname = uniE013;
layers = (
{
layerId = "C9131A5A-EDD4-486F-A7AF-343E1560E480";
shapes = (
{
closed = 1;
nodes = (
(1713.253,602.825,o),
(1646.79,553.437,qs),
(1586.142,508.371,o),
(1489.67,507.538,qs),
(1400.52,507.538,o),
(1308.73,578.151,q),
(1270.77,526.074,o),
(1231.05,453.694,q),
(1207.22,406.913,o),
(1160.44,406.913,qs),
(1127.78,406.913,o),
(1075.7,453.694,o),
(1075.7,486.353,qs),
(1075.7,519.012,o),
(1134.84,614.341,q),
(934.472,614.341,l),
(915.936,591.392,o),
(892.986,571.09,q),
(1006.85,475.761,o),
(1006.85,289.517,qs),
(1006.85,146.524,o),
(939.768,41.486,qs),
(863.858,-81.206,o),
(729.692,-81.206,qs),
(614.061,-81.206,o),
(551.392,15.888,qs),
(494.9,99.742,o),
(494.9,220.668,qs),
(494.9,396.321,o),
(652.016,496.945,q),
(634.363,496.945,o),
(615.827,496.945,qs),
(579.637,496.945,o),
(531.09,541.962,o),
(531.09,578.151,qs),
(531.09,614.341,o),
(579.637,660.24,o),
(615.827,660.24,qs),
(726.161,660.24,o),
(786.183,695.547,q),
(726.161,731.737,o),
(615.827,731.737,qs),
(579.637,731.737,o),
(531.09,777.636,o),
(531.09,813.825,qs),
(531.09,850.015,o),
(579.637,895.031,o),
(615.827,895.031,qs),
(703.212,895.031,o),
(775.591,929.456,qs),
(863.858,972.707,o),
(863.858,1050.38,qs),
(863.858,1068.04,o),
(840.026,1093.63,qs),
(753.524,1185.43,o),
(544.33,1185.43,q),
(387.63,1186.361,o),
(265.405,1124.53,qs),
(237.556,1110.442,o),
(222.154,1109.52,q),
(187.73,1109.52,o),
(140.948,1162.48,o),
(140.948,1196.91,qs),
(140.948,1272.82,o),
(310.422,1316.07,qs),
(432.231,1348.73,o),
(544.33,1348.73,qs),
(713.804,1348.73,o),
(851.501,1281.64,qs),
(1026.27,1198.67,o),
(1026.27,1050.38,qs),
(1026.27,889.735,o),
(907.109,807.647,q),
(922.115,793.524,o),
(932.707,777.636,q),
(1134.84,777.636,l),
(1075.7,871.199,o),
(1075.7,905.624,qs),
(1075.7,938.282,o),
(1127.78,985.064,o),
(1160.44,985.064,qs),
(1206.626,984.757,o),
(1231.05,938.282,qs),
(1270.179,863.825,o),
(1308.73,813.825,q),
(1400.52,883.557,o),
(1489.67,883.557,qs),
(1586.77,883.557,o),
(1646.79,838.54,qs),
(1713.87,788.228,o),
(1713.87,695.547,qs)
);
},
{
closed = 1;
nodes = (
(1550.58,703.491,o),
(1547.05,710.553,q),
(1531.16,721.145,o),
(1489.67,721.145,qs),
(1458.78,721.145,o),
(1422.59,695.547,q),
(1458.78,670.832,o),
(1489.67,670.832,qs),
(1529.39,670.832,o),
(1548.81,683.19,q),
(1550.58,686.72,o),
(1550.58,695.547,qs)
);
},
{
closed = 1;
nodes = (
(843.557,348.656,o),
(825.903,391.907,q),
(758.82,376.019,o),
(710.273,332.768,qs),
(658.195,284.221,o),
(658.195,220.668,qs),
(658.195,81.206,o),
(729.692,81.206,qs),
(786.924,81.612,o),
(818.842,160.647,qs),
(842.539,219.324,o),
(843.557,289.517,qs)
);
}
);
width = 1854;
}
);
unicode = 57363;
},
{
glyphname = uniE014;
layers = (
{
layerId = "C9131A5A-EDD4-486F-A7AF-343E1560E480";
shapes = (
{
closed = 1;
nodes = (
(1171.03,889.735,o),
(1050.1,807.647,q),
(1103.95,759.1,o),
(1103.95,695.547,qs),
(1103.95,624.051,o),
(1037.74,571.09,q),
(1149.84,475.761,o),
(1149.84,289.517,qs),
(1149.84,146.524,o),
(1084.53,41.486,qs),
(1006.85,-81.206,o),
(872.685,-81.206,qs),
(697.915,-81.206,o),
(648.486,122.692,q),
(610.531,122.692,l),
(591.112,32.659,o),
(448.119,-81.206,o),
(356.321,-81.206,qs),
(234.512,-81.206,o),
(162.132,3.531,q),
(140.948,30.894,o),
(140.948,58.256,qs),
(140.948,91.798,o),
(191.261,141.228,o),
(223.92,141.228,qs),
(253.048,141.228,o),
(320.131,81.206,o),
(356.321,81.206,qs),
(396.041,81.206,o),
(453.415,139.462,o),
(453.415,179.183,qs),
(453.415,218.903,o),
(396.041,276.277,o),
(356.321,276.277,qs),
(274.232,276.277,o),
(274.232,358.366,qs),
(274.232,439.572,o),
(356.321,439.572,qs),
(433.996,439.572,o),
(561.984,353.952,o),
(592.877,285.986,q),
(644.955,285.986,l),
(672.318,417.505,o),
(796.775,496.945,q),
(779.121,496.945,o),
(760.585,496.945,qs),
(724.396,496.945,o),
(675.849,541.962,o),
(675.849,578.151,qs),
(675.849,614.341,o),
(724.396,660.24,o),
(760.585,660.24,qs),
(870.92,660.24,o),
(930.941,695.547,q),
(869.154,731.737,o),
(760.585,731.737,qs),
(724.396,731.737,o),
(675.849,777.636,o),
(675.849,813.825,qs),
(675.849,850.015,o),
(724.396,895.031,o),
(760.585,895.031,qs),
(846.205,895.031,o),
(917.701,929.456,qs),
(1008.62,972.707,o),
(1008.62,1050.38,qs),
(1008.62,1068.04,o),
(983.02,1093.63,qs),
(894.752,1185.43,o),
(688.206,1185.43,q),
(530.686,1186.226,o),
(410.164,1124.53,qs),
(382.383,1110.309,o),
(365.147,1109.52,q),
(332.488,1109.52,o),
(283.941,1162.48,o),
(283.941,1196.91,qs),
(283.941,1272.82,o),
(453.415,1316.07,qs),
(576.106,1348.73,o),
(688.206,1348.73,qs),
(856.797,1348.73,o),
(996.26,1281.64,qs),
(1171.03,1198.67,o),
(1171.03,1050.38,qs)
);
},
{
closed = 1;
nodes = (
(986.55,348.656,o),
(968.9,391.907,q),
(901.813,376.019,o),
(855.031,332.768,qs),
(800.306,284.221,o),
(800.306,220.668,qs),
(800.306,81.206,o),
(872.685,81.206,qs),
(930.941,81.206,o),
(963.6,160.647,qs),
(986.55,218.903,o),
(986.55,289.517,qs)
);
}
);
width = 1312;
}
);
unicode = 57364;
},
{
glyphname = uniE015;
layers = (
{
layerId = "C9131A5A-EDD4-486F-A7AF-343E1560E480";
shapes = (
{
closed = 1;
nodes = (
(1524.1,32.659,o),
(1443.77,-29.128,qs),
(1374.04,-81.206,o),
(1286.66,-81.206,qs),
(1189.56,-81.206,o),
(1136.6,-41.486,q),
(1093.35,-7.061,o),
(1093.35,43.251,qs),
(1093.35,117.396,o),
(1162.2,117.396,qs),
(1184.27,117.396,o),
(1208.98,105.038,q),
(1250.47,81.206,o),
(1284.89,81.206,qs),
(1321.08,81.206,o),
(1360.8,113.865,o),
(1360.8,127.988,qs),
(1360.8,135.932,o),
(1314.02,177.417,o),
(1284.89,177.417,qs),
(1210.75,177.417,o),
(1138.37,227.73,qs),
(1058.93,285.986,o),
(1050.1,367.192,q),
(999.79,372.488,l),
(1006.85,332.768,o),
(1006.85,289.517,qs),
(1006.85,146.524,o),
(939.768,41.486,qs),
(863.858,-81.206,o),
(729.692,-81.206,qs),
(614.061,-81.206,o),
(551.392,15.888,qs),
(494.9,99.742,o),
(494.9,220.668,qs),
(494.9,396.321,o),
(652.016,496.945,q),
(636.128,496.945,o),
(615.827,496.945,qs),
(531.09,496.945,o),
(531.09,578.151,qs),
(531.09,660.24,o),
(615.827,660.24,qs),
(726.161,660.24,o),
(786.183,695.547,q),
(726.161,731.737,o),
(615.827,731.737,qs),
(531.09,731.737,o),
(531.09,813.825,qs),
(531.09,895.031,o),
(699.681,895.031,o),
(772.06,929.456,qs),
(863.858,972.707,o),
(863.858,1050.38,q),
(864.373,1068.529,o),
(840.026,1093.63,qs),
(750.501,1185.926,o),
(544.33,1185.43,qs),
(380.517,1186.403,o),
(265.405,1124.53,qs),
(239.268,1110.481,o),
(222.154,1109.52,q),
(187.73,1109.52,o),
(140.948,1162.48,o),
(140.948,1196.91,qs),
(140.948,1272.82,o),
(310.422,1316.07,qs),
(433.996,1348.73,o),
(544.33,1348.73,qs),
(712.038,1348.73,o),
(851.501,1281.64,qs),
(1026.27,1198.67,o),
(1026.27,1050.38,qs),
(1026.27,889.735,o),
(907.109,807.647,q),
(960.07,759.1,o),
(960.07,695.547,qs),
(960.07,624.051,o),
(892.986,571.09,q),
(908.875,558.733,o),
(922.115,543.727,q),
(1105.71,524.308,l),
(1178.09,596.688,o),
(1284.89,596.688,qs),
(1375.81,596.688,o),
(1422.59,564.029,qs),
(1462.31,536.666,o),
(1462.31,493.415,qs),
(1462.31,460.756,o),
(1417.29,412.209,o),
(1384.64,412.209,qs),
(1364.33,412.209,o),
(1321.08,434.276,o),
(1286.66,434.276,qs),
(1248.7,434.276,o),
(1210.75,401.617,o),
(1210.75,386.611,qs),
(1210.75,379.55,o),
(1257.53,339.829,o),
(1284.89,339.829,qs),
(1366.1,339.829,o),
(1440.24,281.573,qs),
(1524.1,218.903,o),
(1524.1,127.988,qs)
);
},
{
closed = 1;
nodes = (
(843.557,348.656,o),
(825.903,391.907,q),
(758.82,376.019,o),
(710.273,332.768,qs),
(658.195,284.221,o),
(658.195,220.668,qs),
(658.195,81.206,o),
(729.692,81.206,qs),
(787.948,81.206,o),
(820.607,160.647,qs),
(843.557,220.668,o),
(843.557,289.517,qs)
);
}
);
width = 1665;
}
);
unicode = 57365;
},
{
glyphname = uniE016;
layers = (
{
layerId = "C9131A5A-EDD4-486F-A7AF-343E1560E480";
shapes = (
{
closed = 1;
nodes = (
(1648.56,907.389,o),
(1555.87,804.116,qs),
(1486.14,724.675,o),
(1384.64,684.955,q),
(1367.87,679.659,o),
(1351.98,679.659,qs),
(1317.55,679.659,o),
(1272.54,729.971,o),
(1272.54,764.396,qs),
(1272.54,817.356,o),
(1324.61,836.775,qs),
(1391,862.982,o),
(1434.949,912.685,qs),
(1485.448,969.795,o),
(1486.139,1041.56,qs),
(1486.139,1117.47,o),
(1371.399,1185.43,o),
(1239.879,1185.43,qs),
(1205.449,1185.43,o),
(1151.609,1147.48,o),
(1151.609,1129.82,qs),
(1151.609,1084.81,o),
(1238.109,1084.81,qs),
(1319.319,1084.81,o),
(1319.319,1003.6,qs),
(1319.319,921.512,o),
(1238.109,921.512,qs),
(1088.059,921.512,o),
(1024.499,1010.66,q),
(1008.619,876.495,o),
(907.108,807.647,q),
(960.069,759.1,o),
(960.069,695.547,qs),
(960.069,624.051,o),
(892.985,571.09,q),
(1006.849,475.761,o),
(1006.849,289.517,qs),
(1006.849,146.524,o),
(939.767,41.486,qs),
(863.857,-81.206,o),
(729.691,-81.206,qs),
(614.06,-81.206,o),
(551.391,15.888,qs),
(494.899,99.742,o),
(494.899,220.668,qs),
(494.899,396.321,o),
(652.015,496.945,q),
(636.127,496.945,o),
(615.826,496.945,qs),
(531.089,496.945,o),
(531.089,578.151,qs),
(531.089,660.24,o),
(615.826,660.24,qs),
(726.16,660.24,o),
(786.182,695.547,q),
(726.16,731.737,o),
(615.826,731.737,qs),
(531.089,731.737,o),
(531.089,813.825,qs),
(531.089,895.031,o),
(699.68,895.031,o),
(772.059,929.456,qs),
(863.857,972.707,o),
(863.857,1050.38,q),
(864.372,1068.529,o),
(840.025,1093.63,qs),
(750.501,1185.926,o),
(544.329,1185.43,qs),
(380.517,1186.403,o),
(265.404,1124.53,qs),
(239.267,1110.481,o),
(222.153,1109.52,q),
(187.729,1109.52,o),
(140.947,1162.48,o),
(140.947,1196.91,qs),
(140.947,1272.82,o),
(310.421,1316.07,qs),
(433.995,1348.73,o),
(544.329,1348.73,qs),
(670.552,1348.73,o),
(789.713,1307.24,qs),
(934.471,1257.81,o),
(991.849,1167.78,q),
(1008.619,1259.58,o),
(1102.179,1310.77,qs),
(1172.789,1348.73,o),
(1239.879,1348.73,qs),
(1648.559,1348.73,o),
(1648.56,1041.56,qs)
);
},
{
closed = 1;
nodes = (
(843.557,348.656,o),
(825.903,391.907,q),
(758.82,376.019,o),
(710.273,332.768,qs),
(658.195,284.221,o),
(658.195,220.668,qs),
(658.195,81.206,o),
(729.692,81.206,qs),
(787.948,81.206,o),
(820.607,160.647,qs),
(843.557,220.668,o),
(843.557,289.517,qs)
);
}
);
width = 1789;
}
);
unicode = 57366;
},
{
glyphname = uniE017;
layers = (
{
layerId = "C9131A5A-EDD4-486F-A7AF-343E1560E480";
shapes = (
{
closed = 1;
nodes = (
(1415.53,117.396,o),
(1254,-55.609,qs),
(1229.29,-82.971,o),
(1194.86,-82.971,qs),
(1162.2,-82.971,o),
(1111.89,-32.659,o),
(1111.89,0,qs),
(1111.89,27.363,o),
(1140.14,63.553,q),
(1163.97,90.033,o),
(1187.8,117.396,q),
(1053.63,124.457,o),
(1003.32,236.557,q),
(990.08,106.804,o),
(925.645,20.301,qs),
(851.501,-81.206,o),
(729.692,-81.206,qs),
(614.061,-81.206,o),
(551.392,15.888,qs),
(494.9,99.742,o),
(494.9,220.668,qs),
(494.9,396.321,o),
(652.016,496.945,q),
(636.128,496.945,o),
(615.827,496.945,qs),
(531.09,496.945,o),
(531.09,578.151,qs),
(531.09,660.24,o),
(615.827,660.24,qs),
(726.161,660.24,o),
(786.183,695.547,q),
(726.161,731.737,o),
(615.827,731.737,qs),
(531.09,731.737,o),
(531.09,813.825,qs),
(531.09,895.031,o),
(699.681,895.031,o),
(772.06,929.456,qs),
(863.858,972.707,o),
(863.858,1050.38,q),
(864.373,1068.529,o),
(840.026,1093.63,qs),
(750.502,1185.926,o),
(544.33,1185.43,qs),
(380.517,1186.403,o),
(265.405,1124.53,qs),
(239.268,1110.481,o),
(222.154,1109.52,q),
(187.73,1109.52,o),
(140.948,1162.48,o),
(140.948,1196.91,qs),
(140.948,1272.82,o),
(310.422,1316.07,qs),
(433.996,1348.73,o),
(544.33,1348.73,qs),
(712.038,1348.73,o),
(851.501,1281.64,qs),
(1026.27,1198.67,o),
(1026.27,1050.38,qs),
(1026.27,889.735,o),
(907.109,807.647,q),
(960.07,759.1,o),
(960.07,695.547,qs),
(960.07,624.051,o),
(892.986,571.09,q),
(975.96,500.476,o),
(998.02,379.55,q),
(1020.97,439.572,o),
(1134.84,513.716,o),
(1201.92,513.716,qs),
(1286.66,513.716,o),
(1415.53,401.617,o),
(1415.53,314.232,qs)
);
},
{
closed = 1;
nodes = (
(1252.23,350.422,o),
(1201.92,350.422,qs),
(1149.84,350.422,o),
(1149.84,314.232,qs),
(1149.84,279.808,o),
(1201.92,279.808,qs),
(1252.23,279.808,o),
(1252.23,314.232,qs)
);
},
{
closed = 1;
nodes = (
(843.557,348.656,o),
(825.903,391.907,q),
(758.82,376.019,o),
(710.273,332.768,qs),
(658.195,284.221,o),
(658.195,220.668,qs),
(658.195,81.206,o),
(729.692,81.206,qs),
(787.948,81.206,o),
(820.607,160.647,qs),
(843.557,220.668,o),
(843.557,289.517,qs)
);
}
);
width = 1556;
}
);
unicode = 57367;
},
{
glyphname = uniE018;
layers = (
{
layerId = "C9131A5A-EDD4-486F-A7AF-343E1560E480";
shapes = (
{
closed = 1;
nodes = (
(1028.04,43.251,o),
(986.55,15.888,qs),
(970.66,5.296,o),
(929.176,-14.123,qs),
(786.183,-81.206,o),
(584.051,-81.206,qs),
(424.287,-81.206,o),
(306.891,-36.19,qs),
(140.948,25.597,o),
(140.948,155.351,qs),
(140.948,262.154,o),
(328.958,334.533,qs),
(501.962,399.851,o),
(675.849,466.052,q),
(863.858,562.263,o),
(863.858,722.91,qs),
(863.858,824.418,l),
(303.36,824.418,l),
(303.36,719.379,o),
(301.595,707.022,q),
(287.472,641.704,o),
(222.154,641.704,qs),
(140.948,641.704,o),
(140.948,722.91,qs),
(140.948,905.624,ls),
(140.948,1081.28,o),
(408.398,1348.73,o),
(585.816,1348.73,qs),
(760.585,1348.73,o),
(1026.27,1081.28,o),
(1026.27,905.624,qs),
(1026.27,722.91,ls),
(1026.27,576.386,o),
(923.88,453.694,qs),
(829.327,341.874,o),
(684.675,285.986,qs),
(673.972,281.851,o),
(493.135,225.965,qs),
(377.505,191.54,o),
(310.422,144.759,q),
(339.55,113.865,o),
(439.292,96.211,qs),
(518.733,81.206,o),
(584.051,81.206,qs),
(760.585,81.206,o),
(903.579,157.116,q),
(927.411,167.708,o),
(946.83,167.708,qs),
(979.49,167.708,o),
(1028.04,117.396,o),
(1028.04,82.971,qs)
);
},
{
closed = 1;
nodes = (
(851.501,986.83,l),
(822.372,1069.8,o),
(670.553,1185.43,o),
(585.816,1185.43,qs),
(496.666,1185.43,o),
(344.846,1069.8,o),
(318.366,986.83,q)
);
}
);
width = 1169;
}
);
unicode = 57368;
},
{
glyphname = uniE019;
layers = (
{
layerId = "C9131A5A-EDD4-486F-A7AF-343E1560E480";
shapes = (
{
closed = 1;
nodes = (
(1205.45,43.251,o),
(1163.97,15.888,qs),
(1013.91,-81.206,o),
(762.351,-81.206,qs),
(603.469,-81.206,o),
(486.074,-36.19,qs),
(320.131,25.597,o),
(320.131,155.351,qs),
(320.131,262.154,o),
(508.141,334.533,q),
(685.28,389.871,o),
(855.031,466.052,qs),
(1047.713,552.524,o),
(1043.04,722.91,q),
(1043.04,824.418,l),
(482.543,824.418,l),
(482.543,722.91,ls),
(482.543,616.106,o),
(328.958,462.521,o),
(222.154,462.521,qs),
(140.948,462.521,o),
(140.948,543.727,qs),
(140.948,625.816,o),
(222.154,625.816,qs),
(261.875,625.816,o),
(320.131,683.19,o),
(320.131,722.91,qs),
(320.131,762.63,o),
(261.875,820.887,o),
(222.154,820.887,qs),
(140.948,820.887,o),
(140.948,902.093,qs),
(140.948,983.299,o),
(222.154,983.299,qs),
(274.232,983.299,o),
(323.662,963.88,q),
(346.611,1121,o),
(603.469,1348.73,o),
(762.351,1348.73,qs),
(939.768,1348.73,o),
(1205.45,1081.28,o),
(1205.45,905.624,qs),
(1205.45,722.91,ls),
(1205.45,576.386,o),
(1102.18,453.694,qs),
(1008.62,341.595,o),
(863.858,285.986,q),
(853.266,281.573,o),
(672.318,225.965,qs),
(554.922,191.54,o),
(489.604,144.759,q),
(516.967,113.865,o),
(617.592,96.211,qs),
(697.915,81.206,o),
(762.351,81.206,qs),
(939.768,81.206,o),
(1082.76,157.116,q),
(1105.71,167.708,o),
(1126.01,167.708,qs),
(1158.67,167.708,o),
(1205.45,117.396,o),
(1205.45,82.971,qs)
);
},
{
closed = 1;
nodes = (
(1028.04,986.83,l),
(1001.56,1069.8,o),
(849.735,1185.43,o),
(764.116,1185.43,qs),
(675.849,1185.43,o),
(524.029,1069.8,o),
(494.9,986.83,q)
);
}
);
width = 1346;
}
);
unicode = 57369;
},
{
glyphname = uniE01A;
layers = (
{
layerId = "C9131A5A-EDD4-486F-A7AF-343E1560E480";
shapes = (
{
closed = 1;
nodes = (
(1412,819.121,o),
(1310.49,677.894,o),
(1231.05,645.235,qs),
(1212.51,638.173,o),
(1196.63,638.173,qs),
(1163.97,638.173,o),
(1117.19,688.486,o),
(1117.19,722.91,qs),
(1117.19,764.396,o),
(1181.62,804.116,o),
(1212.51,824.418,q),
(1026.27,824.418,l),
(1026.27,722.91,ls),
(1026.27,576.386,o),
(923.88,453.694,qs),
(829.434,341.595,o),
(684.675,285.986,q),
(674.083,281.573,o),
(493.135,225.965,qs),
(375.739,191.54,o),
(310.422,144.759,q),
(337.784,113.865,o),
(439.292,96.212,qs),
(518.733,81.206,o),
(584.051,81.206,qs),
(759.857,82.594,o),
(903.579,157.116,qs),
(926.731,169.121,o),
(946.83,167.708,q),
(979.49,167.708,o),
(1028.04,117.396,o),
(1028.04,82.971,qs),
(1028.04,43.251,o),
(986.55,15.888,qs),
(836.495,-81.206,o),
(584.051,-81.206,qs),
(424.287,-81.206,o),
(306.891,-36.19,qs),
(140.948,25.598,o),
(140.948,155.351,qs),
(140.948,262.154,o),
(328.958,334.533,q),
(506.097,389.871,o),
(675.849,466.052,qs),
(868.531,552.524,o),
(863.858,722.91,q),
(863.858,824.418,l),
(303.36,824.418,l),
(303.36,719.379,o),
(301.595,707.022,q),
(287.472,641.704,o),
(222.154,641.704,qs),
(140.948,641.704,o),
(140.948,722.91,qs),
(140.948,905.624,ls),
(140.948,1081.28,o),
(408.398,1348.73,o),
(585.816,1348.73,qs),
(737.636,1348.73,o),
(988.32,1136.88,o),
(1019.21,986.83,q),
(1212.51,986.83,l),
(1181.62,1005.37,o),
(1117.19,1045.09,o),
(1117.19,1086.57,qs),
(1117.19,1121,o),
(1163.97,1171.31,o),
(1196.63,1171.31,qs),
(1212.51,1171.31,o),
(1231.05,1164.25,qs),
(1310.49,1133.35,o),
(1412,990.36,o),
(1412,905.624,qs)
);
},
{
closed = 1;
nodes = (
(851.501,986.83,l),
(822.372,1071.57,o),
(668.787,1185.43,o),
(585.816,1185.43,qs),
(498.431,1185.43,o),
(346.611,1071.57,o),
(318.366,986.83,q)
);
}
);
width = 1552;
}
);
unicode = 57370;
},
{
glyphname = uniE01B;
layers = (
{
layerId = "C9131A5A-EDD4-486F-A7AF-343E1560E480";
shapes = (
{
closed = 1;
nodes = (
(1377.57,43.251,o),
(1336.09,15.888,qs),
(1187.8,-81.206,o),
(932.707,-81.206,qs),
(805.602,-81.206,o),
(699.681,-50.312,qs),
(556.688,-8.827,o),
(509.906,74.145,q),
(339.55,74.145,l),
(370.443,55.608,o),
(435.761,14.123,o),
(435.761,-25.598,qs),
(435.761,-60.022,o),
(389.862,-110.334,o),
(356.321,-110.334,qs),
(339.55,-110.334,o),
(323.662,-103.273,q),
(241.573,-72.379,o),
(140.948,70.614,o),
(140.948,155.351,qs),
(140.948,241.853,o),
(241.573,383.081,o),
(323.662,415.739,q),
(339.55,422.801,o),
(356.321,422.801,qs),
(389.862,422.801,o),
(435.761,370.723,o),
(435.761,338.064,qs),
(435.761,296.578,o),
(370.443,256.858,o),
(339.55,236.557,q),
(518.733,236.557,l),
(570.81,301.875,o),
(760.585,365.427,qs),
(996.26,444.868,o),
(1064.23,486.353,qs),
(1212.51,576.386,o),
(1212.51,722.91,qs),
(1212.51,824.418,l),
(652.016,824.418,l),
(652.016,719.379,o),
(650.251,707.022,q),
(636.128,641.704,o),
(570.81,641.704,qs),
(489.604,641.704,o),
(489.604,722.91,qs),
(489.604,905.624,ls),
(489.604,1081.28,o),
(757.055,1348.73,o),
(934.472,1348.73,qs),
(1110.12,1348.73,o),
(1375.81,1081.28,o),
(1375.81,905.624,qs),
(1375.81,722.91,ls),
(1375.81,576.386,o),
(1272.54,453.694,qs),
(1178.09,341.595,o),
(1034.21,285.986,q),
(1024.5,281.573,o),
(841.791,225.965,qs),
(726.161,191.54,o),
(659.96,144.759,q),
(686.441,113.865,o),
(789.714,96.211,qs),
(869.154,81.206,o),
(932.707,81.206,qs),
(1109.421,82.545,o),
(1254,157.116,qs),
(1277.177,169.07,o),
(1295.49,167.708,q),
(1329.91,167.708,o),
(1377.57,117.396,o),
(1377.57,82.971,qs)
);
},
{
closed = 1;
nodes = (
(1200.16,986.83,l),
(1171.03,1069.8,o),
(1020.97,1185.43,o),
(934.472,1185.43,qs),
(847.97,1185.43,o),
(696.15,1069.8,o),
(667.022,986.83,q)
);
}
);
width = 1518;
}
);
unicode = 57371;
},
{
glyphname = uniE01C;
layers = (
{
layerId = "C9131A5A-EDD4-486F-A7AF-343E1560E480";
shapes = (
{
closed = 1;
nodes = (
(1324.979,30.257,o),
(1303.43,3.531,qs),
(1231.825,-83.614,o),
(1110.12,-82.971,q),
(1006.85,-82.971,o),
(932.707,-12.357,q),
(786.183,-81.206,o),
(584.051,-81.206,qs),
(424.287,-81.206,o),
(306.891,-36.19,qs),
(140.948,25.597,o),
(140.948,155.351,qs),
(140.948,262.154,o),
(328.958,334.533,qs),
(501.962,399.851,o),
(675.849,466.052,q),
(863.858,562.263,o),
(863.858,722.91,qs),
(863.858,824.418,l),
(302.36,824.418,l),
(301.543,719.261,o),
(301.595,707.022,qs),
(301.87,642.164,o),
(222.154,641.704,qs),
(140.948,641.235,o),
(140.948,722.91,qs),
(140.948,905.624,ls),
(140.948,1081.28,o),
(408.398,1348.73,o),
(585.816,1348.73,qs),
(760.585,1348.73,o),
(1026.27,1081.28,o),
(1026.27,905.624,qs),
(1026.27,722.91,ls),
(1026.27,576.386,o),
(923.88,453.694,qs),
(829.434,341.595,o),
(684.675,285.986,q),
(675.849,281.573,o),
(493.135,225.965,qs),
(375.739,191.54,o),
(310.422,144.759,q),
(337.784,113.865,o),
(439.292,96.212,qs),
(518.733,81.206,o),
(584.051,81.206,qs),
(746.463,81.206,o),
(853.266,129.753,q),
(849.735,153.585,o),
(849.735,177.417,qs),
(849.735,285.986,o),
(1003.32,437.806,o),
(1110.12,437.806,qs),
(1191.33,437.806,o),
(1191.33,355.718,qs),
(1191.33,274.512,o),
(1110.12,274.512,qs),
(1069.52,274.512,o),
(1012.15,217.138,o),
(1012.15,177.417,qs),
(1012.15,137.697,o),
(1069.52,79.441,o),
(1110.12,79.441,qs),
(1145.43,79.441,o),
(1212.51,141.228,o),
(1241.64,141.228,qs),
(1274.3,141.228,o),
(1324.191,90.03,o),
(1324.61,58.257,qs)
);
},
{
closed = 1;
nodes = (
(851.501,986.83,l),
(822.372,1069.8,o),
(670.553,1185.43,o),
(585.816,1185.43,qs),
(496.666,1185.43,o),
(344.846,1069.8,o),
(318.366,986.83,q)
);
}
);
width = 1465;
}
);
unicode = 57372;
},
{
glyphname = uniE01D;
layers = (
{
layerId = "C9131A5A-EDD4-486F-A7AF-343E1560E480";
shapes = (
{
closed = 1;
nodes = (
(1462.31,835.01,o),
(1440.24,807.647,qs),
(1369.63,722.91,o),
(1246.94,722.91,qs),
(1102.18,722.91,o),
(1026.27,843.836,q),
(1026.27,722.91,ls),
(1026.27,576.386,o),
(923.88,453.694,qs),
(829.327,341.874,o),
(684.675,285.986,qs),
(673.972,281.851,o),
(493.135,225.965,qs),
(375.739,191.54,o),
(310.422,144.759,q),
(337.784,113.865,o),
(439.292,96.212,qs),
(518.733,81.206,o),
(584.051,81.206,qs),
(759.857,82.594,o),
(903.579,157.116,qs),
(926.732,169.121,o),
(946.83,167.708,q),
(979.49,167.708,o),
(1028.04,117.396,o),
(1028.04,82.971,qs),
(1028.04,43.251,o),
(986.55,15.888,qs),
(836.495,-81.206,o),
(584.051,-81.206,qs),
(424.287,-81.206,o),
(306.891,-36.19,qs),
(140.948,25.597,o),
(140.948,155.351,qs),
(140.948,262.154,o),
(328.958,334.533,qs),
(501.962,399.851,o),
(675.849,466.052,q),
(863.858,562.263,o),
(863.858,722.91,qs),
(863.858,824.418,l),
(302.36,824.418,l),
(301.543,719.261,o),
(301.595,707.022,qs),
(301.87,642.164,o),
(222.154,641.704,qs),
(140.948,641.235,o),
(140.948,722.91,qs),
(140.948,905.624,ls),
(140.948,1081.28,o),
(408.398,1348.73,o),
(585.816,1348.73,qs),
(717.334,1348.73,o),
(948.595,1183.67,o),
(998.02,1057.44,q),
(1022.74,1138.65,o),
(1160.44,1241.92,o),
(1246.94,1241.92,qs),
(1328.14,1241.92,o),
(1328.14,1160.72,qs),
(1328.14,1079.51,o),
(1246.94,1079.51,qs),
(1207.22,1079.51,o),
(1149.84,1023.02,o),
(1149.84,981.533,qs),
(1149.84,941.813,o),
(1207.22,886.205,o),
(1246.94,886.205,qs),
(1283.13,886.205,o),
(1350.21,945.344,o),
(1379.34,945.344,qs),
(1412,945.344,o),
(1462.31,895.031,o),
(1462.31,862.372,qs)
);
},
{
closed = 1;
nodes = (
(851.501,986.83,l),
(822.372,1069.8,o),
(670.553,1185.43,o),
(585.816,1185.43,qs),
(496.666,1185.43,o),
(344.846,1069.8,o),
(318.366,986.83,q)
);
}
);
width = 1603;
}
);
unicode = 57373;
},
{
glyphname = uniE01E;
layers = (
{
layerId = "C9131A5A-EDD4-486F-A7AF-343E1560E480";
shapes = (
{
closed = 1;
nodes = (
(1422.59,32.659,o),
(1324.61,-14.123,qs),
(1179.86,-81.206,o),
(979.49,-81.206,qs),
(820.607,-81.206,o),
(703.212,-36.19,qs),
(536.386,25.597,o),
(536.386,155.351,qs),
(536.386,262.154,o),
(724.396,334.533,qs),
(898.282,399.851,o),
(1072.17,466.052,q),
(1260.18,562.263,o),
(1260.18,722.91,qs),
(1260.18,824.418,l),
(699.681,824.418,l),
(699.681,719.379,o),
(696.15,707.022,q),
(682.91,641.704,o),
(617.592,641.704,qs),
(553.157,641.704,o),
(538.151,707.022,q),
(536.386,719.379,o),
(536.386,824.418,q),
(401.337,824.418,ls),
(361.617,824.418,o),
(303.36,766.161,o),
(303.36,726.441,qs),
(303.36,684.955,o),
(361.617,629.347,o),
(401.337,629.347,qs),
(482.543,629.347,o),
(482.543,548.141,qs),
(482.543,466.052,o),
(401.337,466.052,qs),
(294.533,466.052,o),
(140.948,617.872,o),
(140.948,726.441,qs),
(140.948,833.244,o),
(294.533,986.83,o),
(401.337,986.83,qs),
(544.33,986.83,l),
(576.106,1138.65,o),
(825.903,1348.73,o),
(979.49,1348.73,qs),
(1156.91,1348.73,o),
(1422.59,1081.28,o),
(1422.59,905.624,qs),
(1422.59,722.91,ls),
(1422.59,576.386,o),
(1319.32,453.694,qs),
(1225.75,341.595,o),
(1081,285.986,qs),
(1065.99,279.808,o),
(889.456,225.965,qs),
(773.825,191.54,o),
(706.742,144.759,q),
(737.636,113.865,o),
(834.73,96.211,qs),
(912.405,81.206,o),
(979.49,81.206,qs),
(1147.476,82.426,o),
(1299.9,157.116,qs),
(1324.042,168.946,o),
(1343.15,167.708,q),
(1375.81,167.708,o),
(1422.59,117.396,o),
(1422.59,82.971,qs)
);
},
{
closed = 1;
nodes = (
(1245.17,986.83,l),
(1216.05,1069.8,o),
(1067.76,1185.43,o),
(981.25,1185.43,qs),
(892.986,1185.43,o),
(742.932,1069.8,o),
(713.804,986.83,q)
);
}
);
width = 1563;
}
);
unicode = 57374;
},
{
glyphname = uniE01F;
layers = (
{
layerId = "C9131A5A-EDD4-486F-A7AF-343E1560E480";
shapes = (
{
closed = 1;
nodes = (
(1728,813.825,o),
(1660.91,762.63,qs),
(1601.77,717.614,o),
(1503.8,717.614,qs),
(1415.53,717.614,o),
(1322.85,786.463,q),
(1274.3,721.145,o),
(1245.17,662.005,qs),
(1223.99,616.106,o),
(1174.56,616.106,qs),
(1141.9,616.106,o),
(1089.82,662.005,o),
(1089.82,695.547,qs),
(1089.82,728.206,o),
(1149.84,824.418,q),
(1026.27,824.418,l),
(1026.27,722.91,ls),
(1026.27,571.09,o),
(917.701,446.633,qs),
(824.149,339.802,o),
(686.441,285.986,qs),
(670.563,279.781,o),
(493.135,225.965,qs),
(373.974,189.775,o),
(310.422,144.759,q),
(336.019,113.865,o),
(441.057,96.211,qs),
(520.498,81.206,o),
(584.051,81.206,qs),
(772.965,82.696,o),
(903.579,157.116,qs),
(924.846,169.233,o),
(946.83,167.708,q),
(979.49,167.708,o),
(1028.04,117.396,o),
(1028.04,82.971,qs),
(1028.04,39.72,o),
(986.55,15.888,qs),
(818.842,-81.206,o),
(584.051,-81.206,qs),
(427.817,-81.206,o),
(308.656,-37.955,qs),
(140.948,25.597,o),
(140.948,155.351,qs),
(140.948,262.154,o),
(328.958,334.533,qs),
(501.962,399.851,o),
(675.849,464.287,q),
(863.858,560.498,o),
(863.858,722.91,qs),
(863.858,824.418,l),
(303.36,824.418,l),
(303.36,722.91,ls),
(303.36,641.704,o),
(222.154,641.704,qs),
(140.948,641.704,o),
(140.948,722.91,qs),
(140.948,905.624,ls),
(140.948,1081.28,o),
(408.398,1348.73,o),
(585.816,1348.73,qs),
(739.401,1348.73,o),
(986.55,1136.88,o),
(1017.44,986.83,q),
(1149.84,986.83,l),
(1089.82,1081.28,o),
(1089.82,1113.93,qs),
(1089.82,1147.48,o),
(1141.9,1193.38,o),
(1174.56,1193.38,qs),
(1223.99,1193.38,o),
(1245.17,1147.48,qs),
(1274.3,1088.34,o),
(1322.85,1023.02,q),
(1415.53,1091.87,o),
(1503.8,1091.87,qs),
(1601.77,1091.87,o),
(1660.91,1046.85,qs),
(1728,995.656,o),
(1728,903.858,qs)
);
},
{
closed = 1;
nodes = (
(1565.58,912.685,o),
(1563.82,916.216,q),
(1543.52,929.456,o),
(1503.8,929.456,qs),
(1472.9,929.456,o),
(1434.95,903.858,q),
(1472.9,880.026,o),
(1503.8,880.026,qs),
(1545.28,880.026,o),
(1562.05,891.501,q),
(1565.58,896.797,o),
(1565.58,903.858,qs)
);
},
{
closed = 1;
nodes = (
(849.735,986.83,l),
(820.607,1069.8,o),
(670.553,1185.43,o),
(585.816,1185.43,qs),
(496.666,1185.43,o),
(346.611,1069.8,o),
(318.366,986.83,q)
);
}
);
width = 1868;
}
);
unicode = 57375;
},
{
glyphname = uniE020;
layers = (
{
layerId = "C9131A5A-EDD4-486F-A7AF-343E1560E480";
shapes = (
{
closed = 1;
nodes = (
(1449.95,43.251,o),
(1407.59,15.888,qs),
(1391.7,5.296,o),
(1350.21,-14.123,qs),
(1207.22,-81.206,o),
(1005.09,-81.206,q),
(884.554,-79.772,o),
(780.887,-52.078,qs),
(640.035,-14.45,o),
(589.347,63.553,q),
(516.967,-81.206,o),
(356.321,-81.206,qs),
(236.277,-81.206,o),
(162.132,3.531,q),
(140.948,30.894,o),
(140.948,58.257,qs),
(140.948,91.798,o),
(191.261,141.228,o),
(223.92,141.228,qs),
(253.048,141.228,o),
(320.131,81.206,o),
(356.321,81.206,qs),
(396.041,81.206,o),
(453.415,139.462,o),
(453.415,179.183,qs),
(453.415,218.903,o),
(396.041,276.277,o),
(356.321,276.277,qs),
(274.232,276.277,o),
(274.232,358.366,qs),
(274.232,439.572,o),
(356.321,439.572,qs),
(442.823,439.572,o),
(579.637,334.533,o),
(605.235,253.327,q),
(661.726,307.171,o),
(851.501,370.723,qs),
(1067.76,443.102,o),
(1143.67,491.649,qs),
(1284.89,579.917,o),
(1284.89,722.91,qs),
(1284.89,824.418,l),
(724.396,824.418,l),
(724.396,722.91,ls),
(724.396,641.704,o),
(643.19,641.704,qs),
(561.984,641.704,o),
(561.984,722.91,qs),
(561.984,905.624,ls),
(561.984,1081.28,o),
(829.434,1348.73,o),
(1006.85,1348.73,qs),
(1181.62,1348.73,o),
(1448.19,1081.28,o),
(1448.19,905.624,qs),
(1448.19,722.91,ls),
(1448.19,576.386,o),
(1344.92,453.694,qs),
(1250.362,341.875,o),
(1105.71,285.986,qs),
(1095.008,281.851,o),
(914.171,225.965,qs),
(798.54,191.54,o),
(731.457,144.759,q),
(760.585,113.865,o),
(860.327,96.212,qs),
(939.768,81.206,o),
(1005.09,81.206,qs),
(1180.89,82.597,o),
(1324.61,157.116,qs),
(1347.769,169.124,o),
(1367.87,167.708,q),
(1400.52,167.708,o),
(1449.95,117.396,o),
(1449.95,82.971,qs)
);
},
{
closed = 1;
nodes = (
(1270.77,986.83,l),
(1241.64,1069.8,o),
(1093.35,1185.43,o),
(1006.85,1185.43,qs),
(917.701,1185.43,o),
(767.647,1069.8,o),
(739.401,986.83,q)
);
}
);
width = 1590;
}
);
unicode = 57376;
},
{
glyphname = uniE021;
layers = (
{
layerId = "C9131A5A-EDD4-486F-A7AF-343E1560E480";
shapes = (
{
closed = 1;
nodes = (
(1465.84,-20.301,o),
(1321.08,-137.697,o),
(1227.52,-137.697,qs),
(1156.3,-138.962,o),
(1102.18,-112.1,qs),
(1035.344,-78.927,o),
(1035.98,-12.357,qs),
(1035.98,61.787,o),
(1102.18,61.787,qs),
(1124.25,61.787,o),
(1200.16,25.598,o),
(1227.52,25.598,qs),
(1250.47,25.598,o),
(1303.43,50.312,o),
(1303.43,72.379,qs),
(1303.43,86.502,o),
(1243.41,119.161,o),
(1227.52,119.161,qs),
(1176.32,119.161,o),
(1120.72,148.289,q),
(1037.74,37.955,o),
(877.981,-23.832,qs),
(734.105,-81.206,o),
(584.051,-81.206,qs),
(424.287,-81.206,o),
(306.891,-36.19,qs),
(140.948,25.598,o),
(140.948,155.351,qs),
(140.948,262.154,o),
(328.958,334.533,qs),
(501.962,399.851,o),
(675.849,466.052,q),
(863.858,562.263,o),
(863.858,722.91,qs),
(863.858,824.418,l),
(302.36,824.418,l),
(301.543,719.261,o),
(301.595,707.022,qs),
(301.869,642.165,o),
(222.154,641.704,qs),
(140.948,641.235,o),
(140.948,722.91,qs),
(140.948,905.624,ls),
(140.948,1081.28,o),
(408.398,1348.73,o),
(585.816,1348.73,qs),
(760.585,1348.73,o),
(1026.27,1081.28,o),
(1026.27,905.624,qs),
(1026.27,722.91,ls),
(1026.27,576.386,o),
(923.88,453.694,qs),
(829.11,342.432,o),
(684.675,285.986,qs),
(675.484,282.394,o),
(493.135,225.965,qs),
(375.739,191.54,o),
(310.422,144.759,q),
(337.784,113.865,o),
(439.292,96.212,qs),
(518.733,81.206,o),
(584.051,81.206,qs),
(697.915,81.206,o),
(817.076,126.222,qs),
(952.126,179.183,o),
(1005.09,263.92,q),
(990.08,294.813,o),
(990.08,331.003,qs),
(990.08,421.035,o),
(1064.23,482.823,qs),
(1133.07,540.196,o),
(1227.52,540.196,qs),
(1402.29,540.196,o),
(1402.29,437.806,qs),
(1402.29,405.147,o),
(1357.27,355.718,o),
(1326.38,355.718,qs),
(1310.49,355.718,o),
(1252.23,377.784,o),
(1227.52,377.784,qs),
(1203.438,378.293,o),
(1181.62,367.192,qs),
(1153.118,352.691,o),
(1153.38,331.003,qs),
(1153.38,315.997,o),
(1212.51,281.573,o),
(1227.52,281.573,qs),
(1314.02,281.573,o),
(1465.84,157.116,o),
(1465.84,72.379,qs)
);
},
{
closed = 1;
nodes = (
(851.501,986.83,l),
(822.372,1069.8,o),
(670.553,1185.43,o),
(585.816,1185.43,qs),
(496.666,1185.43,o),
(344.846,1069.8,o),
(318.366,986.83,q)
);
}
);
width = 1606;
}
);
unicode = 57377;
},
{
glyphname = uniE022;
layers = (
{
layerId = "C9131A5A-EDD4-486F-A7AF-343E1560E480";
shapes = (
{
closed = 1;
nodes = (
(1615.9,921.512,o),
(1465.84,726.441,o),
(1351.98,684.955,q),
(1333.44,679.659,o),
(1319.32,679.659,qs),
(1284.89,679.659,o),
(1239.88,729.971,o),
(1239.88,764.396,qs),
(1239.88,813.825,o),
(1291.96,836.775,qs),
(1453.48,910.92,o),
(1453.48,1041.56,qs),
(1453.48,1131.59,o),
(1369.63,1164.25,qs),
(1317.55,1185.43,o),
(1207.22,1185.43,qs),
(1181.62,1185.43,o),
(1153.38,1169.54,q),
(1118.95,1153.65,o),
(1118.95,1129.82,qs),
(1118.95,1084.81,o),
(1205.45,1084.81,qs),
(1286.66,1084.81,o),
(1286.66,1003.6,qs),
(1286.66,921.512,o),
(1205.45,921.512,qs),
(1086.29,921.512,o),
(1019.21,979.768,q),
(1026.27,941.813,o),
(1026.27,905.624,qs),
(1026.27,722.91,ls),
(1026.27,576.386,o),
(923.88,453.694,qs),
(829.434,341.595,o),
(684.675,285.986,q),
(674.083,281.573,o),
(493.135,225.965,qs),
(377.505,191.54,o),
(310.422,144.759,q),
(339.55,113.865,o),
(439.292,96.212,qs),
(518.733,81.206,o),
(584.051,81.206,qs),
(760.585,81.206,o),
(903.579,157.116,q),
(927.411,167.708,o),
(946.83,167.708,qs),
(979.49,167.708,o),
(1028.04,117.396,o),
(1028.04,82.971,qs),
(1028.04,43.251,o),
(986.55,15.888,qs),
(970.66,5.296,o),
(929.176,-14.123,qs),
(786.183,-81.206,o),
(584.051,-81.206,qs),
(424.287,-81.206,o),
(306.891,-36.19,qs),
(140.948,25.598,o),
(140.948,155.351,qs),
(140.948,262.154,o),
(328.958,334.533,qs),
(501.962,399.851,o),
(675.849,466.052,q),
(863.858,562.263,o),
(863.858,722.91,qs),
(863.858,824.418,l),
(303.36,824.418,l),
(303.36,722.91,ls),
(303.36,641.704,o),
(222.154,641.704,qs),
(140.948,641.704,o),
(140.948,722.91,qs),
(140.948,905.624,ls),
(140.948,1081.28,o),
(408.398,1348.73,o),
(585.816,1348.73,qs),
(696.15,1348.73,o),
(798.54,1288.7,qs),
(896.517,1233.1,o),
(958.304,1135.12,q),
(960.07,1227.8,o),
(1039.51,1288.7,q),
(1113.65,1348.73,o),
(1207.22,1348.73,qs),
(1615.9,1348.73,o),
(1615.9,1041.56,q)
);
},
{
closed = 1;
nodes = (
(849.735,986.83,l),
(820.607,1069.8,o),
(672.318,1185.43,o),
(585.816,1185.43,qs),
(496.666,1185.43,o),
(346.611,1069.8,o),
(318.366,986.83,q)
);
}
);
width = 1756;
}
);
unicode = 57378;
},
{
glyphname = uniE023;
layers = (
{
layerId = "C9131A5A-EDD4-486F-A7AF-343E1560E480";
shapes = (
{
closed = 1;
nodes = (
(1355.51,139.462,o),
(1239.88,-3.531,q),
(1225.75,-22.067,o),
(1194.86,-55.609,q),
(1165.73,-82.971,o),
(1134.84,-82.971,qs),
(1102.18,-82.971,o),
(1051.87,-32.659,o),
(1051.87,0,qs),
(1051.87,27.363,o),
(1081,63.553,q),
(1103.95,90.033,o),
(1127.78,117.396,q),
(1089.82,122.692,l),
(999.79,34.424,o),
(712.038,-81.206,o),
(584.051,-81.206,qs),
(424.287,-81.206,o),
(306.891,-36.19,qs),
(140.948,25.598,o),
(140.948,155.351,qs),
(140.948,262.154,o),
(328.958,334.533,qs),
(501.962,399.851,o),
(675.849,466.052,q),
(863.858,562.263,o),
(863.858,722.91,qs),
(863.858,824.418,l),
(303.36,824.418,l),
(303.36,719.379,o),
(301.595,707.022,q),
(287.472,641.704,o),
(222.154,641.704,qs),
(140.948,641.704,o),
(140.948,722.91,qs),
(140.948,905.624,ls),
(140.948,1081.28,o),
(408.398,1348.73,o),
(585.816,1348.73,qs),
(760.585,1348.73,o),
(1026.27,1081.28,o),
(1026.27,905.624,qs),
(1026.27,722.91,ls),
(1026.27,576.386,o),
(923.88,453.694,qs),
(829.434,341.595,o),
(684.675,285.986,q),
(674.083,281.573,o),
(493.135,225.965,qs),
(377.505,191.54,o),
(310.422,144.759,q),
(339.55,113.865,o),
(439.292,96.211,qs),
(518.733,81.206,o),
(584.051,81.206,qs),
(672.318,81.206,o),
(885.925,160.647,o),
(953.891,218.903,q),
(927.411,262.154,o),
(927.411,314.232,qs),
(927.411,399.851,o),
(1055.4,513.716,o),
(1141.9,513.716,qs),
(1227.52,513.716,o),
(1355.51,399.851,o),
(1355.51,314.232,q)
);
},
{
closed = 1;
nodes = (
(851.501,986.83,l),
(822.372,1069.8,o),
(670.553,1185.43,o),
(585.816,1185.43,qs),
(496.666,1185.43,o),
(344.846,1069.8,o),
(318.366,986.83,q)
);
},
{
closed = 1;
nodes = (
(1193.1,350.422,o),
(1141.9,350.422,qs),
(1089.82,350.422,o),
(1089.82,314.232,qs),
(1089.82,279.808,o),
(1141.9,279.808,qs),
(1193.1,279.808,o),
(1193.1,314.232,q)
);
}
);
width = 1496;
}
);
unicode = 57379;
},
{
glyphname = uniE024;
layers = (
{
layerId = "C9131A5A-EDD4-486F-A7AF-343E1560E480";
shapes = (
{
closed = 1;
nodes = (
(1028.04,41.486,o),
(986.55,15.888,qs),
(831.199,-81.206,o),
(584.051,-81.206,qs),
(426.052,-81.206,o),
(306.891,-36.19,qs),
(140.948,25.597,o),
(140.948,155.351,qs),
(140.948,260.389,o),
(337.784,341.595,q),
(482.543,390.142,o),
(627.302,437.806,qs),
(679.379,455.46,o),
(749.993,472.231,q),
(742.932,479.292,o),
(632.598,586.096,qs),
(594.643,622.285,o),
(594.643,657.592,qs),
(594.643,726.441,o),
(686.441,726.441,qs),
(863.858,726.441,l),
(863.858,824.418,l),
(303.36,824.418,l),
(303.36,719.379,o),
(301.595,707.022,q),
(287.472,641.704,o),
(222.154,641.704,qs),
(140.948,641.704,o),
(140.948,722.91,qs),
(140.948,905.624,ls),
(140.948,1081.28,o),
(408.398,1348.73,o),
(585.816,1348.73,qs),
(760.585,1348.73,o),
(1026.27,1081.28,o),
(1026.27,905.624,qs),
(1026.27,645.235,ls),
(1026.27,610.81,o),
(981.25,564.029,o),
(884.16,564.029,q),
(943.299,493.415,o),
(943.299,437.806,qs),
(943.299,348.656,o),
(795.01,314.232,qs),
(429.583,229.495,o),
(310.422,144.759,q),
(344.846,113.865,o),
(441.057,96.211,qs),
(515.202,81.206,o),
(584.051,81.206,qs),
(760.585,81.206,o),
(903.579,157.116,q),
(927.411,167.708,o),
(946.83,167.708,qs),
(979.49,167.708,o),
(1028.04,117.396,o),
(1028.04,82.971,q)
);
},
{
closed = 1;
nodes = (
(851.501,986.83,l),
(822.372,1069.8,o),
(670.553,1185.43,o),
(585.816,1185.43,qs),
(496.666,1185.43,o),
(344.846,1069.8,o),
(318.366,986.83,q)
);
}
);
width = 1169;
}
);
unicode = 57380;
},
{
glyphname = uniE025;
layers = (
{
layerId = "C9131A5A-EDD4-486F-A7AF-343E1560E480";
shapes = (
{
closed = 1;
nodes = (
(1205.45,43.251,o),
(1163.97,15.888,qs),
(1020.97,-81.206,o),
(762.351,-81.206,qs),
(603.469,-81.206,o),
(486.074,-36.19,qs),
(320.131,25.597,o),
(320.131,155.351,qs),
(320.131,229.495,o),
(418.99,293.048,qs),
(491.37,338.064,o),
(625.536,381.315,qs),
(715.569,410.443,o),
(805.602,437.806,q),
(863.858,457.225,o),
(929.176,472.231,q),
(889.456,510.186,o),
(811.78,586.096,qs),
(773.825,624.051,o),
(773.825,657.592,qs),
(773.825,726.441,o),
(865.624,726.441,qs),
(1043.04,726.441,l),
(1043.04,824.418,l),
(482.543,824.418,l),
(482.543,813.825,o),
(482.543,789.993,q),
(484.308,769.692,o),
(484.308,757.334,qs),
(484.308,632.877,o),
(417.225,551.671,qs),
(344.846,462.521,o),
(222.154,462.521,qs),
(140.948,462.521,o),
(140.948,543.727,qs),
(140.948,625.816,o),
(222.154,625.816,qs),
(261.875,625.816,o),
(320.131,683.19,o),
(320.131,722.91,qs),
(320.131,762.63,o),
(261.875,820.887,o),
(222.154,820.887,qs),
(140.948,820.887,o),
(140.948,902.093,qs),
(140.948,983.299,o),
(222.154,983.299,qs),
(274.232,983.299,o),
(323.662,962.115,q),
(346.611,1122.76,o),
(603.469,1348.73,o),
(762.351,1348.73,qs),
(939.768,1348.73,o),
(1205.45,1081.28,o),
(1205.45,905.624,qs),
(1205.45,645.235,ls),
(1205.45,589.626,o),
(1156.91,572.855,q),
(1133.07,564.029,o),
(1062.46,564.029,q),
(1122.48,493.415,o),
(1122.48,437.806,qs),
(1122.48,350.422,o),
(974.19,314.232,qs),
(605.235,225.965,o),
(489.604,144.759,q),
(558.453,81.206,o),
(762.351,81.206,qs),
(930.941,81.206,o),
(1082.76,157.116,q),
(1107.48,167.708,o),
(1126.01,167.708,qs),
(1158.67,167.708,o),
(1205.45,117.396,o),
(1205.45,82.971,q)
);
},
{
closed = 1;
nodes = (
(1028.04,986.83,l),
(1001.56,1069.8,o),
(851.501,1185.43,o),
(764.116,1185.43,qs),
(675.849,1185.43,o),
(524.029,1069.8,o),
(494.9,986.83,q)
);
}
);
width = 1346;
}
);
unicode = 57381;
},
{
glyphname = uniE026;
layers = (
{
layerId = "C9131A5A-EDD4-486F-A7AF-343E1560E480";
shapes = (
{
closed = 1;
nodes = (
(1443.77,819.121,o),
(1343.15,676.128,o),
(1261.94,645.235,qs),
(1243.41,638.173,o),
(1229.29,638.173,qs),
(1194.86,638.173,o),
(1149.84,688.486,o),
(1149.84,722.91,qs),
(1149.84,764.396,o),
(1212.51,804.116,o),
(1245.17,822.652,q),
(1026.27,824.418,l),
(1026.27,645.235,ls),
(1026.27,610.81,o),
(981.25,564.029,o),
(884.16,564.029,q),
(943.299,493.415,o),
(943.299,437.806,qs),
(943.299,348.656,o),
(795.01,314.232,qs),
(429.583,229.495,o),
(310.422,144.759,q),
(344.846,113.865,o),
(441.057,96.212,qs),
(515.202,81.206,o),
(584.051,81.206,qs),
(760.585,81.206,o),
(903.579,157.116,q),
(927.411,167.708,o),
(946.83,167.708,qs),
(979.49,167.708,o),
(1028.04,117.396,o),
(1028.04,82.971,qs),
(1028.04,41.486,o),
(986.55,15.888,qs),
(831.199,-81.206,o),
(584.051,-81.206,qs),
(426.052,-81.206,o),
(306.891,-36.19,qs),
(140.948,25.598,o),
(140.948,155.351,qs),
(140.948,260.389,o),
(337.784,341.595,q),
(482.543,390.142,o),
(627.302,437.806,qs),
(679.379,455.46,o),
(749.993,472.231,q),
(742.932,479.292,o),
(632.598,586.096,qs),
(594.643,622.285,o),
(594.643,657.592,qs),
(594.643,726.441,o),
(686.441,726.441,qs),
(863.858,726.441,l),
(863.858,824.418,l),
(303.36,824.418,l),
(303.36,719.379,o),
(301.595,707.022,q),
(287.472,641.704,o),
(222.154,641.704,qs),
(140.948,641.704,o),
(140.948,722.91,qs),
(140.948,905.624,ls),
(140.948,1081.28,o),
(408.398,1348.73,o),
(585.816,1348.73,qs),
(739.401,1348.73,o),
(986.55,1136.88,o),
(1017.44,986.83,q),
(1245.17,985.064,l),
(1212.51,1005.37,o),
(1149.84,1045.09,o),
(1149.84,1086.57,qs),
(1149.84,1121,o),
(1194.86,1171.31,o),
(1229.29,1171.31,qs),
(1243.41,1171.31,o),
(1261.94,1164.25,qs),
(1343.15,1133.35,o),
(1443.77,990.36,o),
(1443.77,905.624,q)
);
},
{
closed = 1;
nodes = (
(851.501,986.83,l),
(822.372,1069.8,o),
(670.553,1185.43,o),
(585.816,1185.43,qs),
(496.666,1185.43,o),
(344.846,1069.8,o),
(318.366,986.83,q)
);
}
);
width = 1584;
}
);
unicode = 57382;
},
{
glyphname = uniE027;
layers = (
{
layerId = "C9131A5A-EDD4-486F-A7AF-343E1560E480";
shapes = (
{
closed = 1;
nodes = (
(1377.57,43.251,o),
(1336.09,15.888,qs),
(1189.56,-81.206,o),
(932.707,-81.206,qs),
(795.01,-81.206,o),
(682.91,-45.016,qs),
(529.325,1.765,o),
(498.431,103.273,q),
(339.55,103.273,l),
(370.443,82.971,o),
(435.761,43.251,o),
(435.761,1.765,qs),
(435.761,-30.894,o),
(389.862,-82.971,o),
(356.321,-82.971,qs),
(341.315,-82.971,o),
(323.662,-75.91,qs),
(241.573,-45.016,o),
(140.948,99.742,o),
(140.948,184.479,qs),
(140.948,269.216,o),
(241.573,413.974,o),
(323.662,444.868,q),
(341.315,450.164,o),
(356.321,450.164,qs),
(389.862,450.164,o),
(435.761,399.851,o),
(435.761,365.427,qs),
(435.761,325.707,o),
(370.443,284.221,o),
(339.55,265.685,q),
(551.392,265.685,l),
(620.24,322.176,o),
(755.289,368.958,q),
(865.624,403.382,o),
(975.96,437.806,q),
(1031.57,457.225,o),
(1098.65,472.231,q),
(1058.93,510.186,o),
(981.25,586.096,qs),
(943.299,624.051,o),
(943.299,657.592,qs),
(943.299,726.441,o),
(1035.98,726.441,qs),
(1212.51,726.441,l),
(1212.51,824.418,l),
(652.016,824.418,l),
(652.016,813.825,o),
(653.782,789.993,q),
(653.782,769.692,o),
(653.782,757.334,qs),
(653.782,641.704,o),
(570.81,641.704,qs),
(489.604,641.704,o),
(489.604,722.91,qs),
(489.604,905.624,ls),
(489.604,1081.28,o),
(757.055,1348.73,o),
(934.472,1348.73,qs),
(1110.12,1348.73,o),
(1375.81,1081.28,o),
(1375.81,905.624,qs),
(1375.81,645.235,ls),
(1375.81,589.626,o),
(1326.38,572.855,q),
(1303.43,564.029,o),
(1232.82,564.029,q),
(1291.96,493.415,o),
(1291.96,437.806,qs),
(1291.96,350.422,o),
(1145.43,314.232,qs),
(775.591,225.965,o),
(659.96,144.759,q),
(727.926,81.206,o),
(932.707,81.206,qs),
(1100.41,81.206,o),
(1254,157.116,q),
(1277.83,167.708,o),
(1295.49,167.708,qs),
(1328.14,167.708,o),
(1377.57,117.396,o),
(1377.57,82.971,q)
);
},
{
closed = 1;
nodes = (
(1200.16,986.83,l),
(1171.03,1069.8,o),
(1020.97,1185.43,o),
(934.472,1185.43,qs),
(846.205,1185.43,o),
(696.15,1069.8,o),
(667.022,986.83,q)
);
}
);
width = 1518;
}
);
unicode = 57383;
},
{
glyphname = uniE028;
layers = (
{
layerId = "C9131A5A-EDD4-486F-A7AF-343E1560E480";
shapes = (
{
closed = 1;
nodes = (
(1405.82,58.257,l),
(1405.82,29.128,o),
(1384.64,3.531,qs),
(1310.49,-82.971,o),
(1191.33,-82.971,qs),
(1064.23,-82.971,o),
(986.55,15.888,q),
(836.495,-81.206,o),
(584.051,-81.206,qs),
(426.052,-81.206,o),
(306.891,-36.19,qs),
(140.948,25.597,o),
(140.948,155.351,qs),
(140.948,229.495,o),
(239.808,293.048,qs),
(312.187,338.064,o),
(446.353,381.315,qs),
(536.386,410.443,o),
(627.302,437.806,q),
(684.675,457.225,o),
(749.993,472.231,q),
(710.273,510.186,o),
(632.598,586.096,qs),
(594.643,624.051,o),
(594.643,657.592,qs),
(594.643,726.441,o),
(686.441,726.441,qs),
(863.858,726.441,l),
(863.858,824.418,l),
(303.36,824.418,l),
(303.36,813.825,o),
(303.36,789.993,q),
(305.126,769.692,o),
(305.126,757.334,qs),
(305.126,641.704,o),
(222.154,641.704,qs),
(140.948,641.704,o),
(140.948,722.91,qs),
(140.948,905.624,ls),
(140.948,1081.28,o),
(408.398,1348.73,o),
(585.816,1348.73,qs),
(760.585,1348.73,o),
(1026.27,1081.28,o),
(1026.27,905.624,qs),
(1026.27,645.235,ls),
(1026.27,589.626,o),
(977.72,572.855,q),
(953.891,564.029,o),
(884.16,564.029,q),
(943.299,493.415,o),
(943.299,437.806,qs),
(943.299,350.422,o),
(795.01,314.232,qs),
(426.052,225.965,o),
(310.422,144.759,q),
(379.27,81.206,o),
(584.051,81.206,qs),
(755.289,81.206,o),
(903.579,157.116,q),
(919.467,164.177,o),
(930.941,165.943,q),
(930.941,182.714,l),
(929.176,287.752,o),
(1084.53,437.806,o),
(1191.33,437.806,qs),
(1272.54,437.806,o),
(1272.54,355.718,qs),
(1272.54,274.512,o),
(1191.33,274.512,qs),
(1151.61,274.512,o),
(1093.35,217.138,o),
(1093.35,177.417,qs),
(1093.35,137.697,o),
(1151.61,79.441,o),
(1191.33,79.441,qs),
(1227.52,79.441,o),
(1293.72,141.228,o),
(1322.85,141.228,qs),
(1355.51,141.228,o),
(1405.82,90.033,o),
(1405.82,58.256,q)
);
},
{
closed = 1;
nodes = (
(851.501,986.83,l),
(822.372,1069.8,o),
(672.318,1185.43,o),
(585.816,1185.43,qs),
(496.666,1185.43,o),
(344.846,1069.8,o),
(318.366,986.83,q)
);
}
);
width = 1546;
}
);
unicode = 57384;
},
{
glyphname = uniE029;
layers = (
{
layerId = "C9131A5A-EDD4-486F-A7AF-343E1560E480";
shapes = (
{
closed = 1;
nodes = (
(1449.95,940.048,o),
(1427.89,912.685,q),
(1355.51,827.948,o),
(1234.58,827.948,qs),
(1103.95,827.948,o),
(1024.5,932.986,q),
(1026.27,917.981,o),
(1026.27,905.624,qs),
(1026.27,645.235,ls),
(1026.27,589.626,o),
(977.72,572.855,q),
(953.891,564.029,o),
(884.16,564.029,q),
(943.299,493.415,o),
(943.299,437.806,qs),
(943.299,350.422,o),
(795.01,314.232,qs),
(426.052,225.965,o),
(310.422,144.759,q),
(379.27,81.206,o),
(584.051,81.206,qs),
(751.759,81.206,o),
(903.579,157.116,q),
(929.176,167.708,o),
(946.83,167.708,qs),
(979.49,167.708,o),
(1028.04,117.396,o),
(1028.04,82.971,qs),
(1028.04,43.251,o),
(986.55,15.888,qs),
(838.261,-81.206,o),
(584.051,-81.206,qs),
(426.052,-81.206,o),
(306.891,-36.19,qs),
(140.948,25.598,o),
(140.948,155.351,qs),
(140.948,229.495,o),
(239.808,293.048,qs),
(312.187,338.064,o),
(446.353,381.315,qs),
(536.386,410.443,o),
(627.302,437.806,q),
(684.675,457.225,o),
(749.993,472.231,q),
(710.273,510.186,o),
(632.598,586.096,qs),
(594.643,624.051,o),
(594.643,657.592,qs),
(594.643,726.441,o),
(686.441,726.441,qs),
(863.858,726.441,l),
(863.858,824.418,l),
(303.36,824.418,l),
(303.36,813.825,o),
(303.36,789.993,q),
(305.126,769.692,o),
(305.126,757.334,qs),
(305.126,641.704,o),
(222.154,641.704,qs),
(140.948,641.704,o),
(140.948,722.91,qs),
(140.948,905.624,ls),
(140.948,1081.28,o),
(408.398,1348.73,o),
(585.816,1348.73,qs),
(704.977,1348.73,o),
(915.936,1214.56,o),
(974.19,1105.99,q),
(981.25,1207.5,o),
(1131.31,1348.73,o),
(1234.58,1348.73,qs),
(1315.79,1348.73,o),
(1315.79,1267.52,qs),
(1315.79,1185.43,o),
(1234.58,1185.43,qs),
(1194.86,1185.43,o),
(1136.6,1128.06,o),
(1136.6,1088.34,qs),
(1136.6,1048.62,o),
(1194.86,990.36,o),
(1234.58,990.36,qs),
(1270.77,990.36,o),
(1337.85,1050.38,o),
(1366.1,1050.38,qs),
(1398.76,1050.38,o),
(1449.95,1001.83,o),
(1449.95,969.176,q)
);
},
{
closed = 1;
nodes = (
(851.501,986.83,l),
(822.372,1069.8,o),
(672.318,1185.43,o),
(585.816,1185.43,qs),
(496.666,1185.43,o),
(344.846,1069.8,o),
(318.366,986.83,q)
);
}
);
width = 1590;
}
);
unicode = 57385;
},
{
glyphname = uniE02A;
layers = (
{
layerId = "C9131A5A-EDD4-486F-A7AF-343E1560E480";
shapes = (
{
closed = 1;
nodes = (
(1415.53,41.486,o),
(1374.04,15.888,qs),
(1219.58,-81.206,o),
(972.43,-81.206,qs),
(813.546,-81.206,o),
(696.15,-36.19,qs),
(529.325,25.597,o),
(529.325,155.351,qs),
(529.325,260.389,o),
(726.161,341.595,q),
(870.92,390.142,o),
(1015.68,437.806,qs),
(1067.76,455.46,o),
(1138.37,472.231,q),
(1131.31,479.292,o),
(1020.97,586.096,qs),
(983.02,622.285,o),
(983.02,657.592,qs),
(983.02,726.441,o),
(1075.7,726.441,qs),
(1252.23,726.441,l),
(1252.23,824.418,l),
(691.737,824.418,l),
(691.737,719.379,o),
(688.206,707.022,q),
(675.849,641.704,o),
(610.531,641.704,qs),
(529.325,641.704,o),
(529.325,722.91,qs),
(529.325,824.418,l),
(401.337,824.418,ls),
(361.617,824.418,o),
(303.36,766.161,o),
(303.36,726.441,qs),
(303.36,684.955,o),
(361.617,629.347,o),
(401.337,629.347,qs),
(482.543,629.347,o),
(482.543,548.141,qs),
(482.543,466.052,o),
(401.337,466.052,qs),
(294.533,466.052,o),
(140.948,617.872,o),
(140.948,726.441,qs),
(140.948,833.244,o),
(294.533,986.83,o),
(401.337,986.83,qs),
(536.386,986.83,l),
(569.045,1136.88,o),
(818.842,1348.73,o),
(972.43,1348.73,qs),
(1149.84,1348.73,o),
(1415.53,1081.28,o),
(1415.53,905.624,qs),
(1415.53,645.235,ls),
(1415.53,610.81,o),
(1369.63,564.029,o),
(1272.54,564.029,q),
(1331.68,493.415,o),
(1331.68,437.806,qs),
(1331.68,348.656,o),
(1184.27,314.232,qs),
(818.842,229.495,o),
(699.681,144.759,q),
(731.457,113.865,o),
(829.434,96.211,qs),
(903.579,81.206,o),
(972.43,81.206,qs),
(1148.08,81.206,o),
(1291.96,157.116,q),
(1315.79,167.708,o),
(1336.09,167.708,qs),
(1367.87,167.708,o),
(1415.53,117.396,o),
(1415.53,82.971,q)
);
},
{
closed = 1;
nodes = (
(1238.11,986.83,l),
(1210.75,1069.8,o),
(1058.93,1185.43,o),
(972.43,1185.43,qs),
(885.925,1185.43,o),
(734.105,1069.8,o),
(704.977,986.83,q)
);
}
);
width = 1556;
}
);
unicode = 57386;
},
{
glyphname = uniE02B;
layers = (
{
layerId = "C9131A5A-EDD4-486F-A7AF-343E1560E480";
shapes = (
{
closed = 1;
nodes = (
(1783.6,802.351,o),
(1717.4,753.804,qs),
(1657.38,708.787,o),
(1559.41,708.787,qs),
(1471.14,708.787,o),
(1379.34,779.401,q),
(1341.38,726.441,o),
(1301.66,654.061,q),
(1277.83,607.28,o),
(1231.05,607.28,qs),
(1198.39,607.28,o),
(1145.43,654.061,o),
(1145.43,686.72,qs),
(1145.43,721.145,o),
(1205.45,815.591,q),
(1026.27,815.591,l),
(1026.27,645.235,ls),
(1026.27,610.81,o),
(981.25,564.029,o),
(884.16,564.029,q),
(943.299,493.415,o),
(943.299,437.806,qs),
(943.299,348.656,o),
(795.01,314.232,qs),
(429.583,229.495,o),
(310.422,144.759,q),
(344.846,113.865,o),
(441.057,96.212,qs),
(515.202,81.206,o),
(584.051,81.206,qs),
(760.585,81.206,o),
(903.579,157.116,q),
(927.411,167.708,o),
(946.83,167.708,qs),
(979.49,167.708,o),
(1028.04,117.396,o),
(1028.04,82.971,qs),
(1028.04,41.486,o),
(986.55,15.888,qs),
(831.199,-81.206,o),
(584.051,-81.206,qs),
(426.052,-81.206,o),
(306.891,-36.19,qs),
(140.948,25.598,o),
(140.948,155.351,qs),
(140.948,260.389,o),
(337.784,341.595,q),
(482.543,390.142,o),
(627.302,437.806,qs),
(679.379,455.46,o),
(749.993,472.231,q),
(742.932,479.292,o),
(632.598,586.096,qs),
(594.643,622.285,o),
(594.643,657.592,qs),
(594.643,726.441,o),
(686.441,726.441,qs),
(863.858,726.441,l),
(863.858,824.418,l),
(303.36,824.418,l),
(303.36,719.379,o),
(301.595,707.022,q),
(287.472,641.704,o),
(222.154,641.704,qs),
(140.948,641.704,o),
(140.948,722.91,qs),
(140.948,905.624,ls),
(140.948,1081.28,o),
(408.398,1348.73,o),
(585.816,1348.73,qs),
(741.166,1348.73,o),
(991.85,1131.59,o),
(1019.21,978.003,q),
(1205.45,978.003,l),
(1145.43,1088.34,o),
(1145.43,1105.99,qs),
(1145.43,1138.65,o),
(1198.39,1185.43,o),
(1231.05,1185.43,qs),
(1277.83,1185.43,o),
(1301.66,1138.65,q),
(1341.38,1064.5,o),
(1379.34,1014.19,q),
(1471.14,1084.81,o),
(1559.41,1084.81,qs),
(1657.38,1084.81,o),
(1717.4,1039.79,qs),
(1783.6,990.36,o),
(1783.6,896.797,q)
);
},
{
closed = 1;
nodes = (
(1621.19,905.624,o),
(1617.66,910.92,q),
(1601.77,921.512,o),
(1559.41,921.512,qs),
(1529.39,921.512,o),
(1491.44,896.797,q),
(1529.39,871.199,o),
(1559.41,871.199,qs),
(1600.01,871.199,o),
(1619.43,883.557,q),
(1621.19,887.97,o),
(1621.19,896.797,q)
);
},
{
closed = 1;
nodes = (
(851.501,986.83,l),
(822.372,1069.8,o),
(670.553,1185.43,o),
(585.816,1185.43,qs),
(496.666,1185.43,o),
(344.846,1069.8,o),
(318.366,986.83,q)
);
}
);
width = 1924;
}
);
unicode = 57387;
},
{
glyphname = uniE02C;
layers = (
{
layerId = "C9131A5A-EDD4-486F-A7AF-343E1560E480";
shapes = (
{
closed = 1;
nodes = (
(1478.2,43.251,o),
(1436.71,15.888,qs),
(1290.19,-81.206,o),
(1034.21,-81.206,qs),
(900.048,-81.206,o),
(789.714,-46.782,qs),
(637.894,-1.765,o),
(601.704,96.211,q),
(576.106,15.888,o),
(439.292,-81.206,o),
(356.321,-81.206,qs),
(234.512,-81.206,o),
(162.132,3.531,q),
(140.948,30.894,o),
(140.948,58.256,qs),
(140.948,91.798,o),
(191.261,141.228,o),
(223.92,141.228,qs),
(253.048,141.228,o),
(320.131,81.206,o),
(356.321,81.206,qs),
(396.041,81.206,o),
(453.415,139.462,o),
(453.415,179.183,qs),
(453.415,218.903,o),
(396.041,276.277,o),
(356.321,276.277,qs),
(274.232,276.277,o),
(274.232,358.366,qs),
(274.232,439.572,o),
(356.321,439.572,qs),
(451.649,439.572,o),
(596.408,315.997,o),
(612.296,222.434,q),
(661.726,294.813,o),
(825.903,355.718,q),
(952.126,398.086,o),
(1079.23,437.806,q),
(1134.84,457.225,o),
(1200.16,472.231,q),
(1160.44,510.186,o),
(1082.76,586.096,q),
(1046.57,624.051,o),
(1046.57,657.592,qs),
(1046.57,726.441,o),
(1138.37,726.441,qs),
(1314.02,726.441,l),
(1314.02,824.418,l),
(753.524,824.418,l),
(755.289,813.825,o),
(755.289,789.993,qs),
(755.289,769.692,o),
(755.289,757.334,qs),
(755.289,641.704,o),
(672.318,641.704,qs),
(591.112,641.704,o),
(591.112,722.91,qs),
(591.112,905.624,ls),
(591.112,1081.28,o),
(858.562,1348.73,o),
(1035.98,1348.73,qs),
(1210.75,1348.73,o),
(1476.43,1081.28,o),
(1476.43,905.624,qs),
(1476.43,645.235,ls),
(1476.43,589.626,o),
(1429.65,572.855,qs),
(1404.05,564.029,o),
(1333.44,564.029,q),
(1395.23,493.415,o),
(1395.23,437.806,qs),
(1395.23,350.422,o),
(1246.94,314.232,qs),
(876.216,225.965,o),
(760.585,144.759,q),
(831.199,81.206,o),
(1034.21,81.206,qs),
(1201.92,81.206,o),
(1355.51,157.116,q),
(1381.11,167.708,o),
(1398.76,167.708,qs),
(1431.42,167.708,o),
(1478.2,117.396,o),
(1478.2,82.971,q)
);
},
{
closed = 1;
nodes = (
(1301.66,986.83,l),
(1272.54,1069.8,o),
(1122.48,1185.43,o),
(1035.98,1185.43,qs),
(948.595,1185.43,o),
(796.775,1069.8,o),
(767.647,986.83,q)
);
}
);
width = 1619;
}
);
unicode = 57388;
},
{
glyphname = uniE02D;
layers = (
{
layerId = "C9131A5A-EDD4-486F-A7AF-343E1560E480";
shapes = (
{
closed = 1;
nodes = (
(1465.84,-20.301,o),
(1321.08,-137.697,o),
(1227.52,-137.697,qs),
(1156.91,-137.697,o),
(1102.18,-112.1,q),
(1035.98,-77.675,o),
(1035.98,-12.357,qs),
(1035.98,61.787,o),
(1102.18,61.787,qs),
(1124.25,61.787,o),
(1200.16,25.598,o),
(1227.52,25.598,qs),
(1250.47,25.598,o),
(1303.43,50.312,o),
(1303.43,72.379,qs),
(1303.43,86.502,o),
(1243.41,119.161,o),
(1227.52,119.161,qs),
(1176.32,119.161,o),
(1120.72,148.289,q),
(1037.74,37.955,o),
(877.981,-23.832,qs),
(734.105,-81.206,o),
(584.051,-81.206,qs),
(424.287,-81.206,o),
(306.891,-36.19,qs),
(140.948,25.598,o),
(140.948,155.351,qs),
(140.948,260.389,o),
(337.784,341.595,q),
(482.543,390.142,o),
(627.302,437.806,qs),
(679.379,455.46,o),
(749.993,472.231,q),
(742.932,479.292,o),
(632.598,586.096,qs),
(594.643,622.285,o),
(594.643,657.592,qs),
(594.643,726.441,o),
(686.441,726.441,qs),
(863.858,726.441,l),
(863.858,824.418,l),
(303.36,824.418,l),
(303.36,719.379,o),
(301.595,707.022,q),
(287.472,641.704,o),
(222.154,641.704,qs),
(140.948,641.704,o),
(140.948,722.91,qs),
(140.948,905.624,ls),
(140.948,1081.28,o),
(408.398,1348.73,o),
(585.816,1348.73,qs),
(760.585,1348.73,o),
(1026.27,1081.28,o),
(1026.27,905.624,qs),
(1026.27,645.235,ls),
(1026.27,610.81,o),
(981.25,564.029,o),
(884.16,564.029,q),
(943.299,493.415,o),
(943.299,437.806,qs),
(943.299,348.656,o),
(795.01,314.232,qs),
(429.583,229.495,o),
(310.422,144.759,q),
(337.784,113.865,o),
(439.292,96.212,qs),
(518.733,81.206,o),
(584.051,81.206,qs),
(697.915,81.206,o),
(817.076,126.222,qs),
(952.126,179.183,o),
(1005.09,263.92,q),
(990.08,294.813,o),
(990.08,331.003,qs),
(990.08,421.035,o),
(1064.23,482.823,qs),
(1133.07,540.196,o),
(1227.52,540.196,qs),
(1402.29,540.196,o),
(1402.29,437.806,qs),
(1402.29,405.147,o),
(1357.27,355.718,o),
(1326.38,355.718,qs),
(1310.49,355.718,o),
(1252.23,377.784,o),
(1227.52,377.784,qs),
(1203.69,377.784,o),
(1181.62,367.192,q),
(1153.38,352.187,o),
(1153.38,331.003,qs),
(1153.38,315.997,o),
(1212.51,281.573,o),
(1227.52,281.573,qs),
(1314.02,281.573,o),
(1465.84,157.116,o),
(1465.84,72.379,q)
);
},
{
closed = 1;
nodes = (
(851.501,986.83,l),
(822.372,1069.8,o),
(670.553,1185.43,o),
(585.816,1185.43,qs),
(496.666,1185.43,o),
(344.846,1069.8,o),
(318.366,986.83,q)
);
}
);
width = 1606;
}
);
unicode = 57389;
},
{
glyphname = uniE02E;
layers = (
{
layerId = "C9131A5A-EDD4-486F-A7AF-343E1560E480";
shapes = (
{
closed = 1;
nodes = (
(1612.37,907.389,o),
(1519.68,804.116,qs),
(1449.95,724.675,o),
(1348.45,684.955,q),
(1331.68,679.659,o),
(1315.79,679.659,qs),
(1281.36,679.659,o),
(1236.35,729.971,o),
(1236.35,764.396,qs),
(1236.35,817.356,o),
(1288.42,836.775,qs),
(1355.51,862.372,o),
(1398.76,912.685,q),
(1449.95,969.176,o),
(1449.95,1041.56,qs),
(1449.95,1117.47,o),
(1336.09,1185.43,o),
(1203.69,1185.43,qs),
(1169.26,1185.43,o),
(1115.42,1147.48,o),
(1115.42,1129.82,qs),
(1115.42,1084.81,o),
(1201.92,1084.81,qs),
(1283.13,1084.81,o),
(1283.13,1003.6,qs),
(1283.13,921.512,o),
(1201.92,921.512,qs),
(1088.06,921.512,o),
(1019.21,976.237,q),
(1026.27,940.048,o),
(1026.27,905.624,qs),
(1026.27,645.235,ls),
(1026.27,610.81,o),
(981.25,564.029,o),
(884.16,564.029,q),
(943.299,493.415,o),
(943.299,437.806,qs),
(943.299,348.656,o),
(795.01,314.232,qs),
(429.583,229.495,o),
(310.422,144.759,q),
(344.846,113.865,o),
(441.057,96.212,qs),
(515.202,81.206,o),
(584.051,81.206,qs),
(760.585,81.206,o),
(903.579,157.116,q),
(927.411,167.708,o),
(946.83,167.708,qs),
(979.49,167.708,o),
(1028.04,117.396,o),
(1028.04,82.971,qs),
(1028.04,41.486,o),
(986.55,15.888,qs),
(831.199,-81.206,o),
(584.051,-81.206,qs),
(426.052,-81.206,o),
(306.891,-36.19,qs),
(140.948,25.598,o),
(140.948,155.351,qs),
(140.948,260.389,o),
(337.784,341.595,q),
(482.543,390.142,o),
(627.302,437.806,qs),
(679.379,455.46,o),
(749.993,472.231,q),
(742.932,479.292,o),
(632.598,586.096,qs),
(594.643,622.285,o),
(594.643,657.592,qs),
(594.643,726.441,o),
(686.441,726.441,qs),
(863.858,726.441,l),
(863.858,824.418,l),
(303.36,824.418,l),
(303.36,719.379,o),
(301.595,707.022,q),
(287.472,641.704,o),
(222.154,641.704,qs),
(140.948,641.704,o),
(140.948,722.91,qs),
(140.948,905.624,ls),
(140.948,1081.28,o),
(408.398,1348.73,o),
(585.816,1348.73,qs),
(696.15,1348.73,o),
(891.221,1234.86,o),
(953.891,1140.41,q),
(960.07,1247.22,o),
(1057.16,1305.47,qs),
(1129.54,1348.73,o),
(1203.69,1348.73,qs),
(1612.37,1348.73,o),
(1612.37,1041.56,q)
);
},
{
closed = 1;
nodes = (
(851.501,986.83,l),
(822.372,1069.8,o),
(670.553,1185.43,o),
(585.816,1185.43,qs),
(496.666,1185.43,o),
(344.846,1069.8,o),
(318.366,986.83,q)
);
}
);
width = 1753;
}
);
unicode = 57390;
},
{
glyphname = uniE02F;
layers = (
{
layerId = "C9131A5A-EDD4-486F-A7AF-343E1560E480";
shapes = (
{
closed = 1;
nodes = (
(1355.51,139.462,o),
(1239.88,-3.531,q),
(1225.75,-22.067,o),
(1194.86,-55.609,q),
(1165.73,-82.971,o),
(1134.84,-82.971,qs),
(1102.18,-82.971,o),
(1051.87,-32.659,o),
(1051.87,0,qs),
(1051.87,27.363,o),
(1081,63.553,q),
(1103.95,90.033,o),
(1127.78,117.396,q),
(1089.82,122.692,l),
(999.79,34.424,o),
(712.038,-81.206,o),
(584.051,-81.206,qs),
(426.052,-81.206,o),
(306.891,-36.19,qs),
(140.948,25.598,o),
(140.948,155.351,qs),
(140.948,260.389,o),
(337.784,341.595,q),
(482.543,390.142,o),
(627.302,437.806,qs),
(679.379,455.46,o),
(749.993,472.231,q),
(742.932,479.292,o),
(632.598,586.096,qs),
(594.643,622.285,o),
(594.643,657.592,qs),
(594.643,726.441,o),
(686.441,726.441,qs),
(863.858,726.441,l),
(863.858,824.418,l),
(303.36,824.418,l),
(303.36,719.379,o),
(301.595,707.022,q),
(287.472,641.704,o),
(222.154,641.704,qs),
(140.948,641.704,o),
(140.948,722.91,qs),
(140.948,905.624,ls),
(140.948,1081.28,o),
(408.398,1348.73,o),
(585.816,1348.73,qs),
(760.585,1348.73,o),
(1026.27,1081.28,o),
(1026.27,905.624,qs),
(1026.27,645.235,ls),
(1026.27,610.81,o),
(981.25,564.029,o),
(884.16,564.029,q),
(943.299,493.415,o),
(943.299,437.806,qs),
(943.299,348.656,o),
(795.01,314.232,qs),
(429.583,229.495,o),
(310.422,144.759,q),
(344.846,113.865,o),
(441.057,96.211,qs),
(515.202,81.206,o),
(584.051,81.206,qs),
(672.318,81.206,o),
(885.925,160.647,o),
(953.891,218.903,q),
(927.411,262.154,o),
(927.411,314.232,qs),
(927.411,399.851,o),
(1055.4,513.716,o),
(1141.9,513.716,qs),
(1227.52,513.716,o),
(1355.51,399.851,o),
(1355.51,314.232,q)
);
},
{
closed = 1;
nodes = (
(851.501,986.83,l),
(822.372,1069.8,o),
(670.553,1185.43,o),
(585.816,1185.43,qs),
(496.666,1185.43,o),
(344.846,1069.8,o),
(318.366,986.83,q)
);
},
{
closed = 1;
nodes = (
(1193.1,350.422,o),
(1141.9,350.422,qs),
(1089.82,350.422,o),
(1089.82,314.232,qs),
(1089.82,279.808,o),
(1141.9,279.808,qs),
(1193.1,279.808,o),
(1193.1,314.232,q)
);
}
);
width = 1496;
}
);
unicode = 57391;
},
{
glyphname = uniE030;
layers = (
{
layerId = "C9131A5A-EDD4-486F-A7AF-343E1560E480";
shapes = (
{
closed = 1;
nodes = (
(1028.04,126.222,o),
(865.624,17.654,qs),
(720.865,-79.441,o),
(544.33,-79.441,qs),
(449.884,-79.441,o),
(348.377,-52.078,qs),
(232.746,-22.067,o),
(173.607,30.894,qs),
(140.948,60.022,o),
(140.948,91.798,qs),
(140.948,126.222,o),
(189.495,177.417,o),
(222.154,177.417,qs),
(245.986,177.417,o),
(272.467,158.881,q),
(388.097,82.971,o),
(544.33,82.971,qs),
(648.486,82.971,o),
(748.228,137.697,qs),
(865.624,200.367,o),
(865.624,296.578,qs),
(865.624,399.851,o),
(755.289,484.588,qs),
(652.016,564.029,o),
(544.33,564.029,qs),
(462.242,564.029,o),
(462.242,645.235,qs),
(462.242,726.441,o),
(544.33,726.441,qs),
(650.251,726.441,o),
(751.759,797.055,q),
(865.624,872.965,o),
(865.624,974.472,qs),
(865.624,1069.8,o),
(748.228,1133.35,qs),
(648.486,1188.08,o),
(544.33,1188.08,qs),
(388.097,1188.08,o),
(272.467,1112.17,q),
(245.986,1091.87,o),
(222.154,1091.87,qs),
(189.495,1091.87,o),
(140.948,1143.95,o),
(140.948,1176.6,qs),
(140.948,1211.03,o),
(173.607,1240.16,qs),
(232.746,1292.23,o),
(348.377,1323.13,qs),
(449.884,1350.49,o),
(544.33,1350.49,qs),
(720.865,1350.49,o),
(865.624,1252.51,qs),
(1028.04,1142.18,o),
(1028.04,974.472,qs),
(1028.04,769.692,o),
(813.546,641.704,q),
(1028.04,504.007,o),
(1028.04,296.578,q)
);
}
);
width = 1169;
}
);
unicode = 57392;
},
{
glyphname = uniE031;
layers = (
{
layerId = "C9131A5A-EDD4-486F-A7AF-343E1560E480";
shapes = (
{
closed = 1;
nodes = (
(1028.04,126.222,o),
(865.624,17.654,qs),
(720.865,-79.441,o),
(544.33,-79.441,qs),
(449.884,-79.441,o),
(350.142,-52.078,qs),
(236.277,-22.067,o),
(173.607,30.894,qs),
(140.948,58.257,o),
(140.948,91.798,qs),
(140.948,126.222,o),
(189.495,177.417,o),
(222.154,177.417,qs),
(245.986,177.417,o),
(272.467,158.881,q),
(388.097,82.971,o),
(544.33,82.971,qs),
(648.486,82.971,o),
(748.228,137.697,qs),
(865.624,200.367,o),
(865.624,296.578,qs),
(865.624,383.081,o),
(779.121,462.521,qs),
(703.212,534.9,o),
(610.531,556.967,q),
(582.285,479.292,o),
(448.119,384.846,o),
(366.913,384.846,qs),
(285.707,384.846,o),
(285.707,466.052,qs),
(285.707,548.141,o),
(365.147,548.141,qs),
(406.633,548.141,o),
(462.242,605.514,o),
(462.242,645.235,qs),
(462.242,684.955,o),
(406.633,743.212,o),
(365.147,743.212,qs),
(285.707,743.212,o),
(285.707,824.418,qs),
(285.707,905.624,o),
(366.913,905.624,qs),
(448.119,905.624,o),
(582.285,810.295,o),
(610.531,733.502,q),
(701.446,752.038,o),
(777.356,817.356,q),
(865.624,889.735,o),
(865.624,974.472,qs),
(865.624,1069.8,o),
(748.228,1133.35,qs),
(648.486,1188.08,o),
(544.33,1188.08,qs),
(388.097,1188.08,o),
(272.467,1112.17,q),
(245.986,1091.87,o),
(222.154,1091.87,qs),
(189.495,1091.87,o),
(140.948,1143.95,o),
(140.948,1176.6,qs),
(140.948,1211.03,o),
(173.607,1240.16,q),
(236.277,1292.23,o),
(350.142,1323.13,qs),
(449.884,1350.49,o),
(544.33,1350.49,qs),
(720.865,1350.49,o),
(865.624,1252.51,qs),
(1028.04,1142.18,o),
(1028.04,974.472,qs),
(1028.04,769.692,o),
(813.546,641.704,q),
(1028.04,504.007,o),
(1028.04,296.578,q)
);
}
);
width = 1169;
}
);
unicode = 57393;
},
{
glyphname = uniE032;
layers = (
{
layerId = "C9131A5A-EDD4-486F-A7AF-343E1560E480";
shapes = (
{
closed = 1;
nodes = (
(1491.44,560.498,o),
(1389.93,417.505,o),
(1308.73,384.846,q),
(1290.19,379.55,o),
(1276.07,379.55,qs),
(1241.64,379.55,o),
(1196.63,429.862,o),
(1196.63,464.287,qs),
(1196.63,504.007,o),
(1260.18,543.727,o),
(1290.19,564.029,q),
(908.875,564.029,l),
(1028.04,441.337,o),
(1028.04,296.578,qs),
(1028.04,126.222,o),
(865.624,17.653,qs),
(720.865,-79.441,o),
(544.33,-79.441,qs),
(448.119,-79.441,o),
(350.142,-52.078,qs),
(238.042,-23.832,o),
(173.607,30.894,qs),
(140.948,58.256,o),
(140.948,91.798,qs),
(140.948,126.222,o),
(189.495,177.417,o),
(222.154,177.417,qs),
(245.986,177.417,o),
(272.467,158.881,q),
(388.097,82.971,o),
(544.33,82.971,qs),
(648.486,82.971,o),
(748.228,137.697,qs),
(865.624,200.367,o),
(865.624,296.578,qs),
(865.624,399.851,o),
(755.289,484.588,qs),
(652.016,564.029,o),
(544.33,564.029,qs),
(458.711,564.029,o),
(458.711,645.235,qs),
(458.711,726.441,o),
(544.33,726.441,qs),
(650.251,726.441,o),
(751.759,797.055,q),
(865.624,872.965,o),
(865.624,974.472,qs),
(865.624,1069.8,o),
(748.228,1133.35,qs),
(648.486,1188.08,o),
(544.33,1188.08,qs),
(388.097,1188.08,o),
(272.467,1112.17,q),
(245.986,1091.87,o),
(222.154,1091.87,qs),
(189.495,1091.87,o),
(140.948,1143.95,o),
(140.948,1176.6,qs),
(140.948,1212.79,o),
(173.607,1240.16,qs),
(238.042,1292.23,o),
(350.142,1323.13,qs),
(448.119,1350.49,o),
(544.33,1350.49,qs),
(720.865,1350.49,o),
(865.624,1252.51,qs),
(1028.04,1142.18,o),
(1028.04,974.472,qs),
(1028.04,836.775,o),
(919.467,726.441,q),
(1290.19,726.441,l),
(1260.18,744.977,o),
(1196.63,786.463,o),
(1196.63,826.183,qs),
(1196.63,860.607,o),
(1241.64,910.92,o),
(1276.07,910.92,qs),
(1290.19,910.92,o),
(1308.73,905.624,q),
(1389.93,872.965,o),
(1491.44,729.971,o),
(1491.44,645.235,q)
);
}
);
width = 1632;
}
);
unicode = 57394;
},
{
glyphname = uniE033;
layers = (
{
layerId = "C9131A5A-EDD4-486F-A7AF-343E1560E480";
shapes = (
{
closed = 1;
nodes = (
(1277.83,144.759,o),
(1041.28,-81.206,o),
(887.69,-81.206,qs),
(753.524,-81.206,o),
(584.051,-1.765,qs),
(479.012,46.782,o),
(306.891,157.116,q),
(320.131,110.334,o),
(381.035,77.675,q),
(435.761,46.782,o),
(435.761,1.765,qs),
(435.761,-30.894,o),
(389.862,-82.971,o),
(356.321,-82.971,qs),
(339.55,-82.971,o),
(323.662,-75.91,q),
(241.573,-43.251,o),
(140.948,97.977,o),
(140.948,184.479,qs),
(140.948,269.216,o),
(241.573,412.209,o),
(323.662,444.868,q),
(339.55,450.164,o),
(356.321,450.164,qs),
(389.862,450.164,o),
(435.761,399.851,o),
(435.761,365.427,qs),
(435.761,317.763,o),
(391.628,296.578,q),
(729.692,81.206,o),
(887.69,81.206,qs),
(972.43,81.206,o),
(1115.42,211.842,o),
(1115.42,296.578,qs),
(1115.42,399.851,o),
(1006.85,484.588,qs),
(903.579,564.029,o),
(795.01,564.029,qs),
(713.804,564.029,o),
(713.804,645.235,qs),
(713.804,726.441,o),
(795.01,726.441,qs),
(901.813,726.441,o),
(1003.32,797.055,qs),
(1115.42,872.965,o),
(1115.42,974.472,qs),
(1115.42,1069.8,o),
(999.79,1133.35,qs),
(900.048,1188.08,o),
(795.01,1188.08,qs),
(639.659,1188.08,o),
(524.029,1112.17,q),
(496.666,1091.87,o),
(473.716,1091.87,qs),
(441.057,1091.87,o),
(391.628,1143.95,o),
(391.628,1176.6,qs),
(391.628,1211.03,o),
(424.287,1240.16,q),
(487.839,1292.23,o),
(599.939,1323.13,qs),
(699.681,1350.49,o),
(795.01,1350.49,qs),
(972.43,1350.49,o),
(1117.19,1252.51,qs),
(1277.83,1142.18,o),
(1277.83,974.472,qs),
(1277.83,769.692,o),
(1064.23,641.704,q),
(1277.83,504.007,o),
(1277.83,296.578,q)
);
}
);
width = 1418;
}
);
unicode = 57395;
},
{
glyphname = uniE034;
layers = (
{
layerId = "C9131A5A-EDD4-486F-A7AF-343E1560E480";
shapes = (
{
closed = 1;
nodes = (
(1471.14,229.495,o),
(1448.19,202.132,q),
(1379.34,115.63,o),
(1255.77,115.63,qs),
(1098.65,115.63,o),
(1024.5,255.093,q),
(1006.85,105.038,o),
(847.97,7.061,qs),
(708.508,-79.441,o),
(544.33,-79.441,qs),
(449.884,-79.441,o),
(350.142,-52.078,qs),
(234.512,-22.067,o),
(173.607,30.894,qs),
(140.948,58.257,o),
(140.948,91.798,qs),
(140.948,126.222,o),
(189.495,177.417,o),
(222.154,177.417,qs),
(245.986,177.417,o),
(272.467,158.881,q),
(388.097,82.971,o),
(544.33,82.971,qs),
(648.486,82.971,o),
(748.228,137.697,qs),
(865.624,200.367,o),
(865.624,296.578,qs),
(865.624,399.851,o),
(755.289,484.588,qs),
(652.016,564.029,o),
(544.33,564.029,qs),
(462.242,564.029,o),
(462.242,645.235,qs),
(462.242,726.441,o),
(544.33,726.441,qs),
(650.251,726.441,o),
(751.759,797.055,q),
(865.624,872.965,o),
(865.624,974.472,qs),
(865.624,1069.8,o),
(748.228,1133.35,qs),
(648.486,1188.08,o),
(544.33,1188.08,qs),
(388.097,1188.08,o),
(272.467,1112.17,q),
(245.986,1091.87,o),
(222.154,1091.87,qs),
(189.495,1091.87,o),
(140.948,1143.95,o),
(140.948,1176.6,qs),
(140.948,1211.03,o),
(173.607,1240.16,qs),
(234.512,1292.23,o),
(350.142,1323.13,qs),
(449.884,1350.49,o),
(544.33,1350.49,qs),
(720.865,1350.49,o),
(865.624,1252.51,qs),
(1028.04,1142.18,o),
(1028.04,974.472,qs),
(1028.04,769.692,o),
(813.546,641.704,q),
(946.83,556.967,o),
(1001.56,428.097,q),
(1019.21,519.012,o),
(1162.2,636.408,o),
(1255.77,636.408,qs),
(1337.85,636.408,o),
(1337.85,555.202,qs),
(1337.85,473.996,o),
(1255.77,473.996,qs),
(1216.05,473.996,o),
(1158.67,415.739,o),
(1158.67,376.019,qs),
(1158.67,336.299,o),
(1216.05,278.042,o),
(1255.77,278.042,qs),
(1291.96,278.042,o),
(1359.04,339.829,o),
(1386.4,339.829,qs),
(1420.83,339.829,o),
(1471.14,289.517,o),
(1471.14,256.858,q)
);
}
);
width = 1612;
}
);
unicode = 57396;
},
{
glyphname = uniE035;
layers = (
{
layerId = "C9131A5A-EDD4-486F-A7AF-343E1560E480";
shapes = (
{
closed = 1;
nodes = (
(1453.48,934.752,o),
(1429.65,907.389,q),
(1360.8,820.887,o),
(1238.11,820.887,qs),
(1102.18,820.887,o),
(1024.5,931.221,q),
(1001.56,753.804,o),
(813.546,641.704,q),
(1028.04,504.007,o),
(1028.04,296.578,qs),
(1028.04,126.222,o),
(865.624,17.653,qs),
(720.865,-79.441,o),
(544.33,-79.441,qs),
(449.884,-79.441,o),
(350.142,-52.078,qs),
(234.512,-22.067,o),
(173.607,30.894,qs),
(140.948,58.256,o),
(140.948,91.798,qs),
(140.948,126.222,o),
(189.495,177.417,o),
(222.154,177.417,qs),
(245.986,177.417,o),
(272.467,158.881,q),
(388.097,82.971,o),
(544.33,82.971,qs),
(648.486,82.971,o),
(748.228,137.697,qs),
(865.624,200.367,o),
(865.624,296.578,qs),
(865.624,399.851,o),
(755.289,484.588,qs),
(652.016,564.029,o),
(544.33,564.029,qs),
(462.242,564.029,o),
(462.242,645.235,qs),
(462.242,726.441,o),
(544.33,726.441,qs),
(650.251,726.441,o),
(751.759,797.055,q),
(865.624,872.965,o),
(865.624,974.472,qs),
(865.624,1069.8,o),
(748.228,1133.35,qs),
(648.486,1188.08,o),
(544.33,1188.08,qs),
(388.097,1188.08,o),
(272.467,1112.17,q),
(245.986,1091.87,o),
(222.154,1091.87,qs),
(189.495,1091.87,o),
(140.948,1143.95,o),
(140.948,1176.6,qs),
(140.948,1211.03,o),
(173.607,1240.16,qs),
(234.512,1292.23,o),
(350.142,1323.13,qs),
(449.884,1350.49,o),
(544.33,1350.49,qs),
(668.787,1350.49,o),
(791.479,1294,qs),
(922.115,1233.1,o),
(983.02,1133.35,q),
(1001.56,1224.27,o),
(1145.43,1341.66,o),
(1238.11,1341.66,qs),
(1319.32,1341.66,o),
(1319.32,1259.58,qs),
(1319.32,1178.37,o),
(1238.11,1178.37,qs),
(1198.39,1178.37,o),
(1140.14,1121,o),
(1140.14,1081.28,qs),
(1140.14,1041.56,o),
(1198.39,983.299,o),
(1238.11,983.299,qs),
(1274.3,983.299,o),
(1341.38,1045.09,o),
(1367.87,1045.09,qs),
(1402.29,1045.09,o),
(1453.48,993.891,o),
(1453.48,962.115,q)
);
}
);
width = 1594;
}
);
unicode = 57397;
},
{
glyphname = uniE036;
layers = (
{
layerId = "C9131A5A-EDD4-486F-A7AF-343E1560E480";
shapes = (
{
closed = 1;
nodes = (
(1267.24,126.222,o),
(1103.95,17.654,qs),
(960.07,-79.441,o),
(784.418,-79.441,qs),
(689.971,-79.441,o),
(587.581,-52.078,qs),
(467.538,-22.067,o),
(411.929,30.894,qs),
(379.27,61.787,o),
(379.27,91.798,qs),
(379.27,126.222,o),
(427.817,177.417,o),
(462.242,177.417,qs),
(482.543,177.417,o),
(511.671,158.881,qs),
(634.363,82.971,o),
(784.418,82.971,qs),
(887.69,82.971,o),
(986.55,137.697,qs),
(1103.95,200.367,o),
(1103.95,296.578,qs),
(1103.95,399.851,o),
(993.61,484.588,qs),
(891.221,564.029,o),
(784.418,564.029,qs),
(703.212,564.029,o),
(703.212,645.235,qs),
(703.212,681.424,o),
(748.228,726.441,o),
(784.418,726.441,qs),
(889.456,726.441,o),
(991.85,797.055,qs),
(1103.95,872.965,o),
(1103.95,974.472,qs),
(1103.95,1091.87,o),
(967.13,1145.71,qs),
(869.154,1183.67,o),
(727.926,1183.67,qs),
(658.195,1183.67,o),
(589.347,1174.84,qs),
(496.666,1162.48,o),
(420.756,1133.35,qs),
(303.36,1088.34,o),
(303.36,1028.32,qs),
(303.36,988.595,o),
(361.617,931.221,o),
(401.337,931.221,qs),
(435.761,931.221,o),
(482.543,886.205,o),
(482.543,850.015,qs),
(482.543,813.825,o),
(435.761,767.926,o),
(401.337,767.926,qs),
(294.533,767.926,o),
(140.948,921.512,o),
(140.948,1028.32,qs),
(140.948,1147.48,o),
(265.405,1231.33,qs),
(361.617,1295.77,o),
(498.431,1326.66,qs),
(603.469,1350.49,o),
(715.569,1350.49,qs),
(929.176,1350.49,o),
(1079.23,1269.29,qs),
(1267.24,1169.54,o),
(1267.24,974.472,qs),
(1267.24,769.692,o),
(1051.87,641.704,q),
(1267.24,504.007,o),
(1267.24,296.578,q)
);
}
);
width = 1408;
}
);
unicode = 57398;
},
{
glyphname = uniE037;
layers = (
{
layerId = "C9131A5A-EDD4-486F-A7AF-343E1560E480";
shapes = (
{
closed = 1;
nodes = (
(1764.19,551.671,o),
(1636.2,457.225,o),
(1539.99,457.225,qs),
(1451.72,457.225,o),
(1359.04,527.839,q),
(1328.14,486.353,o),
(1281.36,403.382,qs),
(1255.77,355.718,o),
(1210.75,355.718,qs),
(1178.09,355.718,o),
(1126.01,403.382,o),
(1126.01,436.041,qs),
(1126.01,469.583,o),
(1186.03,564.029,q),
(908.875,564.029,l),
(1028.04,441.337,o),
(1028.04,296.578,qs),
(1028.04,126.222,o),
(865.624,17.653,qs),
(720.865,-79.441,o),
(544.33,-79.441,qs),
(448.119,-79.441,o),
(350.142,-52.078,qs),
(238.042,-23.832,o),
(173.607,30.894,qs),
(140.948,58.256,o),
(140.948,91.798,qs),
(140.948,126.222,o),
(189.495,177.417,o),
(222.154,177.417,qs),
(245.986,177.417,o),
(272.467,158.881,q),
(388.097,82.971,o),
(544.33,82.971,qs),
(648.486,82.971,o),
(748.228,137.697,qs),
(865.624,200.367,o),
(865.624,296.578,qs),
(865.624,399.851,o),
(755.289,484.588,qs),
(652.016,564.029,o),
(544.33,564.029,qs),
(458.711,564.029,o),
(458.711,645.235,qs),
(458.711,726.441,o),
(544.33,726.441,qs),
(650.251,726.441,o),
(751.759,797.055,q),
(865.624,872.965,o),
(865.624,974.472,qs),
(865.624,1069.8,o),
(748.228,1133.35,qs),
(648.486,1188.08,o),
(544.33,1188.08,qs),
(388.097,1188.08,o),
(272.467,1112.17,q),
(245.986,1091.87,o),
(222.154,1091.87,qs),
(189.495,1091.87,o),
(140.948,1143.95,o),
(140.948,1176.6,qs),
(140.948,1212.79,o),
(173.607,1240.16,qs),
(238.042,1292.23,o),
(350.142,1323.13,qs),
(448.119,1350.49,o),
(544.33,1350.49,qs),
(720.865,1350.49,o),
(865.624,1252.51,qs),
(1028.04,1142.18,o),
(1028.04,974.472,qs),
(1028.04,836.775,o),
(919.467,726.441,q),
(1186.03,726.441,l),
(1126.01,820.887,o),
(1126.01,855.311,qs),
(1126.01,887.97,o),
(1178.09,934.752,o),
(1210.75,934.752,qs),
(1255.77,934.752,o),
(1281.36,887.97,qs),
(1328.14,804.116,o),
(1359.04,762.63,q),
(1451.72,833.244,o),
(1539.99,833.244,qs),
(1636.2,833.244,o),
(1764.19,739.681,o),
(1764.19,645.235,q)
);
},
{
closed = 1;
nodes = (
(1601.77,654.061,o),
(1597.36,660.24,q),
(1581.47,670.832,o),
(1539.99,670.832,qs),
(1509.09,670.832,o),
(1471.14,645.235,q),
(1509.09,619.637,o),
(1539.99,619.637,qs),
(1579.71,619.637,o),
(1600.01,632.877,q),
(1601.77,636.408,o),
(1601.77,645.235,q)
);
}
);
width = 1905;
}
);
unicode = 57399;
},
{
glyphname = uniE038;
layers = (
{
layerId = "C9131A5A-EDD4-486F-A7AF-343E1560E480";
shapes = (
{
closed = 1;
nodes = (
(1322.85,126.222,o),
(1162.2,17.654,qs),
(1017.44,-79.441,o),
(840.026,-79.441,qs),
(670.553,-79.441,o),
(534.621,-10.592,q),
(458.711,-81.206,o),
(356.321,-81.206,qs),
(232.746,-81.206,o),
(162.132,3.531,q),
(140.948,32.659,o),
(140.948,58.257,qs),
(140.948,91.798,o),
(191.261,141.228,o),
(223.92,141.228,qs),
(253.048,141.228,o),
(320.131,81.206,o),
(356.321,81.206,qs),
(396.041,81.206,o),
(453.415,139.462,o),
(453.415,179.183,qs),
(453.415,218.903,o),
(396.041,276.277,o),
(356.321,276.277,qs),
(274.232,276.277,o),
(274.232,358.366,qs),
(274.232,439.572,o),
(356.321,439.572,qs),
(464.007,439.572,o),
(615.827,285.986,o),
(615.827,179.183,qs),
(615.827,155.351,o),
(612.296,132.401,q),
(712.038,82.971,o),
(840.026,82.971,qs),
(945.064,82.971,o),
(1044.81,137.697,qs),
(1160.44,200.367,o),
(1160.44,296.578,qs),
(1160.44,399.851,o),
(1050.1,484.588,qs),
(946.83,564.029,o),
(840.026,564.029,qs),
(758.82,564.029,o),
(758.82,645.235,qs),
(758.82,726.441,o),
(840.026,726.441,qs),
(945.064,726.441,o),
(1048.34,797.055,qs),
(1160.44,872.965,o),
(1160.44,974.472,qs),
(1160.44,1069.8,o),
(1044.81,1133.35,qs),
(945.064,1188.08,o),
(840.026,1188.08,qs),
(684.675,1188.08,o),
(569.045,1112.17,q),
(541.682,1091.87,o),
(518.733,1091.87,qs),
(486.074,1091.87,o),
(437.527,1143.95,o),
(437.527,1176.6,qs),
(437.527,1211.03,o),
(470.186,1240.16,qs),
(531.09,1292.23,o),
(644.955,1323.13,qs),
(744.697,1350.49,o),
(840.026,1350.49,qs),
(1017.44,1350.49,o),
(1162.2,1252.51,qs),
(1322.85,1142.18,o),
(1322.85,974.472,qs),
(1322.85,769.692,o),
(1110.12,641.704,q),
(1322.85,504.007,o),
(1322.85,296.578,q)
);
}
);
width = 1463;
}
);
unicode = 57400;
},
{
glyphname = uniE039;
layers = (
{
layerId = "C9131A5A-EDD4-486F-A7AF-343E1560E480";
shapes = (
{
closed = 1;
nodes = (
(1455.25,37.955,o),
(1312.26,-81.206,o),
(1217.81,-81.206,qs),
(1145.43,-81.206,o),
(1093.35,-55.609,qs),
(1024.5,-22.067,o),
(1024.5,43.251,qs),
(1024.5,117.396,o),
(1093.35,117.396,qs),
(1113.65,117.396,o),
(1191.33,81.206,o),
(1216.05,81.206,qs),
(1241.64,81.206,o),
(1263.71,91.798,q),
(1291.96,106.804,o),
(1291.96,127.988,qs),
(1291.96,142.993,o),
(1234.58,177.417,o),
(1217.81,177.417,qs),
(1105.71,177.417,o),
(1026.27,269.216,q),
(1013.91,112.1,o),
(853.266,10.592,qs),
(712.038,-79.441,o),
(544.33,-79.441,qs),
(448.119,-79.441,o),
(350.142,-52.078,qs),
(238.042,-23.832,o),
(173.607,30.894,qs),
(140.948,58.257,o),
(140.948,91.798,qs),
(140.948,126.222,o),
(189.495,177.417,o),
(222.154,177.417,qs),
(245.986,177.417,o),
(272.467,158.881,q),
(388.097,82.971,o),
(544.33,82.971,qs),
(648.486,82.971,o),
(748.228,137.697,qs),
(865.624,200.367,o),
(865.624,296.578,qs),
(865.624,399.851,o),
(755.289,484.588,qs),
(652.016,564.029,o),
(544.33,564.029,qs),
(462.242,564.029,o),
(462.242,645.235,qs),
(462.242,726.441,o),
(544.33,726.441,qs),
(650.251,726.441,o),
(751.759,797.055,q),
(865.624,872.965,o),
(865.624,974.472,qs),
(865.624,1069.8,o),
(748.228,1133.35,qs),
(648.486,1188.08,o),
(544.33,1188.08,qs),
(388.097,1188.08,o),
(272.467,1112.17,q),
(245.986,1091.87,o),
(222.154,1091.87,qs),
(189.495,1091.87,o),
(140.948,1143.95,o),
(140.948,1176.6,qs),
(140.948,1212.79,o),
(173.607,1240.16,qs),
(238.042,1292.23,o),
(350.142,1323.13,qs),
(448.119,1350.49,o),
(544.33,1350.49,qs),
(720.865,1350.49,o),
(865.624,1252.51,qs),
(1028.04,1142.18,o),
(1028.04,974.472,qs),
(1028.04,769.692,o),
(813.546,641.704,q),
(934.472,564.029,o),
(990.08,450.164,q),
(1012.15,517.247,o),
(1081,558.733,qs),
(1143.67,596.688,o),
(1216.05,596.688,qs),
(1393.46,596.688,o),
(1393.46,493.415,qs),
(1393.46,460.756,o),
(1348.45,412.209,o),
(1315.79,412.209,qs),
(1301.66,412.209,o),
(1241.64,434.276,o),
(1217.81,434.276,qs),
(1194.86,434.276,o),
(1171.03,422.801,q),
(1141.9,408.678,o),
(1141.9,386.611,qs),
(1141.9,372.488,o),
(1201.92,339.829,o),
(1217.81,339.829,qs),
(1303.43,339.829,o),
(1455.25,213.607,o),
(1455.25,127.988,q)
);
}
);
width = 1596;
}
);
unicode = 57401;
},
{
glyphname = uniE03A;
layers = (
{
layerId = "C9131A5A-EDD4-486F-A7AF-343E1560E480";
shapes = (
{
closed = 1;
nodes = (
(1615.9,921.512,o),
(1465.84,726.441,o),
(1351.98,684.955,q),
(1336.09,679.659,o),
(1321.08,679.659,qs),
(1286.66,679.659,o),
(1241.64,729.971,o),
(1241.64,764.396,qs),
(1241.64,812.06,o),
(1293.72,836.775,qs),
(1453.48,912.685,o),
(1453.48,1041.56,qs),
(1453.48,1131.59,o),
(1369.63,1164.25,qs),
(1317.55,1185.43,o),
(1208.98,1185.43,qs),
(1184.27,1185.43,o),
(1155.14,1171.31,qs),
(1120.72,1153.65,o),
(1120.72,1129.82,qs),
(1120.72,1084.81,o),
(1207.22,1084.81,qs),
(1288.42,1084.81,o),
(1288.42,1003.6,qs),
(1288.42,921.512,o),
(1207.22,921.512,qs),
(1095.12,921.512,o),
(1028.04,974.472,q),
(1028.04,769.692,o),
(813.546,641.704,q),
(1028.04,504.007,o),
(1028.04,296.578,qs),
(1028.04,126.222,o),
(865.624,17.654,qs),
(720.865,-79.441,o),
(544.33,-79.441,qs),
(449.884,-79.441,o),
(350.142,-52.078,qs),
(236.277,-22.067,o),
(173.607,30.894,qs),
(140.948,58.257,o),
(140.948,91.798,qs),
(140.948,126.222,o),
(189.495,177.417,o),
(222.154,177.417,qs),
(245.986,177.417,o),
(272.467,158.881,q),
(388.097,82.971,o),
(544.33,82.971,qs),
(648.486,82.971,o),
(748.228,137.697,qs),
(865.624,200.367,o),
(865.624,296.578,qs),
(865.624,399.851,o),
(755.289,484.588,qs),
(652.016,564.029,o),
(544.33,564.029,qs),
(462.242,564.029,o),
(462.242,645.235,qs),
(462.242,726.441,o),
(544.33,726.441,qs),
(650.251,726.441,o),
(751.759,797.055,q),
(865.624,872.965,o),
(865.624,974.472,qs),
(865.624,1069.8,o),
(748.228,1133.35,qs),
(648.486,1188.08,o),
(544.33,1188.08,qs),
(388.097,1188.08,o),
(272.467,1112.17,q),
(245.986,1091.87,o),
(222.154,1091.87,qs),
(189.495,1091.87,o),
(140.948,1143.95,o),
(140.948,1176.6,qs),
(140.948,1211.03,o),
(173.607,1240.16,q),
(236.277,1292.23,o),
(350.142,1323.13,qs),
(449.884,1350.49,o),
(544.33,1350.49,qs),
(659.96,1350.49,o),
(773.825,1301.94,qs),
(894.752,1248.98,o),
(961.83,1166.01,q),
(974.19,1245.45,o),
(1051.87,1297.53,qs),
(1124.25,1348.73,o),
(1208.98,1348.73,qs),
(1615.9,1348.73,o),
(1615.9,1041.56,q)
);
}
);
width = 1756;
}
);
unicode = 57402;
},
{
glyphname = uniE03B;
layers = (
{
layerId = "C9131A5A-EDD4-486F-A7AF-343E1560E480";
shapes = (
{
closed = 1;
nodes = (
(1431.42,129.753,o),
(1265.47,-52.078,qs),
(1236.35,-82.971,o),
(1203.69,-82.971,qs),
(1171.03,-82.971,o),
(1120.72,-32.659,o),
(1120.72,0,qs),
(1120.72,23.832,o),
(1165.73,84.737,o),
(1214.28,157.116,q),
(1210.75,157.116,l),
(1091.59,155.351,o),
(1024.5,255.093,q),
(1006.85,105.038,o),
(847.97,7.061,qs),
(708.508,-79.441,o),
(544.33,-79.441,qs),
(449.884,-79.441,o),
(350.142,-52.078,qs),
(236.277,-22.067,o),
(173.607,30.894,qs),
(140.948,58.257,o),
(140.948,91.798,qs),
(140.948,126.222,o),
(189.495,177.417,o),
(222.154,177.417,qs),
(245.986,177.417,o),
(272.467,158.881,q),
(388.097,82.971,o),
(544.33,82.971,qs),
(648.486,82.971,o),
(748.228,137.697,qs),
(865.624,200.367,o),
(865.624,296.578,qs),
(865.624,399.851,o),
(755.289,484.588,qs),
(652.016,564.029,o),
(544.33,564.029,qs),
(462.242,564.029,o),
(462.242,645.235,qs),
(462.242,726.441,o),
(544.33,726.441,qs),
(650.251,726.441,o),
(751.759,797.055,q),
(865.624,872.965,o),
(865.624,974.472,qs),
(865.624,1069.8,o),
(748.228,1133.35,qs),
(648.486,1188.08,o),
(544.33,1188.08,qs),
(388.097,1188.08,o),
(272.467,1112.17,q),
(245.986,1091.87,o),
(222.154,1091.87,qs),
(189.495,1091.87,o),
(140.948,1143.95,o),
(140.948,1176.6,qs),
(140.948,1211.03,o),
(173.607,1240.16,q),
(236.277,1292.23,o),
(350.142,1323.13,qs),
(449.884,1350.49,o),
(544.33,1350.49,qs),
(720.865,1350.49,o),
(865.624,1252.51,qs),
(1028.04,1142.18,o),
(1028.04,974.472,qs),
(1028.04,769.692,o),
(813.546,641.704,q),
(941.533,560.498,o),
(996.26,437.806,q),
(1015.68,510.186,o),
(1134.84,600.218,o),
(1210.75,600.218,qs),
(1301.66,600.218,o),
(1431.42,469.583,o),
(1431.42,377.784,q)
);
},
{
closed = 1;
nodes = (
(1269.01,403.382,o),
(1234.58,437.806,o),
(1210.75,437.806,qs),
(1186.03,437.806,o),
(1151.61,403.382,o),
(1151.61,377.784,qs),
(1151.61,353.952,o),
(1186.03,319.528,o),
(1210.75,319.528,qs),
(1234.58,319.528,o),
(1269.01,353.952,o),
(1269.01,377.784,q)
);
}
);
width = 1572;
}
);
unicode = 57403;
},
{
glyphname = uniE03C;
layers = (
{
layerId = "C9131A5A-EDD4-486F-A7AF-343E1560E480";
shapes = (
{
closed = 1;
nodes = (
(1028.04,126.222,o),
(865.624,15.888,qs),
(720.865,-81.206,o),
(544.33,-81.206,qs),
(449.884,-81.206,o),
(350.142,-53.843,qs),
(236.277,-23.832,o),
(173.607,29.128,qs),
(140.948,55.608,o),
(140.948,90.033,qs),
(140.948,124.457,o),
(189.495,175.652,o),
(222.154,175.652,qs),
(245.986,175.652,o),
(272.467,157.116,q),
(388.097,81.206,o),
(544.33,81.206,qs),
(648.486,81.206,o),
(748.228,135.932,qs),
(865.624,198.602,o),
(865.624,294.813,qs),
(865.624,361.896,o),
(802.071,419.27,qs),
(751.759,466.052,o),
(679.379,491.649,qs),
(614.061,513.716,o),
(544.33,513.716,qs),
(458.711,513.716,o),
(458.711,594.922,qs),
(458.711,676.128,o),
(544.33,676.128,qs),
(710.273,676.128,o),
(791.479,724.675,q),
(710.273,774.105,o),
(544.33,774.105,qs),
(460.476,774.105,o),
(460.476,855.311,qs),
(460.476,936.517,o),
(544.33,936.517,qs),
(724.396,936.517,o),
(838.261,1036.26,q),
(865.624,1060.97,o),
(865.624,1071.57,qs),
(865.624,1117.47,o),
(726.161,1155.42,qs),
(610.531,1188.08,o),
(544.33,1188.08,qs),
(388.097,1188.08,o),
(272.467,1112.17,q),
(245.986,1091.87,o),
(222.154,1091.87,qs),
(189.495,1091.87,o),
(140.948,1143.95,o),
(140.948,1176.6,qs),
(140.948,1211.03,o),
(173.607,1240.16,qs),
(234.512,1292.23,o),
(350.142,1323.13,qs),
(449.884,1350.49,o),
(544.33,1350.49,qs),
(699.681,1350.49,o),
(843.557,1286.94,qs),
(1028.04,1205.73,o),
(1028.04,1071.57,qs),
(1028.04,950.64,o),
(876.216,864.138,q),
(968.9,807.647,o),
(968.9,724.675,qs),
(968.9,636.408,o),
(863.858,578.151,q),
(1028.04,467.817,o),
(1028.04,294.813,q)
);
}
);
width = 1169;
}
);
unicode = 57404;
},
{
glyphname = uniE03D;
layers = (
{
layerId = "C9131A5A-EDD4-486F-A7AF-343E1560E480";
shapes = (
{
closed = 1;
nodes = (
(1028.04,126.222,o),
(865.624,15.888,qs),
(720.865,-81.206,o),
(544.33,-81.206,qs),
(449.884,-81.206,o),
(348.377,-53.843,qs),
(232.746,-23.832,o),
(173.607,29.128,qs),
(140.948,58.256,o),
(140.948,90.033,qs),
(140.948,124.457,o),
(189.495,175.652,o),
(222.154,175.652,qs),
(244.221,175.652,o),
(272.467,157.116,q),
(396.041,81.206,o),
(544.33,81.206,qs),
(648.486,81.206,o),
(748.228,135.932,qs),
(865.624,198.602,o),
(865.624,294.813,qs),
(865.624,361.896,o),
(803.836,419.27,qs),
(751.759,466.052,o),
(679.379,491.649,qs),
(614.061,513.716,o),
(544.33,513.716,qs),
(522.263,513.716,o),
(503.727,522.543,q),
(479.012,439.572,o),
(339.55,334.533,o),
(254.813,334.533,qs),
(173.607,334.533,o),
(173.607,415.739,qs),
(173.607,496.945,o),
(254.813,496.945,qs),
(294.533,496.945,o),
(350.142,555.202,o),
(350.142,594.922,qs),
(350.142,634.643,o),
(294.533,692.016,o),
(254.813,692.016,qs),
(173.607,692.016,o),
(173.607,774.105,qs),
(173.607,855.311,o),
(254.813,855.311,qs),
(339.55,855.311,o),
(479.012,750.273,o),
(503.727,667.302,q),
(522.263,676.128,o),
(544.33,676.128,qs),
(710.273,676.128,o),
(791.479,724.675,q),
(708.508,774.105,o),
(544.33,774.105,qs),
(508.141,774.105,o),
(460.476,819.121,o),
(460.476,855.311,qs),
(460.476,891.501,o),
(508.141,936.517,o),
(544.33,936.517,qs),
(726.161,936.517,o),
(838.261,1036.26,qs),
(865.624,1060.97,o),
(865.624,1071.57,qs),
(865.624,1117.47,o),
(726.161,1155.42,qs),
(610.531,1188.08,o),
(544.33,1188.08,qs),
(396.041,1188.08,o),
(272.467,1112.17,q),
(244.221,1091.87,o),
(222.154,1091.87,qs),
(189.495,1091.87,o),
(140.948,1143.95,o),
(140.948,1176.6,qs),
(140.948,1211.03,o),
(173.607,1240.16,qs),
(232.746,1292.23,o),
(348.377,1323.13,qs),
(449.884,1350.49,o),
(544.33,1350.49,qs),
(699.681,1350.49,o),
(843.557,1286.94,qs),
(1028.04,1205.73,o),
(1028.04,1071.57,qs),
(1028.04,950.64,o),
(876.216,864.138,q),
(968.9,807.647,o),
(968.9,724.675,qs),
(968.9,634.643,o),
(863.858,578.151,q),
(1028.04,467.817,o),
(1028.04,294.813,q)
);
}
);
width = 1169;
}
);
unicode = 57405;
},
{
glyphname = uniE03E;
layers = (
{
layerId = "C9131A5A-EDD4-486F-A7AF-343E1560E480";
shapes = (
{
closed = 1;
nodes = (
(1389.93,639.939,o),
(1288.42,496.945,o),
(1207.22,464.287,q),
(1189.56,458.99,o),
(1174.56,458.99,qs),
(1140.14,458.99,o),
(1095.12,510.186,o),
(1095.12,543.727,qs),
(1095.12,584.33,o),
(1160.44,625.816,o),
(1191.33,643.469,q),
(941.533,643.469,l),
(914.171,607.28,o),
(863.858,578.151,q),
(1028.04,467.817,o),
(1028.04,294.813,qs),
(1028.04,126.222,o),
(865.624,15.888,qs),
(720.865,-81.206,o),
(544.33,-81.206,qs),
(449.884,-81.206,o),
(350.142,-53.843,qs),
(236.277,-23.832,o),
(173.607,29.128,qs),
(140.948,55.608,o),
(140.948,90.033,qs),
(140.948,124.457,o),
(189.495,175.652,o),
(222.154,175.652,qs),
(245.986,175.652,o),
(272.467,157.116,q),
(388.097,81.206,o),
(544.33,81.206,qs),
(648.486,81.206,o),
(748.228,135.932,qs),
(865.624,198.602,o),
(865.624,294.813,qs),
(865.624,361.896,o),
(802.071,419.27,qs),
(751.759,466.052,o),
(679.379,491.649,qs),
(614.061,513.716,o),
(544.33,513.716,qs),
(458.711,513.716,o),
(458.711,594.922,qs),
(458.711,676.128,o),
(544.33,676.128,qs),
(710.273,676.128,o),
(791.479,724.675,q),
(710.273,774.105,o),
(544.33,774.105,qs),
(460.476,774.105,o),
(460.476,855.311,qs),
(460.476,936.517,o),
(544.33,936.517,qs),
(724.396,936.517,o),
(838.261,1036.26,q),
(865.624,1060.97,o),
(865.624,1071.57,qs),
(865.624,1117.47,o),
(726.161,1155.42,qs),
(610.531,1188.08,o),
(544.33,1188.08,qs),
(388.097,1188.08,o),
(272.467,1112.17,q),
(245.986,1091.87,o),
(222.154,1091.87,qs),
(189.495,1091.87,o),
(140.948,1143.95,o),
(140.948,1176.6,qs),
(140.948,1211.03,o),
(173.607,1240.16,qs),
(234.512,1292.23,o),
(350.142,1323.13,qs),
(449.884,1350.49,o),
(544.33,1350.49,qs),
(699.681,1350.49,o),
(843.557,1286.94,qs),
(1028.04,1205.73,o),
(1028.04,1071.57,qs),
(1028.04,950.64,o),
(876.216,864.138,q),
(917.701,838.54,o),
(941.533,805.881,q),
(1191.33,805.881,l),
(1160.44,826.183,o),
(1095.12,865.903,o),
(1095.12,907.389,qs),
(1095.12,940.048,o),
(1140.14,992.126,o),
(1174.56,992.126,qs),
(1189.56,992.126,o),
(1207.22,985.064,qs),
(1288.42,952.405,o),
(1389.93,812.06,o),
(1389.93,724.675,q)
);
}
);
width = 1530;
}
);
unicode = 57406;
},
{
glyphname = uniE03F;
layers = (
{
layerId = "C9131A5A-EDD4-486F-A7AF-343E1560E480";
shapes = (
{
closed = 1;
nodes = (
(1369.63,124.457,o),
(1208.98,15.888,qs),
(1064.23,-81.206,o),
(887.69,-81.206,qs),
(753.524,-81.206,o),
(584.051,-1.765,qs),
(479.012,46.782,o),
(306.891,157.116,q),
(320.131,112.1,o),
(381.035,77.675,qs),
(435.761,46.782,o),
(435.761,1.765,qs),
(435.761,-30.894,o),
(389.862,-82.971,o),
(356.321,-82.971,qs),
(341.315,-82.971,o),
(323.662,-75.91,qs),
(241.573,-43.251,o),
(140.948,99.742,o),
(140.948,184.479,qs),
(140.948,269.216,o),
(241.573,412.209,o),
(323.662,444.868,q),
(341.315,450.164,o),
(356.321,450.164,qs),
(389.862,450.164,o),
(435.761,399.851,o),
(435.761,365.427,qs),
(435.761,317.763,o),
(391.628,296.578,q),
(729.692,81.206,o),
(887.69,81.206,qs),
(991.85,81.206,o),
(1091.59,135.932,qs),
(1207.22,198.602,o),
(1207.22,294.813,qs),
(1207.22,361.896,o),
(1145.43,419.27,qs),
(1095.12,466.052,o),
(1022.74,491.649,qs),
(958.304,513.716,o),
(887.69,513.716,qs),
(851.501,513.716,o),
(802.071,558.733,o),
(802.071,594.922,qs),
(802.071,631.112,o),
(851.501,676.128,o),
(887.69,676.128,qs),
(1051.87,676.128,o),
(1134.84,724.675,q),
(1051.87,774.105,o),
(887.69,774.105,qs),
(851.501,774.105,o),
(802.071,819.121,o),
(802.071,855.311,qs),
(802.071,891.501,o),
(851.501,936.517,o),
(887.69,936.517,qs),
(1069.52,936.517,o),
(1179.86,1036.26,qs),
(1207.22,1060.97,o),
(1207.22,1071.57,qs),
(1207.22,1117.47,o),
(1067.76,1155.42,qs),
(952.126,1188.08,o),
(887.69,1188.08,qs),
(737.636,1188.08,o),
(615.827,1112.17,q),
(585.816,1091.87,o),
(565.514,1091.87,qs),
(532.855,1091.87,o),
(484.308,1143.95,o),
(484.308,1176.6,qs),
(484.308,1211.03,o),
(516.967,1240.16,qs),
(574.341,1292.23,o),
(691.737,1323.13,qs),
(793.244,1350.49,o),
(887.69,1350.49,qs),
(1043.04,1350.49,o),
(1187.8,1286.94,qs),
(1369.63,1205.73,o),
(1369.63,1071.57,qs),
(1369.63,950.64,o),
(1219.58,864.138,q),
(1310.49,807.647,o),
(1310.49,724.675,qs),
(1310.49,634.643,o),
(1207.22,578.151,q),
(1369.63,467.817,o),
(1369.63,294.813,q)
);
}
);
width = 1510;
}
);
unicode = 57407;
},
{
glyphname = uniE040;
layers = (
{
layerId = "C9131A5A-EDD4-486F-A7AF-343E1560E480";
shapes = (
{
closed = 1;
nodes = (
(1486.14,148.289,o),
(1462.31,122.692,q),
(1389.93,36.19,o),
(1270.77,36.19,qs),
(1184.27,36.19,o),
(1044.81,142.993,o),
(1019.21,225.965,q),
(986.55,84.737,o),
(834.73,-3.531,qs),
(699.681,-81.206,o),
(544.33,-81.206,qs),
(449.884,-81.206,o),
(348.377,-53.843,qs),
(232.746,-23.832,o),
(173.607,29.128,qs),
(140.948,58.256,o),
(140.948,90.033,qs),
(140.948,124.457,o),
(189.495,175.652,o),
(222.154,175.652,qs),
(244.221,175.652,o),
(272.467,157.116,qs),
(394.276,81.206,o),
(544.33,81.206,qs),
(648.486,81.206,o),
(748.228,135.932,qs),
(865.624,198.602,o),
(865.624,294.813,qs),
(865.624,393.673,o),
(749.993,457.225,q),
(652.016,513.716,o),
(544.33,513.716,qs),
(508.141,513.716,o),
(458.711,558.733,o),
(458.711,594.922,qs),
(458.711,631.112,o),
(508.141,676.128,o),
(544.33,676.128,qs),
(710.273,676.128,o),
(791.479,724.675,q),
(708.508,774.105,o),
(544.33,774.105,qs),
(508.141,774.105,o),
(460.476,819.121,o),
(460.476,855.311,qs),
(460.476,891.501,o),
(508.141,936.517,o),
(544.33,936.517,qs),
(726.161,936.517,o),
(838.261,1036.26,qs),
(865.624,1060.97,o),
(865.624,1071.57,qs),
(865.624,1117.47,o),
(726.161,1155.42,qs),
(610.531,1188.08,o),
(544.33,1188.08,qs),
(394.276,1188.08,o),
(272.467,1112.17,q),
(244.221,1091.87,o),
(222.154,1091.87,qs),
(189.495,1091.87,o),
(140.948,1143.95,o),
(140.948,1176.6,qs),
(140.948,1211.03,o),
(173.607,1240.16,qs),
(232.746,1292.23,o),
(348.377,1323.13,qs),
(449.884,1350.49,o),
(544.33,1350.49,qs),
(699.681,1350.49,o),
(843.557,1286.94,qs),
(1028.04,1205.73,o),
(1028.04,1071.57,qs),
(1028.04,950.64,o),
(876.216,864.138,q),
(968.9,807.647,o),
(968.9,724.675,qs),
(968.9,634.643,o),
(863.858,578.151,q),
(988.32,493.415,o),
(1019.21,367.192,q),
(1043.04,450.164,o),
(1181.62,556.967,o),
(1270.77,556.967,qs),
(1351.98,556.967,o),
(1351.98,475.761,qs),
(1351.98,393.673,o),
(1270.77,393.673,qs),
(1229.29,393.673,o),
(1172.79,338.064,o),
(1172.79,296.578,qs),
(1172.79,256.858,o),
(1229.29,198.602,o),
(1270.77,198.602,qs),
(1306.96,198.602,o),
(1374.04,260.389,o),
(1400.52,260.389,qs),
(1434.95,260.389,o),
(1486.14,210.076,o),
(1486.14,177.417,q)
);
}
);
width = 1627;
}
);
unicode = 57408;
},
{
glyphname = uniE041;
layers = (
{
layerId = "C9131A5A-EDD4-486F-A7AF-343E1560E480";
shapes = (
{
closed = 1;
nodes = (
(1476.67,940.013,o),
(1454.98,912.897,q),
(1382.68,827.934,o),
(1261.56,827.934,qs),
(1178.4,827.934,o),
(1041.01,927.355,o),
(1013.9,1005.09,q),
(981.36,923.745,o),
(876.516,864.088,q),
(968.7,808.049,o),
(968.7,724.894,qs),
(968.7,634.508,o),
(863.858,578.469,q),
(1028.36,468.199,o),
(1028.36,294.658,qs),
(1028.36,124.732,o),
(865.668,16.269,qs),
(721.049,-81.347,o),
(543.892,-81.347,qs),
(449.891,-81.347,o),
(348.659,-54.232,qs),
(232.965,-23.5,o),
(173.311,28.923,qs),
(140.772,57.847,o),
(140.772,90.386,qs),
(140.772,124.732,o),
(189.58,175.348,o),
(222.119,175.348,qs),
(243.811,175.348,o),
(272.735,157.271,qs),
(393.852,81.347,o),
(543.892,81.347,qs),
(648.74,81.347,o),
(748.164,135.579,qs),
(865.668,198.849,o),
(865.668,294.658,qs),
(865.668,394.082,o),
(749.972,457.352,q),
(652.355,513.391,o),
(543.892,513.391,qs),
(507.738,513.391,o),
(458.93,558.584,o),
(458.93,594.739,qs),
(458.93,630.893,o),
(507.738,676.086,o),
(543.892,676.086,qs),
(710.202,676.086,o),
(791.55,724.894,q),
(708.395,773.703,o),
(543.892,773.703,qs),
(507.738,773.703,o),
(460.737,818.896,o),
(460.737,855.05,qs),
(460.737,891.201,o),
(507.738,936.394,o),
(543.892,936.394,qs),
(726.472,936.394,o),
(838.55,1035.82,qs),
(865.668,1061.13,o),
(865.668,1071.97,qs),
(865.668,1117.17,o),
(726.472,1155.13,qs),
(610.778,1187.67,o),
(543.892,1187.67,qs),
(393.852,1187.67,o),
(272.735,1111.75,q),
(243.811,1091.86,o),
(222.119,1091.86,qs),
(189.58,1091.86,o),
(140.772,1144.28,o),
(140.772,1176.83,qs),
(140.772,1211.17,o),
(173.311,1240.1,qs),
(232.965,1292.52,o),
(348.659,1323.25,qs),
(449.891,1350.37,o),
(543.892,1350.37,qs),
(674.048,1350.37,o),
(804.204,1301.56,q),
(961.47,1245.51,o),
(1008.48,1151.52,q),
(1030.17,1238.29,o),
(1172.98,1348.56,o),
(1261.56,1348.56,qs),
(1342.9,1348.56,o),
(1342.9,1267.21,qs),
(1342.9,1185.86,o),
(1261.56,1185.86,qs),
(1221.78,1185.86,o),
(1163.94,1128.01,o),
(1163.94,1088.25,qs),
(1163.94,1048.48,o),
(1221.78,990.625,o),
(1261.56,990.625,qs),
(1297.71,990.625,o),
(1364.6,1050.28,o),
(1393.52,1050.28,qs),
(1426.06,1050.28,o),
(1476.67,1001.47,o),
(1476.67,968.938,q)
);
}
);
width = 1617;
}
);
unicode = 57409;
},
{
glyphname = uniE042;
layers = (
{
layerId = "C9131A5A-EDD4-486F-A7AF-343E1560E480";
shapes = (
{
closed = 1;
nodes = (
(1198.29,126.54,o),
(1037.4,16.269,qs),
(892.783,-81.347,o),
(715.625,-81.347,qs),
(621.624,-81.347,o),
(520.392,-54.232,qs),
(402.891,-23.5,o),
(345.044,28.923,qs),
(312.505,57.847,o),
(312.505,90.386,qs),
(312.505,124.732,o),
(361.313,175.348,o),
(393.852,175.348,qs),
(415.545,175.348,o),
(444.468,157.271,qs),
(567.393,81.347,o),
(715.625,81.347,qs),
(820.473,81.347,o),
(919.899,135.579,qs),
(1035.59,198.849,o),
(1035.59,294.658,qs),
(1035.59,361.543,o),
(974.13,419.39,qs),
(923.509,466.391,o),
(851.201,491.699,qs),
(786.126,513.391,o),
(715.625,513.391,qs),
(679.471,513.391,o),
(630.663,558.584,o),
(630.663,594.739,qs),
(630.663,630.893,o),
(679.471,676.086,o),
(715.625,676.086,qs),
(880.126,676.086,o),
(963.28,724.894,q),
(880.126,773.703,o),
(715.625,773.703,qs),
(679.471,773.703,o),
(630.663,818.896,o),
(630.663,855.05,qs),
(630.663,891.201,o),
(679.471,936.394,o),
(715.625,936.394,qs),
(898.203,936.394,o),
(1008.48,1035.82,qs),
(1035.59,1061.13,o),
(1035.59,1071.97,qs),
(1035.59,1117.17,o),
(903.631,1153.32,qs),
(793.357,1184.05,o),
(728.279,1184.05,qs),
(659.586,1184.05,o),
(589.085,1175.02,qs),
(496.892,1162.36,o),
(419.16,1131.63,qs),
(303.466,1088.25,o),
(303.466,1028.59,qs),
(303.466,988.824,o),
(361.313,930.974,o),
(401.083,930.974,qs),
(435.429,930.974,o),
(482.43,885.781,o),
(482.43,849.627,qs),
(482.43,815.28,o),
(435.429,768.279,o),
(401.083,768.279,qs),
(294.428,768.279,o),
(140.772,921.935,o),
(140.772,1028.59,qs),
(140.772,1147.9,o),
(265.504,1231.06,qs),
(359.505,1296.14,o),
(498.699,1326.86,qs),
(605.355,1350.37,o),
(715.625,1350.37,qs),
(871.087,1350.37,o),
(1015.7,1287.1,qs),
(1198.29,1205.75,o),
(1198.29,1071.97,qs),
(1198.29,950.861,o),
(1048.25,864.088,q),
(1138.63,808.049,o),
(1138.63,724.894,qs),
(1138.63,634.508,o),
(1035.59,578.469,q),
(1198.29,468.199,o),
(1198.29,294.658,q)
);
}
);
width = 1339;
}
);
unicode = 57410;
},
{
glyphname = uniE043;
layers = (
{
layerId = "C9131A5A-EDD4-486F-A7AF-343E1560E480";
shapes = (
{
closed = 1;
nodes = (
(1746.02,623.662,o),
(1671.91,574.854,qs),
(1610.44,535.084,o),
(1521.87,535.084,qs),
(1433.29,535.084,o),
(1341.09,605.585,q),
(1292.29,538.699,o),
(1263.37,480.853,q),
(1241.67,433.852,o),
(1192.87,433.852,qs),
(1160.32,433.852,o),
(1107.9,480.853,o),
(1107.9,513.391,qs),
(1107.9,547.738,o),
(1167.55,641.739,q),
(939.786,641.739,l),
(912.67,605.585,o),
(863.858,578.469,q),
(1028.36,468.199,o),
(1028.36,294.658,qs),
(1028.36,126.54,o),
(865.668,16.269,qs),
(721.049,-81.347,o),
(543.892,-81.347,qs),
(449.891,-81.347,o),
(350.467,-54.232,qs),
(236.581,-23.5,o),
(173.311,28.923,qs),
(140.772,56.039,o),
(140.772,90.386,qs),
(140.772,124.732,o),
(189.58,175.348,o),
(222.119,175.348,qs),
(245.619,175.348,o),
(272.735,157.271,qs),
(388.429,81.347,o),
(543.892,81.347,qs),
(648.74,81.347,o),
(748.164,135.579,qs),
(865.668,198.849,o),
(865.668,294.658,qs),
(865.668,361.543,o),
(802.396,419.39,qs),
(751.78,466.391,o),
(679.471,491.699,qs),
(614.393,513.391,o),
(543.892,513.391,qs),
(458.93,513.391,o),
(458.93,594.739,qs),
(458.93,676.086,o),
(543.892,676.086,qs),
(710.202,676.086,o),
(791.55,724.894,q),
(710.202,773.703,o),
(543.892,773.703,qs),
(460.737,773.703,o),
(460.737,855.05,qs),
(460.737,936.394,o),
(543.892,936.394,qs),
(724.664,936.394,o),
(838.55,1035.82,q),
(865.668,1061.13,o),
(865.668,1071.97,qs),
(865.668,1117.17,o),
(726.472,1155.13,qs),
(610.778,1187.67,o),
(543.892,1187.67,qs),
(388.429,1187.67,o),
(272.735,1111.75,q),
(245.619,1091.86,o),
(222.119,1091.86,qs),
(189.58,1091.86,o),
(140.772,1144.28,o),
(140.772,1176.83,qs),
(140.772,1211.17,o),
(173.311,1240.1,qs),
(234.773,1292.52,o),
(350.467,1323.25,qs),
(449.891,1350.37,o),
(543.892,1350.37,qs),
(699.356,1350.37,o),
(843.972,1287.1,qs),
(1028.36,1205.75,o),
(1028.36,1071.97,qs),
(1028.36,950.861,o),
(876.516,864.088,q),
(919.899,838.78,o),
(943.396,804.434,q),
(1167.55,804.434,l),
(1107.9,898.439,o),
(1107.9,932.783,qs),
(1107.9,965.319,o),
(1160.32,1012.32,o),
(1192.87,1012.32,qs),
(1241.67,1012.32,o),
(1263.37,965.319,q),
(1292.29,907.477,o),
(1341.09,840.588,q),
(1433.29,911.087,o),
(1521.87,911.087,qs),
(1610.44,911.087,o),
(1671.91,871.319,qs),
(1746.02,822.511,o),
(1746.02,723.087,q)
);
},
{
closed = 1;
nodes = (
(1583.33,730.317,o),
(1579.72,737.548,q),
(1563.45,748.395,o),
(1521.87,748.395,qs),
(1491.14,748.395,o),
(1453.18,723.087,q),
(1491.14,697.779,o),
(1521.87,697.779,qs),
(1561.64,697.779,o),
(1581.53,710.433,q),
(1583.33,715.856,o),
(1583.33,723.087,q)
);
}
);
width = 1887;
}
);
unicode = 57411;
},
